<svg viewBox="0 0 1620 1028" xmlns="http://www.w3.org/2000/svg"><g id="a"></g><g id="b"><g id="c"><g><path fill="#ebf3fa" d="M62.24,1023.71c.38-7.48-156.34-232.11,26.17-439.51,82.39-93.62,221.75-42.9,199.7-316.39C269.07,31.66,597.83-107.09,802.14,103.74c132,136.22,265.64-45.5,475.05,57.6,209.42,103.11,71.52,383.35,157.45,409.75,169.28,52.02,253.35,280.92,118.39,450.07l-1490.8,2.54Z"></path><path fill="#8c9df4" d="M767.85,477.75c-.89-2.06-1.87-4.15-2.91-6.21l2.95-1.88c1.08,2.13,2.09,4.29,3.01,6.43l-3.05,1.66Zm-6.17-12.21c-1.12-1.94-2.32-3.88-3.56-5.78l2.73-2.26c1.28,1.96,2.52,3.96,3.67,5.96l-2.84,2.08Zm-336.82,42.01c-2.14,.26-4.3,.46-6.41,.6l-.2-3.8c2.06-.14,4.16-.33,6.25-.59l.36,3.79Zm6.38-.94l-.52-3.77c2.04-.36,4.12-.77,6.18-1.24l.67,3.74c-2.11,.47-4.24,.9-6.33,1.26Zm-19.22,1.79c-2.16,.02-4.32-.03-6.44-.14l.16-3.81c2.06,.11,4.16,.15,6.26,.13l.03,3.81Zm31.82-4.62l-.8-3.7c2.01-.55,4.05-1.16,6.07-1.81l.94,3.66c-2.06,.67-4.15,1.29-6.2,1.85Zm-44.69,3.95c-2.14-.25-4.3-.57-6.39-.95l.54-3.76c2.03,.37,4.12,.68,6.2,.92l-.35,3.79Zm57.03-7.92l-1.06-3.62c1.97-.73,3.97-1.51,5.94-2.33l1.17,3.58c-2.01,.83-4.05,1.63-6.06,2.37Zm12.03-4.98l-1.28-3.53c1.92-.88,3.87-1.82,5.79-2.78l1.38,3.48c-1.95,.98-3.94,1.94-5.89,2.83Zm-81.79,10.57c-2.11-.54-4.21-1.15-6.25-1.83l.96-3.65c1.97,.65,4,1.25,6.04,1.77l-.75,3.72Zm367.86-51.19c-1.31-1.8-2.69-3.59-4.1-5.33l2.51-2.56c1.44,1.79,2.86,3.63,4.21,5.48l-2.62,2.42Zm-274.37,34.74l-1.48-3.43c1.87-1.02,3.76-2.09,5.63-3.19l1.57,3.38c-1.9,1.12-3.82,2.2-5.72,3.24Zm-105.87,12.33c-2.03-.84-4.04-1.77-5.98-2.75l1.39-3.47c1.87,.95,3.81,1.84,5.77,2.65l-1.18,3.57Zm117.22-18.99l-1.66-3.32c1.81-1.14,3.65-2.33,5.46-3.54l1.73,3.27c-1.84,1.23-3.7,2.44-5.54,3.6Zm254.59-38.5c-1.47-1.65-3.01-3.28-4.55-4.85l2.27-2.83c1.59,1.61,3.16,3.29,4.67,4.98l-2.39,2.7Zm-383.6,51.52c-1.9-1.15-3.77-2.4-5.58-3.69l1.83-3.21c1.73,1.25,3.54,2.44,5.36,3.55l-1.61,3.35Zm140-20.37l-1.81-3.22c1.75-1.24,3.53-2.54,5.29-3.86l1.88,3.17c-1.78,1.34-3.59,2.65-5.36,3.91Zm10.64-7.97l-1.95-3.12c1.7-1.34,3.43-2.73,5.13-4.14l2.01,3.07c-1.72,1.42-3.47,2.83-5.19,4.19Zm-161.54,20.49c-1.72-1.46-3.41-3.01-5.02-4.6l2.24-2.86c1.54,1.53,3.17,3.02,4.82,4.42l-2.04,3.04Zm385.19-53.12c-1.61-1.48-3.27-2.94-4.95-4.34l2.02-3.06c1.72,1.43,3.42,2.93,5.07,4.45l-2.15,2.95Zm-213.35,24.11l-2.07-3.02,.5-.44c1.53-1.33,3.05-2.63,4.57-3.91l2.03,3.05c-1.5,1.27-3.01,2.56-4.53,3.87l-.5,.44Zm203.28-32.51c-1.73-1.3-3.51-2.58-5.29-3.79l1.75-3.26c1.83,1.24,3.65,2.55,5.43,3.89l-1.89,3.16Zm-384.83,51.89c-1.5-1.74-2.95-3.57-4.32-5.43l2.62-2.42c1.31,1.79,2.7,3.54,4.14,5.2l-2.44,2.65Zm191.67-27.89l-1.98-3.09c1.73-1.4,3.49-2.79,5.22-4.13l1.93,3.14c-1.71,1.33-3.45,2.71-5.17,4.09Zm182.42-31.29c-1.83-1.11-3.71-2.19-5.58-3.21l1.47-3.43c1.92,1.04,3.85,2.15,5.73,3.29l-1.62,3.35Zm-172.02,23.23l-1.87-3.18c1.79-1.33,3.6-2.64,5.37-3.89l1.81,3.22c-1.75,1.24-3.54,2.53-5.31,3.85Zm-210.31,24.72c-1.23-1.98-2.41-4.05-3.5-6.14l2.93-1.92c1.04,2.01,2.17,3.98,3.35,5.88l-2.78,2.18Zm221-32.28l-1.74-3.27c1.83-1.23,3.68-2.45,5.52-3.62l1.67,3.31c-1.81,1.16-3.65,2.36-5.45,3.57Zm150.03-21.78c-1.92-.91-3.88-1.79-5.83-2.6l1.17-3.57c2,.83,4.01,1.73,5.98,2.66l-1.32,3.51Zm-139.05,14.78l-1.6-3.36c1.88-1.13,3.79-2.24,5.68-3.31l1.52,3.4c-1.87,1.05-3.75,2.15-5.6,3.27Zm127.29-19.66c-1.98-.7-4.01-1.36-6.02-1.96l.87-3.68c2.07,.61,4.14,1.29,6.18,2.01l-1.02,3.63Zm-116.01,13.29l-1.44-3.45c1.94-1.02,3.9-2.02,5.83-2.97l1.35,3.49c-1.9,.93-3.84,1.92-5.74,2.92Zm-249.8,33.07c-.93-2.17-1.8-4.42-2.59-6.68l3.16-1.38c.75,2.17,1.59,4.32,2.48,6.41l-3.05,1.66Zm353.69-49.97c-2.03-.49-4.1-.93-6.16-1.32l.56-3.76c2.11,.4,4.24,.85,6.32,1.35l-.71,3.73Zm-92.34,11.23l-1.26-3.54c1.99-.9,4-1.76,5.98-2.58l1.17,3.58c-1.95,.8-3.93,1.66-5.88,2.54Zm79.97-13.55c-2.07-.28-4.17-.5-6.25-.68l.25-3.8c2.13,.18,4.28,.41,6.4,.69l-.4,3.78Zm-68.14,8.68l-1.06-3.62c2.04-.76,4.09-1.48,6.12-2.15l.96,3.66c-1.99,.66-4.01,1.37-6.01,2.11Zm55.63-9.72c-2.07-.07-4.18-.08-6.28-.05l-.05-3.81c2.14-.04,4.31-.02,6.42,.05l-.1,3.81Zm-43.55,5.73l-.84-3.69c2.07-.6,4.17-1.16,6.24-1.67l.72,3.72c-2.03,.5-4.09,1.05-6.12,1.64Zm31-5.52c-2.07,.13-4.18,.32-6.26,.55l-.33-3.79c2.13-.24,4.28-.43,6.4-.56l.2,3.8Zm-18.71,2.5l-.6-3.75c2.11-.43,4.24-.81,6.34-1.14l.47,3.77c-2.05,.32-4.14,.7-6.21,1.11Zm-302.26,37.05c-.62-2.3-1.17-4.67-1.64-7.04l3.31-.83c.45,2.28,.98,4.56,1.58,6.76l-3.24,1.11Zm-2.82-14.19c-.11-.87-.22-1.75-.31-2.63-.16-1.52-.3-3.07-.4-4.6l3.38-.29c.1,1.47,.23,2.96,.39,4.43,.09,.85,.19,1.69,.3,2.53l-3.36,.56Zm2.41-14.52l-3.39,.03c-.02-2.39,.04-4.84,.17-7.26l3.38,.22c-.12,2.34-.17,4.7-.16,7.01Zm.72-14.01l-3.37-.46c.25-2.34,.57-4.72,.95-7.07l3.35,.57-.02,.15c-.36,2.24-.67,4.54-.92,6.81Zm2.19-13.86l-3.31-.84c.47-2.34,.99-4.7,1.55-7l3.27,1c-.54,2.25-1.05,4.55-1.51,6.85Zm116-19.28c-2.24,.24-4.45,.3-6.59,.19l.16-3.81c1.97,.1,4.03,.04,6.11-.18l.32,3.79Zm6.48-1.15l-.73-3.72c1.97-.49,3.97-1.11,5.94-1.86l1.08,3.61c-2.09,.79-4.21,1.46-6.3,1.97Zm-19.64,.39c-2.23-.55-4.37-1.32-6.35-2.3l1.36-3.49c1.78,.88,3.71,1.57,5.72,2.07l-.72,3.72Zm32-5.05l-1.4-3.47c1.86-.95,3.72-2.01,5.51-3.17l1.68,3.31c-1.89,1.21-3.84,2.33-5.8,3.33Zm11.29-7.26l-1.95-3.12c1.69-1.33,3.34-2.77,4.89-4.26l2.2,2.9c-1.64,1.57-3.37,3.08-5.14,4.48Zm-142.84,18.74l-3.23-1.16c.65-2.29,1.36-4.59,2.09-6.83l3.18,1.32c-.72,2.19-1.41,4.43-2.04,6.67Zm87.37-12.52c-1.8-1.5-3.45-3.25-4.9-5.18l2.59-2.45c1.28,1.71,2.74,3.25,4.32,4.58l-2.02,3.06Zm65.36-15.72l-2.44-2.65c1.44-1.67,2.81-3.43,4.07-5.23l2.66,2.36c-1.33,1.89-2.77,3.75-4.29,5.52Zm-148.38,15.01l-3.12-1.48c.83-2.21,1.72-4.43,2.63-6.59l3.06,1.64c-.89,2.11-1.76,4.27-2.57,6.43Zm74.4-10.74c-1-2.13-1.85-4.46-2.52-6.91l3.24-1.13c.62,2.23,1.39,4.34,2.29,6.27l-3,1.77Zm82.04-15.78l-2.87-2.03c1.1-1.97,2.11-4,2.98-6.05l3.05,1.66c-.94,2.18-2,4.34-3.17,6.42Zm-151.04,13.8l-2.99-1.8c1.01-2.11,2.07-4.23,3.16-6.29l2.91,1.95c-1.07,2.01-2.1,4.07-3.09,6.14Zm65-12.15c-.09-.66-.18-1.34-.25-2.02-.18-1.7-.31-3.49-.37-5.3l3.39-.15c.06,1.71,.18,3.39,.35,4.99,.07,.64,.15,1.27,.23,1.89l-3.35,.59Zm91.7-14.87l-3.21-1.24c.67-2.18,1.22-4.42,1.64-6.65l3.32,.79c-.45,2.38-1.04,4.77-1.75,7.09Zm-150.28,14.92l-2.83-2.1c1.17-2,2.41-3.99,3.67-5.93l2.74,2.24c-1.23,1.9-2.43,3.84-3.58,5.79Zm61.37-14.5l-3.39-.15c.08-2.43,.24-4.87,.47-7.24l3.37,.41c-.22,2.28-.38,4.63-.46,6.98Zm91.63-14.8l-3.38-.33c.17-2.27,.23-4.59,.15-6.89l3.39-.14c.08,2.46,.02,4.93-.16,7.36Zm-145.62,17.91l-2.64-2.38c1.33-1.87,2.72-3.73,4.13-5.53l2.55,2.52c-1.38,1.76-2.74,3.58-4.04,5.4Zm8.29-10.59l-2.44-2.64c1.48-1.73,3.02-3.44,4.56-5.09l2.33,2.76c-1.51,1.61-3.01,3.28-4.45,4.97Zm47.05-6.41l-3.33-.69c.39-2.39,.87-4.77,1.42-7.09l3.28,.98c-.53,2.22-.99,4.51-1.36,6.8Zm86.29-14.84c-.46-2.21-1.13-4.32-2-6.28l3.03-1.7c.99,2.23,1.75,4.62,2.27,7.11l-3.3,.87Zm-124.24,11.53l-2.22-2.88c1.61-1.57,3.27-3.12,4.95-4.61l2.11,2.98c-1.64,1.46-3.26,2.97-4.83,4.51Zm41.15-10.16l-3.2-1.28c.72-2.28,1.54-4.56,2.42-6.75l3.09,1.56c-.84,2.1-1.62,4.28-2.31,6.46Zm77.83-13.22c-1.25-1.67-2.7-3.22-4.33-4.62l2.07-3.02c1.82,1.57,3.45,3.31,4.85,5.19l-2.59,2.46Zm-109.15,14.61l-1.99-3.09c1.73-1.41,3.51-2.79,5.29-4.11l1.87,3.18c-1.74,1.29-3.47,2.64-5.17,4.02Zm10.48-7.77l-1.74-3.27c1.83-1.23,3.71-2.44,5.58-3.58l1.62,3.35c-1.83,1.11-3.67,2.29-5.46,3.5Zm25.92-6.31l-2.97-1.84c.92-1.86,1.91-3.72,2.95-5.53-1.12,.44-2.23,.9-3.34,1.37l-1.2-3.56c2-.86,4.04-1.67,6.07-2.41l1.05,3.62c-.57,.21-1.13,.42-1.7,.64l2.35,1.75c-1.14,1.94-2.22,3.95-3.22,5.97Zm63.31-8.76c-1.74-1-3.63-1.9-5.62-2.67l1.1-3.6c2.15,.83,4.19,1.8,6.07,2.89l-1.55,3.39Zm-78.19,8.35l-1.48-3.43c1.92-1.05,3.89-2.06,5.84-3.02l1.34,3.5c-1.91,.93-3.83,1.92-5.71,2.94Zm66.64-12.86c-1.95-.47-4-.85-6.11-1.12l.39-3.78c2.21,.29,4.38,.68,6.43,1.18l-.71,3.73Zm-43.19,2.88l-.67-2.75c-.36,.5-.71,1-1.06,1.5l-2.68-2.34c1.3-1.89,2.7-3.76,4.16-5.57l2.52,2.55c-.68,.85-1.35,1.71-2,2.58,1.7-.5,3.4-.97,5.09-1.39l.73,3.72c-2.01,.5-4.06,1.07-6.09,1.69Zm30.89-4.51c-2.02-.07-4.12-.06-6.23,.03l-.14-3.81c2.19-.1,4.37-.11,6.47-.04l-.11,3.81Zm-18.66,1.49l-.55-3.76c2.15-.4,4.3-.72,6.4-.97l.35,3.79c-2.03,.24-4.11,.56-6.2,.94Zm-5.64-8.62l-2.36-2.74c1.52-1.65,3.13-3.29,4.78-4.87l2.2,2.9c-1.6,1.52-3.15,3.11-4.62,4.7Zm9.49-9.09l-2.04-3.04c1.68-1.43,3.45-2.84,5.24-4.2l1.89,3.16c-1.75,1.32-3.46,2.69-5.09,4.07Zm10.37-7.85l-1.75-3.26c1.8-1.22,3.68-2.43,5.59-3.59l1.62,3.35c-1.86,1.13-3.7,2.31-5.45,3.5Zm11.05-6.73l-1.49-3.42c1.89-1.04,3.85-2.06,5.83-3.04l1.37,3.49c-1.94,.96-3.86,1.96-5.71,2.97Zm11.52-5.71l-1.25-3.54c1.95-.87,3.98-1.73,6.01-2.55l1.14,3.59c-2,.8-3.98,1.65-5.9,2.5Zm11.87-4.79l-1.04-3.63c2.01-.73,4.08-1.44,6.13-2.11l.94,3.66c-2.02,.66-4.06,1.36-6.04,2.08Zm12.13-3.95l-.85-3.69c2.05-.6,4.15-1.17,6.23-1.71l.76,3.71c-2.06,.53-4.12,1.09-6.14,1.68Zm12.32-3.17l-.66-3.74c2.11-.47,4.23-.92,6.31-1.31l.57,3.76c-2.05,.39-4.14,.83-6.22,1.29Zm18.7-3.2s-2.33,.21-6.23,.82l-.47-3.77c4.03-.63,6.35-.84,6.42-.84l.27,3.8Z"></path><rect fill="#bdd1f9" height="389.23" width="134.89" y="630.79" x="409.36"></rect><rect fill="#bdd1f9" height="516.45" width="134.89" y="503.57" x="619.2"></rect><rect fill="#bdd1f9" height="653.76" width="147.7" y="366.26" x="810"></rect><rect fill="#bdd1f9" height="744.26" width="134.89" y="275.76" x="1010.32"></rect><polygon fill="#f77d48" points="957.7 584.13 1241.2 429.91 1114.76 732.75 1093.38 595.35 957.7 584.13"></polygon><g><path fill="#ffb93e" d="M892.48,480.89c-6.94-32.03,10.55-64.32,39.05-72.11,28.51-7.79,57.24,11.85,64.17,43.89,6.94,32.03-10.55,64.32-39.05,72.11-28.51,7.79-57.24-11.85-64.17-43.89Z"></path><path fill="#ffa412" d="M955.68,520.31c-12.56,3.43-25.56,1.17-36.6-6.38-11.04-7.55-18.81-19.49-21.87-33.6-3.06-14.12-1.04-28.72,5.68-41.13,6.72-12.41,17.34-21.13,29.9-24.57,12.56-3.43,25.56-1.17,36.6,6.39,11.04,7.55,18.81,19.48,21.87,33.6,3.06,14.11,1.04,28.72-5.68,41.13-6.72,12.41-17.34,21.14-29.9,24.57Zm-22.2-102.54c-24.38,6.67-39.39,34.38-33.46,61.78,5.93,27.4,30.6,44.27,54.98,37.6,24.38-6.67,39.39-34.38,33.46-61.78-5.93-27.4-30.6-44.27-54.98-37.6Z"></path><path fill="#ffa412" d="M954.03,481.03c-.13-1.17-.39-2.18-.78-3.04-.39-.85-.96-1.6-1.71-2.23-.75-.63-1.68-1.19-2.8-1.66-1.12-.47-2.48-.89-4.07-1.27-2.73-.68-5.23-1.43-7.49-2.27-2.26-.84-4.23-1.89-5.92-3.17-1.68-1.27-3.05-2.84-4.11-4.71-1.06-1.87-1.73-4.17-2.03-6.9-.26-2.37-.12-4.59,.42-6.64,.54-2.05,1.42-3.9,2.66-5.55,1.23-1.64,2.77-3.05,4.61-4.22,1.84-1.17,3.95-2.05,6.33-2.63l-.97-8.96,6.42-.87,.98,9.09c2.34,.02,4.5,.42,6.48,1.2,1.98,.78,3.72,1.9,5.21,3.37,1.49,1.47,2.71,3.28,3.66,5.43,.95,2.15,1.58,4.62,1.88,7.41l-11.59,1.58c-.36-3.35-1.29-5.77-2.8-7.25-1.5-1.48-3.36-2.07-5.58-1.77-1.2,.16-2.22,.49-3.05,.99-.83,.49-1.49,1.11-1.98,1.84-.49,.73-.82,1.56-.99,2.49-.17,.93-.2,1.91-.09,2.94,.11,1.03,.35,1.95,.7,2.75,.36,.8,.9,1.51,1.64,2.14,.73,.62,1.67,1.17,2.82,1.65,1.15,.48,2.56,.95,4.24,1.4,2.71,.73,5.19,1.53,7.44,2.39,2.25,.86,4.22,1.93,5.9,3.21,1.69,1.29,3.06,2.86,4.11,4.73,1.06,1.87,1.73,4.16,2.02,6.86,.27,2.46,.12,4.71-.43,6.77-.55,2.06-1.45,3.89-2.68,5.51-1.24,1.61-2.79,2.99-4.66,4.12-1.87,1.13-4,1.99-6.38,2.57l.9,8.33-6.38,.87-.89-8.29c-2.25,.05-4.45-.2-6.61-.76-2.16-.56-4.13-1.51-5.91-2.87-1.77-1.36-3.27-3.17-4.5-5.44-1.22-2.27-2.01-5.08-2.37-8.43l11.59-1.58c.21,1.98,.64,3.6,1.28,4.86,.64,1.26,1.41,2.23,2.33,2.91,.91,.68,1.92,1.11,3.01,1.29,1.09,.18,2.18,.19,3.28,.04,1.26-.17,2.34-.5,3.25-.99,.91-.49,1.65-1.1,2.22-1.83,.57-.73,.97-1.56,1.2-2.48,.23-.92,.28-1.9,.17-2.93Z"></path></g><g><path fill="#ffb93e" d="M1171.94,311.69c-1.12-32.08,21.11-59.11,49.66-60.37,28.55-1.26,52.6,23.72,53.73,55.81,1.12,32.08-21.11,59.11-49.66,60.37-28.55,1.26-52.6-23.73-53.73-55.81Z"></path><path fill="#ffa412" d="M1225.52,363.02c-12.58,.56-24.6-4.43-33.85-14.03-9.25-9.6-14.61-22.68-15.1-36.81-.49-14.14,3.94-27.64,12.49-38.03,8.55-10.39,20.18-16.42,32.76-16.97,12.58-.56,24.6,4.43,33.85,14.03,9.25,9.6,14.61,22.68,15.1,36.81,.49,14.14-3.94,27.64-12.49,38.03-8.55,10.39-20.18,16.42-32.76,16.97Zm-3.59-102.69c-24.42,1.08-43.51,24.28-42.55,51.72,.96,27.44,21.61,48.89,46.03,47.81,24.42-1.08,43.51-24.28,42.55-51.73-.96-27.44-21.61-48.89-46.03-47.81Z"></path><path fill="#ffa412" d="M1230.68,325.17c.08-1.15,0-2.17-.22-3.07-.23-.9-.64-1.73-1.25-2.5-.6-.77-1.4-1.5-2.39-2.19-.99-.69-2.21-1.39-3.66-2.1-2.49-1.24-4.75-2.5-6.76-3.79-2.02-1.29-3.72-2.73-5.11-4.31-1.39-1.58-2.43-3.37-3.11-5.39-.69-2.01-.94-4.36-.75-7.03,.16-2.32,.68-4.4,1.55-6.25,.87-1.84,2.03-3.42,3.49-4.72,1.46-1.3,3.17-2.31,5.13-3.03,1.96-.72,4.12-1.1,6.5-1.13l.62-8.76,6.28,.56-.62,8.89c2.23,.53,4.22,1.38,5.98,2.55,1.76,1.17,3.22,2.62,4.39,4.35,1.17,1.73,2.02,3.72,2.56,5.98,.54,2.26,.71,4.75,.52,7.48l-11.34-1.01c.23-3.27-.25-5.78-1.43-7.52-1.18-1.74-2.86-2.71-5.03-2.9-1.18-.1-2.2,0-3.08,.28s-1.61,.74-2.21,1.33c-.59,.59-1.05,1.32-1.38,2.17-.32,.85-.52,1.78-.59,2.79-.07,1.01,0,1.94,.2,2.78,.2,.84,.6,1.64,1.19,2.39,.59,.75,1.4,1.48,2.41,2.19,1.02,.71,2.29,1.46,3.81,2.25,2.46,1.29,4.69,2.59,6.69,3.89,2,1.3,3.7,2.75,5.08,4.34,1.39,1.59,2.43,3.4,3.11,5.41,.69,2.01,.94,4.34,.75,6.99-.17,2.4-.69,4.53-1.57,6.37-.88,1.85-2.05,3.4-3.51,4.67-1.46,1.27-3.18,2.25-5.16,2.92-1.98,.68-4.16,1.03-6.53,1.07l-.57,8.15-6.24-.55,.57-8.11c-2.15-.44-4.22-1.16-6.18-2.16-1.97-1-3.69-2.34-5.15-4.02-1.46-1.68-2.58-3.74-3.36-6.17-.78-2.43-1.05-5.29-.82-8.56l11.34,1.01c-.14,1.94,0,3.58,.39,4.92,.39,1.34,.97,2.44,1.72,3.29,.76,.85,1.64,1.48,2.65,1.88,1.01,.41,2.05,.66,3.13,.75,1.23,.11,2.32,.03,3.27-.24,.95-.27,1.77-.69,2.44-1.27,.67-.57,1.19-1.27,1.57-2.11,.37-.83,.6-1.75,.67-2.76Z"></path></g><g><path fill="#ffb93e" d="M1098.95,414.81c-.35-22.14,15.34-40.41,35.05-40.8,19.7-.39,35.96,17.24,36.31,39.38,.35,22.14-15.34,40.41-35.05,40.8-19.7,.39-35.96-17.24-36.31-39.38Z"></path><path fill="#ffa412" d="M1135.21,451.1c-8.68,.17-16.91-3.46-23.15-10.24-6.25-6.78-9.77-15.88-9.93-25.64-.15-9.76,3.08-19,9.11-26.02,6.03-7.02,14.13-10.98,22.82-11.16,8.68-.17,16.91,3.46,23.15,10.24,6.25,6.78,9.77,15.88,9.93,25.64,.15,9.76-3.08,19-9.12,26.02-6.03,7.02-14.14,10.98-22.82,11.16Zm-1.12-70.88c-16.85,.33-30.33,16.02-30.03,34.96,.3,18.94,14.25,34.08,31.11,33.74,16.86-.34,30.33-16.02,30.03-34.96-.3-18.94-14.25-34.08-31.11-33.74Z"></path><path fill="#ffa412" d="M1139.27,425.09c.07-.79,.03-1.5-.11-2.12-.14-.62-.42-1.21-.83-1.75-.41-.54-.95-1.06-1.62-1.55-.67-.49-1.51-1-2.5-1.51-1.7-.89-3.24-1.81-4.61-2.73-1.37-.92-2.53-1.94-3.46-3.06-.94-1.11-1.63-2.37-2.08-3.77-.45-1.4-.59-3.02-.42-4.86,.14-1.6,.53-3.03,1.15-4.28,.62-1.26,1.45-2.32,2.47-3.2,1.02-.87,2.22-1.54,3.58-2,1.36-.46,2.86-.69,4.49-.67l.54-6.03,4.32,.49-.55,6.12c1.53,.4,2.89,1.02,4.09,1.86,1.2,.84,2.19,1.86,2.97,3.07,.78,1.21,1.34,2.6,1.69,4.16,.34,1.57,.43,3.29,.26,5.17l-7.81-.88c.2-2.26-.09-3.99-.88-5.21-.79-1.22-1.93-1.91-3.43-2.08-.81-.09-1.52-.04-2.13,.14-.61,.19-1.12,.48-1.54,.88-.42,.4-.74,.89-.98,1.47-.23,.58-.38,1.22-.44,1.91-.06,.7-.03,1.34,.1,1.92,.13,.59,.39,1.14,.79,1.67,.4,.53,.94,1.05,1.63,1.55,.69,.51,1.56,1.04,2.6,1.62,1.68,.93,3.2,1.86,4.57,2.79,1.36,.93,2.51,1.96,3.45,3.08,.94,1.12,1.63,2.38,2.08,3.78,.45,1.4,.59,3.01,.43,4.83-.15,1.65-.54,3.11-1.17,4.37-.63,1.26-1.46,2.31-2.48,3.17-1.02,.85-2.22,1.5-3.6,1.93-1.38,.43-2.88,.64-4.52,.63l-.5,5.61-4.29-.49,.5-5.58c-1.48-.34-2.89-.87-4.24-1.59-1.35-.72-2.51-1.67-3.5-2.86-.98-1.18-1.73-2.62-2.23-4.31-.5-1.69-.65-3.66-.45-5.92l7.81,.88c-.12,1.34-.05,2.47,.2,3.4,.25,.93,.63,1.7,1.15,2.29,.51,.6,1.11,1.05,1.8,1.34,.69,.3,1.41,.49,2.15,.57,.85,.1,1.6,.06,2.26-.11,.66-.17,1.23-.45,1.7-.83,.47-.38,.84-.86,1.11-1.43,.27-.57,.43-1.2,.5-1.9Z"></path></g><g><path fill="#ffb93e" d="M948.68,291.04c-15.12-51.3,9.64-106.66,55.29-123.64,45.65-16.99,94.92,10.83,110.03,62.13,15.12,51.3-9.64,106.66-55.29,123.64-45.65,16.99-94.91-10.83-110.03-62.13Z"></path><path fill="#ffa412" d="M1056.6,346.01c-20.12,7.49-41.62,5.72-60.56-4.97-18.94-10.69-33.03-29.03-39.69-51.64-6.66-22.61-5.09-46.77,4.43-68.05,9.51-21.28,25.83-37.12,45.95-44.6,20.12-7.48,41.62-5.72,60.56,4.97,18.93,10.69,33.03,29.03,39.69,51.63,6.66,22.61,5.09,46.77-4.43,68.05-9.52,21.28-25.83,37.12-45.95,44.6Zm-48.39-164.21c-39.05,14.53-60.3,62.05-47.37,105.93,12.93,43.88,55.22,67.76,94.27,53.23,39.05-14.53,60.3-62.05,47.37-105.93-12.93-43.88-55.22-67.76-94.27-53.23Z"></path><path fill="#ffa412" d="M1049.27,282.09c-.34-1.9-.89-3.51-1.63-4.85-.74-1.34-1.76-2.47-3.05-3.39-1.3-.93-2.89-1.69-4.78-2.29-1.89-.6-4.15-1.09-6.79-1.47-4.55-.7-8.71-1.56-12.51-2.6-3.8-1.03-7.14-2.46-10.04-4.29-2.9-1.83-5.32-4.19-7.27-7.08-1.95-2.89-3.32-6.55-4.13-10.98-.7-3.84-.73-7.48-.09-10.92,.64-3.44,1.87-6.59,3.69-9.46,1.82-2.86,4.17-5.39,7.04-7.58,2.87-2.19,6.21-3.93,10.03-5.23l-2.64-14.5,10.38-2.39,2.67,14.7c3.82-.31,7.4,.02,10.73,.99,3.33,.98,6.3,2.55,8.91,4.73,2.6,2.18,4.81,4.95,6.62,8.33,1.81,3.37,3.12,7.32,3.94,11.83l-18.76,4.31c-.99-5.42-2.79-9.23-5.43-11.42-2.63-2.19-5.74-2.88-9.33-2.06-1.95,.45-3.57,1.14-4.86,2.07-1.3,.93-2.3,2.03-3.02,3.3-.71,1.27-1.16,2.68-1.33,4.22-.17,1.54-.1,3.15,.2,4.82,.3,1.67,.8,3.13,1.48,4.39,.68,1.26,1.65,2.34,2.92,3.25,1.27,.91,2.87,1.67,4.81,2.28,1.94,.61,4.3,1.16,7.1,1.65,4.52,.8,8.66,1.73,12.44,2.79,3.78,1.06,7.12,2.52,10.02,4.37,2.91,1.85,5.33,4.22,7.28,7.11,1.95,2.9,3.32,6.53,4.11,10.91,.72,3.97,.76,7.68,.1,11.13-.66,3.45-1.9,6.58-3.73,9.4-1.83,2.82-4.21,5.3-7.13,7.43-2.92,2.13-6.3,3.84-10.12,5.15l2.45,13.48-10.32,2.37-2.44-13.41c-3.67,.42-7.3,.34-10.9-.25-3.6-.59-6.93-1.85-9.99-3.81-3.06-1.96-5.72-4.7-7.99-8.22-2.26-3.53-3.89-8-4.88-13.42l18.76-4.31c.58,3.21,1.47,5.79,2.66,7.75,1.19,1.96,2.57,3.43,4.15,4.41,1.57,.98,3.26,1.53,5.07,1.66,1.8,.13,3.59-.01,5.37-.42,2.03-.47,3.76-1.17,5.19-2.11,1.43-.94,2.57-2.05,3.42-3.33,.85-1.28,1.4-2.69,1.66-4.23,.26-1.54,.24-3.15-.06-4.82Z"></path></g><g><path fill="#739af0" d="M687.68,233.38c-7.83,2.2-15.3,4.29-22.29,5.64-22.63,4.35-40.11,.76-47.65-33.14-7.54-33.9,6.39-46.31,28.19-54.43,6.73-2.51,14.2-4.6,22.03-6.8,16.73-4.7,35.24-2.62,49.99,2.82,14.5,5.36,25.36,13.97,27.28,22.63,2.19,9.86-3.78,23.21-14.41,35.3-10.8,12.3-26.41,23.29-43.14,27.99Z"></path><polygon fill="#163560" points="645.93 151.45 620.22 132.59 579.64 142.3 621.79 175.58 645.93 151.45"></polygon><polygon fill="#163560" points="665.33 238.74 650.54 268.97 610.66 281.84 633.93 230.2 665.33 238.74"></polygon><path fill="#163560" d="M665.39,239.02c-22.63,4.35-40.11,.76-47.65-33.14-7.54-33.9,6.39-46.31,28.19-54.43l19.46,87.57Z"></path><path fill="#f77d48" d="M564.9,220.71s11.3-29.58,31.07-25.02c20.17,4.65,17.63,29.07,2.49,31.31-15.14,2.24-24.73-8.77-33.56-6.29Z"></path><path fill="#163560" d="M685.2,162.96c10.45-2.93,21.04,4.21,23.65,15.95,2.61,11.74-3.75,23.64-14.2,26.58-10.45,2.93-21.04-4.21-23.65-15.95-2.61-11.74,3.75-23.64,14.2-26.58Z"></path><path fill="#bdd1f9" d="M689.93,207.61c-9.32,0-17.83-7.1-20.19-17.72-2.78-12.51,4.01-25.22,15.14-28.35,11.13-3.12,22.45,4.51,25.23,17.02,1.35,6.06,.51,12.34-2.35,17.7-2.86,5.35-7.41,9.14-12.8,10.65-1.69,.47-3.38,.7-5.04,.7Zm0-43.84c-1.46,0-2.93,.2-4.41,.61-4.72,1.32-8.69,4.63-11.2,9.32-2.5,4.68-3.23,10.18-2.05,15.49,2.43,10.94,12.34,17.62,22.07,14.89,4.72-1.32,8.69-4.63,11.2-9.32,2.5-4.69,3.23-10.18,2.05-15.49-2.06-9.29-9.51-15.5-17.66-15.5Z"></path><path fill="#f77d48" d="M730.82,205.39l-12.87-57.93c14.5,5.36,25.36,13.97,27.28,22.63,2.19,9.86-3.78,23.21-14.41,35.3Z"></path></g><g><path fill="#ed7d2b" d="M1314.1,523.47s39.41,45.92,41.27,63.2c1.86,17.28-18.88,44.26-18.88,44.26l-22.4-107.46Z"></path><path fill="#2e5a99" d="M1296.29,999.36s-1.39,24.36-5.59,24.7c-.56,.04-21.27,0-21.27,0l-26.44-.24s.19-7.16,7.92-8.65c7.73-1.49,20.68-7.57,25.39-19.04,4.95-12.06,19.99,3.24,19.99,3.24Z"></path><path fill="#18417c" d="M1355.19,999.5s-1.39,24.36-5.59,24.7c-.56,.04-21.27,0-21.27,0l-26.44-.24s.19-7.16,7.92-8.65c7.73-1.49,20.68-7.57,25.39-19.04,4.95-12.06,19.99,3.24,19.99,3.24Z"></path><path fill="#163560" d="M1267.51,737.48s6.82,49.72,32.45,138.01c25.63,88.29,29.07,126.51,29.07,126.51l27.68-.81s.42-96.43-11.38-140.82c-11.8-44.4-2.26-159.96-2.26-159.96l-75.56,37.06Z"></path><path fill="#1c468a" d="M1254.11,702.92s-1.12,74.9,10.23,166.89c11.35,91.99,7.37,131.02,7.37,131.02l27.62,1.1s16.68-91.96,12.04-138c-4.64-46.04,22.91-157.89,22.91-157.89l-80.17-3.12Z"></path><path fill="#ffb27d" d="M1307.92,527.78l-14.74,10.81-21.26-4.51c.3-1.93,1.72-9.92,3.01-17.16,.08-.43,.16-.85,.23-1.27,1.11-6.16,2.06-11.45,2.06-11.45l19.88-9.8,7.41-3.65c-.02,.13-.59,6.84-.67,7.82-1.42,17.39,4.06,29.22,4.06,29.22Z"></path><path fill="#ed7d2b" d="M1277.39,522.24c.41-.19,25.63-8.49,28.36-7.47,2.74,1.02,4.34,6.98,4.34,6.98l-41.24,10.37s3.26-7.4,8.53-9.88Z"></path><path fill="#f99746" d="M1344.88,712.39c-4.31,21.89-75.4,24.31-93.69,4.39-2.08-2.27-2.16-12.81-1.35-27.02,1.59-27.76,6.61-69.52,6.84-90.86,.11-10.3,1.39-20.84,3.09-30.41,3.61-20.39,9.09-36.38,9.09-36.38,0,0,34.74-12.53,41.24-10.37,31.28,10.41,39.09,168.76,34.78,190.65Z"></path><path fill="#ed7d2b" d="M1249.84,689.76c1.59-27.76,6.61-69.52,6.84-90.86,.11-10.3,1.39-20.84,3.09-30.41l20.89-4.09s20.24,93.78-30.83,125.35Z"></path><path fill="#ffb27d" d="M1261.23,651.09s1.42,3.83-1.58,6.39c-3,2.56-4.94,6.72-4.26,9.76,.68,3.04,7.23,8.02,9.5,7.22,2.28-.79,6.91-4.79,6.41-6.39-.49-1.61,3.14-14.06-2.39-18.88-5.53-4.81-7.68,1.9-7.68,1.9Z"></path><path fill="#f99746" d="M1284.82,526.54s-20.38,4.23-36.66,31.07c-16.28,26.84-27,46.79-24.03,56.49,2.97,9.69,30.16,43.36,34.86,43.37,4.7,.01,12.29-3.81,12.73-12.45,0,0-19.13-32.36-15.34-37.19,1.62-2.06,24.96-23.26,28.26-13.65,5.47,15.9,.17-67.64,.17-67.64Z"></path><path fill="#fca56b" d="M1302.36,498.86c-4.38,8.29-20.65,15.43-27.43,18.06,.08-.43,.16-.85,.23-1.27,1.11-6.16,2.06-11.45,2.06-11.45l19.88-9.8c4.39-.06,7.06,1.05,5.25,4.47Z"></path><path fill="#ffb27d" d="M1269.74,502.82s31.98,11.29,37.93-11.19c5.95-22.48,14.09-36.17-6.08-44.33-20.16-8.16-26.42-.91-30.03,6.05-3.61,6.96-9.99,45.96-1.82,49.48Z"></path><path fill="#163560" d="M1272.82,451.18s1.99,26.19,6.81,25.06c4.82-1.13,9.19-1.96,8.47,5.93-.72,7.89-7.42,16.99,7.43,18.42,14.85,1.43,36.28-41.55,32.21-49.71-11.73-23.54-71.88-28.43-54.92,.29Z"></path></g><g><g><g><g><path fill="#ffb93e" d="M1117.77,1008.94v9.42c0,.75-.24,1.45-.66,2.03-.44,.61-1.07,1.09-1.8,1.36-.23,.09-.46,.15-.71,.19-.22,.04-.45,.06-.68,.06h-158.98c-1.92,0-3.53-1.35-3.81-3.09-.01-.12-.03-.23-.03-.36,0-.06,0-.12,0-.18v-9.42c0-.06,0-.12,0-.18,0-.12,.02-.24,.03-.36,.28-1.74,1.89-3.09,3.81-3.09h158.98c.23,0,.46,.02,.68,.06,.24,.04,.48,.11,.71,.19,.73,.27,1.37,.75,1.8,1.36,.42,.58,.66,1.28,.66,2.03Z"></path><path fill="#ffa412" d="M1039.7,1021.99h-85.18c-1.58,0-2.91-1.15-3.3-2.69-.04-.13-.07-.26-.09-.4-.01-.12-.03-.23-.03-.36,0-.06,0-.12,0-.18v-9.42c0-.06,0-.12,0-.18,0-.12,.02-.24,.03-.36,.02-.14,.06-.27,.09-.4,.4-1.54,1.73-2.69,3.3-2.69h74.72c1.19,4.91,3.97,11.7,10.46,16.68Z"></path><g><rect fill="#ffa412" height="16.68" width="1.81" y="1005.31" x="1096.62"></rect><rect fill="#ffa412" height="16.68" width="1.81" y="1005.31" x="1090.5"></rect><rect fill="#ffa412" height="16.68" width="1.81" y="1005.31" x="1083.17"></rect><rect fill="#ffa412" height="16.68" width="1.81" y="1005.31" x="1071.92"></rect><rect fill="#ffa412" height="16.68" width="1.81" y="1005.31" x="1060.03"></rect><rect fill="#ffa412" height="16.68" width="1.81" y="1005.31" x="1041.81"></rect><rect fill="#ffa412" height="16.68" width="1.81" y="1005.31" x="1024.74"></rect><rect fill="#ffa412" height="16.68" width="1.81" y="1005.31" x="1009.51"></rect><rect fill="#ffa412" height="16.68" width="1.81" y="1005.31" x="1102.44"></rect><rect fill="#ffa412" height="16.68" width="1.81" y="1005.31" x="1106.29"></rect><rect fill="#ffa412" height="16.68" width="1.81" y="1005.31" x="1110"></rect><path fill="#ffa412" d="M1114.6,1005.37v16.56c-.22,.04-.45,.06-.68,.06h-1.13v-16.68h1.13c.23,0,.46,.02,.68,.06Z"></path><path fill="#ffa412" d="M1117.11,1006.91v13.47c-.44,.61-1.07,1.09-1.81,1.36v-16.19c.74,.27,1.37,.75,1.81,1.36Z"></path></g></g><g><path fill="#ffb93e" d="M1100.77,992.26v9.41c0,.75-.24,1.45-.66,2.03-.11,.15-.23,.3-.36,.43-.4,.4-.89,.73-1.45,.93-.22,.08-.46,.15-.7,.18-.22,.04-.45,.06-.68,.06h-158.99c-1.92,0-3.52-1.35-3.8-3.09-.01-.12-.03-.23-.03-.35,0-.06,0-.12,0-.19v-9.41c0-.06,0-.13,0-.19,0-.12,.02-.23,.03-.35,.28-1.74,1.89-3.09,3.8-3.09h158.99c.1,0,.2,0,.3,.02,.04,0,.07,0,.11,.01,0,0,.01,0,.02,0,.05,0,.09,0,.14,.02,.03,0,.06,.01,.1,.02,.24,.04,.48,.1,.7,.18,.13,.05,.26,.11,.39,.17h0c.08,.05,.17,.09,.25,.13,.04,.03,.09,.06,.14,.09,.04,.03,.09,.06,.13,.09,.17,.11,.32,.24,.47,.39,.05,.04,.09,.09,.13,.14,.03,.03,.05,.06,.08,.08,.01,.02,.03,.03,.04,.05l.03,.04c.05,.06,.1,.12,.14,.18,.41,.58,.66,1.27,.66,2.03Z"></path><path fill="#ffa412" d="M1022.7,1005.31h-85.18c-1.58,0-2.9-1.15-3.3-2.69-.04-.13-.07-.26-.09-.4-.01-.12-.03-.23-.03-.35,0-.06,0-.12,0-.19v-9.41c0-.06,0-.13,0-.19,0-.12,.02-.23,.03-.35,.02-.13,.06-.27,.09-.4,.39-1.54,1.72-2.69,3.3-2.69h74.72c.03,.14,.06,.27,.1,.41,1.25,4.87,4.05,11.43,10.35,16.27Z"></path><g><rect fill="#ffa412" height="16.68" width="1.81" y="988.63" x="1079.62"></rect><rect fill="#ffa412" height="16.68" width="1.81" y="988.63" x="1073.5"></rect><rect fill="#ffa412" height="16.68" width="1.81" y="988.63" x="1066.17"></rect><rect fill="#ffa412" height="16.68" width="1.81" y="988.63" x="1054.93"></rect><rect fill="#ffa412" height="16.68" width="1.81" y="988.63" x="1043.04"></rect><rect fill="#ffa412" height="16.68" width="1.81" y="988.63" x="1024.81"></rect><rect fill="#ffa412" height="16.68" width="1.81" y="988.63" x="1007.75"></rect><rect fill="#ffa412" height="16.68" width="1.81" y="988.63" x="992.51"></rect><rect fill="#ffa412" height="16.68" width="1.81" y="988.63" x="1085.44"></rect><rect fill="#ffa412" height="16.68" width="1.81" y="988.63" x="1089.29"></rect><rect fill="#ffa412" height="16.68" width="1.81" y="988.63" x="1093"></rect><path fill="#ffa412" d="M1097.6,988.69v16.56c-.22,.04-.45,.06-.68,.06h-1.13v-16.68h1.13c.23,0,.46,.02,.68,.06Z"></path><path fill="#ffa412" d="M1100.11,990.24v13.47c-.44,.61-1.07,1.09-1.81,1.36v-16.19c.74,.27,1.37,.75,1.81,1.36Z"></path></g></g><g><path fill="#ffb93e" d="M1108.99,976v9.42c0,.75-.24,1.44-.66,2.03-.44,.61-1.06,1.09-1.8,1.36-.22,.08-.46,.15-.71,.19-.22,.03-.45,.06-.67,.06h-158.99c-.64,0-1.24-.15-1.77-.41-1.05-.52-1.83-1.49-2.03-2.63-.01-.08-.02-.16-.03-.23,0-.05,0-.11,0-.16,0-.06,0-.12,0-.18v-9.42c0-.06,0-.12,0-.18,0-.12,.01-.24,.03-.35,.28-1.75,1.89-3.09,3.8-3.09h158.99c.23,0,.46,.02,.67,.06,.24,.04,.48,.1,.71,.18,.74,.27,1.37,.75,1.8,1.36,.42,.58,.66,1.28,.66,2.03Z"></path><path fill="#ffa412" d="M1030.92,989.04h-85.18c-.57,0-1.11-.15-1.58-.41-.94-.52-1.63-1.49-1.81-2.63-.01-.08-.02-.16-.03-.23,0-.05,0-.11,0-.16,0-.06,0-.12,0-.18v-9.42c0-.06,0-.12,0-.18,0-.12,.01-.24,.03-.35,.02-.13,.05-.26,.09-.39,.39-1.55,1.72-2.7,3.3-2.7h74.72c1.16,4.77,3.82,11.33,9.94,16.26,.17,.14,.34,.28,.52,.41Z"></path><g><rect fill="#ffa412" height="16.68" width="1.81" y="972.37" x="1087.83"></rect><rect fill="#ffa412" height="16.68" width="1.81" y="972.37" x="1081.72"></rect><rect fill="#ffa412" height="16.68" width="1.81" y="972.37" x="1074.38"></rect><rect fill="#ffa412" height="16.68" width="1.81" y="972.37" x="1063.14"></rect><rect fill="#ffa412" height="16.68" width="1.81" y="972.37" x="1051.25"></rect><rect fill="#ffa412" height="16.68" width="1.81" y="972.37" x="1033.02"></rect><rect fill="#ffa412" height="16.68" width="1.81" y="972.37" x="1015.96"></rect><rect fill="#ffa412" height="16.68" width="1.81" y="972.37" x="1000.72"></rect><rect fill="#ffa412" height="16.68" width="1.81" y="972.37" x="1093.66"></rect><rect fill="#ffa412" height="16.68" width="1.81" y="972.37" x="1097.5"></rect><rect fill="#ffa412" height="16.68" width="1.81" y="972.37" x="1101.22"></rect><path fill="#ffa412" d="M1105.82,972.42v16.56c-.22,.04-.45,.06-.68,.06h-1.13v-16.68h1.13c.23,0,.46,.02,.68,.06Z"></path><path fill="#ffa412" d="M1108.33,973.97v13.47c-.44,.61-1.07,1.09-1.81,1.36v-16.19c.74,.27,1.37,.75,1.81,1.36Z"></path></g></g><g><path fill="#ffb93e" d="M1112.79,959.32v9.41c0,.75-.24,1.45-.66,2.03-.05,.08-.11,.15-.17,.22-.3,.36-.68,.67-1.1,.9-.17,.09-.35,.17-.53,.24-.23,.08-.46,.15-.71,.18-.11,.02-.22,.03-.33,.04-.11,.01-.23,.02-.35,.02h-158.98c-1.92,0-3.53-1.35-3.81-3.09-.01-.12-.03-.23-.03-.35v-9.79c.1-1.77,1.55-3.21,3.39-3.42,.15-.02,.3-.03,.46-.03h158.98c.11,0,.23,0,.35,.02,.11,.01,.22,.02,.33,.04,.24,.04,.48,.1,.71,.18,.74,.27,1.37,.75,1.8,1.36,.42,.58,.66,1.28,.66,2.03Z"></path><path fill="#ffa412" d="M1034.73,972.37h-85.18c-1.58,0-2.91-1.15-3.3-2.69-.04-.13-.07-.26-.09-.4-.01-.12-.03-.23-.03-.35v-9.79c.09-1.76,1.39-3.21,3.02-3.42,.13-.02,.27-.03,.41-.03h74.72s0,.02,0,.03c1.2,4.91,3.98,11.68,10.45,16.65Z"></path><g><rect fill="#ffa412" height="16.68" width="1.81" y="955.69" x="1091.64"></rect><rect fill="#ffa412" height="16.68" width="1.81" y="955.69" x="1085.53"></rect><rect fill="#ffa412" height="16.68" width="1.81" y="955.69" x="1078.19"></rect><rect fill="#ffa412" height="16.68" width="1.81" y="955.69" x="1066.95"></rect><rect fill="#ffa412" height="16.68" width="1.81" y="955.69" x="1055.06"></rect><rect fill="#ffa412" height="16.68" width="1.81" y="955.69" x="1036.83"></rect><rect fill="#ffa412" height="16.68" width="1.81" y="955.69" x="1019.77"></rect><rect fill="#ffa412" height="16.68" width="1.81" y="955.69" x="1004.53"></rect><rect fill="#ffa412" height="16.68" width="1.81" y="955.69" x="1097.46"></rect><rect fill="#ffa412" height="16.68" width="1.81" y="955.69" x="1101.31"></rect><rect fill="#ffa412" height="16.68" width="1.81" y="955.69" x="1105.02"></rect><path fill="#ffa412" d="M1109.63,955.75v16.56c-.22,.04-.45,.06-.68,.06h-1.13v-16.68h1.13c.23,0,.46,.02,.68,.06Z"></path><path fill="#ffa412" d="M1112.14,957.29v13.47c-.44,.61-1.07,1.09-1.81,1.36v-16.19c.74,.27,1.37,.75,1.81,1.36Z"></path></g></g><g><path fill="#ffb93e" d="M1101.1,942.67v9.41c0,.75-.24,1.45-.66,2.03-.44,.61-1.07,1.09-1.81,1.36-.22,.08-.46,.15-.7,.18-.07,.02-.15,.03-.22,.03h-.03s-.08,.01-.12,.01c-.03,0-.06,0-.1,.01-.07,0-.13,0-.2,0h-158.98c-2.05,0-3.74-1.53-3.84-3.44,0-.06,0-.12,0-.19v-9.41c0-.06,0-.13,0-.19,0-.05,0-.1,0-.15,.15-1.54,1.34-2.81,2.89-3.18,.03-.01,.07-.02,.11-.03,.27-.06,.55-.09,.83-.09h158.98c.12,0,.23,0,.34,.02,.05,0,.1,.01,.14,.02h.01c.06,0,.12,.02,.18,.03,.24,.04,.48,.1,.7,.18,.74,.27,1.37,.75,1.81,1.36,.42,.58,.66,1.27,.66,2.03Z"></path><path fill="#ffa412" d="M1023.03,955.71h-85.17c-1.83,0-3.34-1.53-3.43-3.44,0-.06,0-.12,0-.19v-9.41c0-.06,0-.13,0-.19,0-.05,0-.1,0-.15,.14-1.57,1.24-2.86,2.67-3.2,.04-.02,.09-.03,.14-.03,.2-.04,.4-.06,.61-.06h74.71s.02,.08,.03,.12c1.21,4.89,3.99,11.6,10.4,16.53,0,.01,.02,.02,.03,.03Z"></path><g><rect fill="#ffa412" height="16.68" width="1.81" y="939.04" x="1079.95"></rect><rect fill="#ffa412" height="16.68" width="1.81" y="939.04" x="1073.84"></rect><rect fill="#ffa412" height="16.68" width="1.81" y="939.04" x="1066.5"></rect><rect fill="#ffa412" height="16.68" width="1.81" y="939.04" x="1055.26"></rect><rect fill="#ffa412" height="16.68" width="1.81" y="939.04" x="1043.37"></rect><rect fill="#ffa412" height="16.68" width="1.81" y="939.04" x="1025.14"></rect><rect fill="#ffa412" height="16.68" width="1.81" y="939.04" x="1008.08"></rect><rect fill="#ffa412" height="16.68" width="1.81" y="939.04" x="992.84"></rect><rect fill="#ffa412" height="16.68" width="1.81" y="939.04" x="1085.78"></rect><rect fill="#ffa412" height="16.68" width="1.81" y="939.04" x="1089.62"></rect><rect fill="#ffa412" height="16.68" width="1.81" y="939.04" x="1093.34"></rect><path fill="#ffa412" d="M1097.94,939.09v16.56c-.22,.04-.45,.06-.68,.06h-1.13v-16.68h1.13c.23,0,.46,.02,.68,.06Z"></path><path fill="#ffa412" d="M1100.45,940.64v13.47c-.44,.61-1.07,1.09-1.81,1.36v-16.19c.74,.27,1.37,.75,1.81,1.36Z"></path></g></g><g><path fill="#ffb93e" d="M1100.77,926.11v9.42c0,.75-.24,1.45-.66,2.03-.11,.15-.23,.3-.36,.43-.4,.4-.89,.73-1.45,.93-.18,.07-.36,.12-.55,.16h-.01s-.09,.02-.14,.03c-.22,.04-.45,.06-.68,.06h-158.99c-.16,0-.33-.01-.5-.03-.07,0-.13-.02-.19-.03-1.62-.28-2.9-1.52-3.12-3.07-.01-.11-.02-.21-.03-.31,0-.07,0-.13,0-.19v-9.42c0-.07,0-.13,0-.19,0-.12,.02-.23,.03-.35,.28-1.74,1.89-3.09,3.8-3.09h158.99c.1,0,.2,0,.3,.01,.01,0,.03,0,.04,0,.03,0,.06,0,.09,0,.05,0,.09,.01,.14,.02,.03,0,.06,0,.1,.02,.24,.04,.48,.1,.7,.18,.13,.05,.26,.11,.39,.17h0c.5,.25,.93,.59,1.27,1,.05,.06,.1,.12,.14,.18,.41,.58,.66,1.28,.66,2.03Z"></path><path fill="#ffa412" d="M1022.7,939.16h-85.18c-.06,0-.13,0-.2,0-.07,0-.15-.02-.22-.02-1.54-.21-2.77-1.49-2.98-3.1-.01-.11-.02-.21-.03-.31,0-.07,0-.13,0-.19v-9.42c0-.07,0-.13,0-.19,0-.12,.02-.23,.03-.35,.02-.14,.06-.27,.09-.4,.39-1.54,1.72-2.69,3.3-2.69h74.72c.03,.14,.06,.27,.1,.41,1.24,4.83,4,11.32,10.2,16.15,.05,.04,.1,.08,.15,.12Z"></path><g><rect fill="#ffa412" height="16.68" width="1.81" y="922.48" x="1079.62"></rect><rect fill="#ffa412" height="16.68" width="1.81" y="922.48" x="1073.5"></rect><rect fill="#ffa412" height="16.68" width="1.81" y="922.48" x="1066.17"></rect><rect fill="#ffa412" height="16.68" width="1.81" y="922.48" x="1054.93"></rect><rect fill="#ffa412" height="16.68" width="1.81" y="922.48" x="1043.04"></rect><rect fill="#ffa412" height="16.68" width="1.81" y="922.48" x="1024.81"></rect><rect fill="#ffa412" height="16.68" width="1.81" y="922.48" x="1007.75"></rect><rect fill="#ffa412" height="16.68" width="1.81" y="922.48" x="992.51"></rect><rect fill="#ffa412" height="16.68" width="1.81" y="922.48" x="1085.44"></rect><rect fill="#ffa412" height="16.68" width="1.81" y="922.48" x="1089.29"></rect><rect fill="#ffa412" height="16.68" width="1.81" y="922.48" x="1093"></rect><path fill="#ffa412" d="M1097.6,922.53v16.56c-.22,.04-.45,.06-.68,.06h-1.13v-16.68h1.13c.23,0,.46,.02,.68,.06Z"></path><path fill="#ffa412" d="M1100.11,924.08v13.47c-.44,.61-1.07,1.09-1.81,1.36v-16.19c.74,.27,1.37,.75,1.81,1.36Z"></path></g></g><g><path fill="#ffb93e" d="M1108.99,909.84v9.41c0,.75-.24,1.45-.66,2.03-.44,.61-1.06,1.09-1.8,1.36-.22,.08-.46,.14-.71,.18-.22,.04-.45,.06-.67,.06h-158.99c-.64,0-1.24-.15-1.77-.41-1.05-.52-1.83-1.49-2.03-2.63-.01-.08-.02-.16-.03-.23,0-.06,0-.11,0-.16,0-.06,0-.12,0-.19v-9.41c0-.06,0-.13,0-.19,0-.12,.01-.23,.03-.35,.28-1.74,1.89-3.09,3.8-3.09h158.99c.23,0,.46,.02,.67,.06,.24,.04,.48,.1,.71,.18,.74,.27,1.37,.75,1.8,1.36,.42,.58,.66,1.27,.66,2.03Z"></path><path fill="#ffa412" d="M1030.92,922.89h-85.18c-.57,0-1.11-.15-1.58-.41-.94-.52-1.63-1.49-1.81-2.63-.01-.08-.02-.16-.03-.23,0-.06,0-.11,0-.16,0-.06,0-.12,0-.19v-9.41c0-.06,0-.13,0-.19,0-.12,.01-.23,.03-.35,.02-.13,.05-.26,.09-.39,.39-1.55,1.72-2.7,3.3-2.7h74.72c1.16,4.78,3.82,11.34,9.94,16.27,.17,.14,.34,.27,.52,.41Z"></path><g><rect fill="#ffa412" height="16.68" width="1.81" y="906.21" x="1087.83"></rect><rect fill="#ffa412" height="16.68" width="1.81" y="906.21" x="1081.72"></rect><rect fill="#ffa412" height="16.68" width="1.81" y="906.21" x="1074.38"></rect><rect fill="#ffa412" height="16.68" width="1.81" y="906.21" x="1063.14"></rect><rect fill="#ffa412" height="16.68" width="1.81" y="906.21" x="1051.25"></rect><rect fill="#ffa412" height="16.68" width="1.81" y="906.21" x="1033.02"></rect><rect fill="#ffa412" height="16.68" width="1.81" y="906.21" x="1015.96"></rect><rect fill="#ffa412" height="16.68" width="1.81" y="906.21" x="1000.72"></rect><rect fill="#ffa412" height="16.68" width="1.81" y="906.21" x="1093.66"></rect><rect fill="#ffa412" height="16.68" width="1.81" y="906.21" x="1097.5"></rect><rect fill="#ffa412" height="16.68" width="1.81" y="906.21" x="1101.22"></rect><path fill="#ffa412" d="M1105.82,906.27v16.56c-.22,.04-.45,.06-.68,.06h-1.13v-16.68h1.13c.23,0,.46,.02,.68,.06Z"></path><path fill="#ffa412" d="M1108.33,907.81v13.47c-.44,.61-1.07,1.09-1.81,1.36v-16.19c.74,.27,1.37,.75,1.81,1.36Z"></path></g></g><g><path fill="#ffb93e" d="M1121.98,893.16v9.42c0,.75-.24,1.44-.66,2.02h0c-.05,.08-.11,.16-.17,.23-.24,.29-.53,.54-.85,.75-.16,.1-.33,.19-.51,.27,0,0,0,0,0,0-.08,.04-.17,.08-.27,.11-.22,.08-.46,.14-.71,.18-.22,.04-.45,.06-.68,.06h-158.99c-1.92,0-3.52-1.34-3.8-3.09-.02-.12-.03-.23-.03-.36,0-.06,0-.12,0-.18v-9.42c0-.06,0-.12,0-.18,.09-1.76,1.54-3.21,3.39-3.42,.15-.02,.3-.03,.45-.03h158.99c.23,0,.46,.02,.68,.06,.24,.04,.48,.11,.71,.19,.65,.23,1.2,.63,1.63,1.13,.06,.07,.12,.14,.17,.22h0c.41,.59,.66,1.28,.66,2.03Z"></path><path fill="#ffa412" d="M1043.91,906.21h-85.18c-1.58,0-2.91-1.15-3.3-2.7-.04-.13-.07-.26-.09-.39-.02-.12-.03-.23-.03-.36,0-.06,0-.12,0-.18v-9.42c0-.06,0-.12,0-.18,.09-1.76,1.38-3.21,3.02-3.42,.13-.02,.27-.03,.41-.03h74.72s0,.02,0,.03c1.2,4.91,3.98,11.68,10.45,16.65Z"></path><g><rect fill="#ffa412" height="16.68" width="1.81" y="889.53" x="1100.83"></rect><rect fill="#ffa412" height="16.68" width="1.81" y="889.53" x="1094.71"></rect><rect fill="#ffa412" height="16.68" width="1.81" y="889.53" x="1087.38"></rect><rect fill="#ffa412" height="16.68" width="1.81" y="889.53" x="1076.13"></rect><rect fill="#ffa412" height="16.68" width="1.81" y="889.53" x="1064.24"></rect><rect fill="#ffa412" height="16.68" width="1.81" y="889.53" x="1046.02"></rect><rect fill="#ffa412" height="16.68" width="1.81" y="889.53" x="1028.95"></rect><rect fill="#ffa412" height="16.68" width="1.81" y="889.53" x="1013.71"></rect><rect fill="#ffa412" height="16.68" width="1.81" y="889.53" x="1106.65"></rect><rect fill="#ffa412" height="16.68" width="1.81" y="889.53" x="1110.49"></rect><rect fill="#ffa412" height="16.68" width="1.81" y="889.53" x="1114.21"></rect><path fill="#ffa412" d="M1118.81,889.59v16.56c-.22,.04-.45,.06-.68,.06h-1.13v-16.68h1.13c.23,0,.46,.02,.68,.06Z"></path><path fill="#ffa412" d="M1121.32,891.13v13.47c-.44,.61-1.07,1.09-1.81,1.36v-16.19c.74,.27,1.37,.75,1.81,1.36Z"></path></g></g><g><path fill="#ffb93e" d="M1101.1,876.51v9.41c0,.75-.24,1.45-.66,2.03-.44,.61-1.07,1.09-1.81,1.36-.22,.08-.46,.15-.7,.18l-.22,.03h-.03s-.1,.01-.15,.02c-.03,0-.06,0-.09,0-.06,0-.12,0-.19,0h-158.98c-1.38,0-2.6-.69-3.27-1.73-.33-.5-.54-1.09-.57-1.71,0-.07,0-.13,0-.19v-9.41c0-.07,0-.13,0-.19,.08-1.55,1.21-2.85,2.73-3.28,.35-.11,.73-.16,1.12-.16h158.98c.07,0,.13,0,.2,0,.04,0,.07,0,.1,.01,.13,0,.25,.02,.38,.04,.24,.04,.48,.1,.7,.18,.11,.04,.22,.08,.33,.14h0c.42,.2,.8,.46,1.11,.79,0,0,.01,.01,.02,.02,.01,.02,.03,.03,.04,.04,.11,.11,.21,.23,.3,.36,.42,.58,.66,1.28,.66,2.03Z"></path><path fill="#ffa412" d="M1023.03,889.56h-85.17c-1.2,0-2.26-.66-2.87-1.65-.33-.52-.53-1.14-.56-1.8,0-.07,0-.13,0-.19v-9.41c0-.07,0-.13,0-.19,.08-1.66,1.23-3.04,2.74-3.37,.22-.05,.46-.08,.7-.08h74.71c.03,.13,.06,.26,.1,.38,1.24,4.87,4.03,11.42,10.33,16.27,0,0,.02,.02,.03,.03Z"></path><g><rect fill="#ffa412" height="16.68" width="1.81" y="872.88" x="1079.95"></rect><rect fill="#ffa412" height="16.68" width="1.81" y="872.88" x="1073.84"></rect><rect fill="#ffa412" height="16.68" width="1.81" y="872.88" x="1066.5"></rect><rect fill="#ffa412" height="16.68" width="1.81" y="872.88" x="1055.26"></rect><rect fill="#ffa412" height="16.68" width="1.81" y="872.88" x="1043.37"></rect><rect fill="#ffa412" height="16.68" width="1.81" y="872.88" x="1025.14"></rect><rect fill="#ffa412" height="16.68" width="1.81" y="872.88" x="1008.08"></rect><rect fill="#ffa412" height="16.68" width="1.81" y="872.88" x="992.84"></rect><rect fill="#ffa412" height="16.68" width="1.81" y="872.88" x="1085.78"></rect><rect fill="#ffa412" height="16.68" width="1.81" y="872.88" x="1089.62"></rect><rect fill="#ffa412" height="16.68" width="1.81" y="872.88" x="1093.34"></rect><path fill="#ffa412" d="M1097.94,872.94v16.56c-.22,.04-.45,.06-.68,.06h-1.13v-16.68h1.13c.23,0,.46,.02,.68,.06Z"></path><path fill="#ffa412" d="M1100.45,874.48v13.47c-.44,.61-1.07,1.09-1.81,1.36v-16.19c.74,.27,1.37,.75,1.81,1.36Z"></path></g></g><g><path fill="#ffb93e" d="M1112.79,860.22v9.42c0,.75-.24,1.45-.66,2.03-.44,.61-1.07,1.09-1.81,1.36-.23,.08-.46,.15-.7,.19-.22,.04-.45,.06-.68,.06h-158.98c-.62,0-1.2-.14-1.72-.39-1.16-.55-1.99-1.64-2.11-2.91,0-.05,0-.1-.01-.15,0-.06,0-.12,0-.19v-9.42c0-.06,0-.12,0-.19,.1-1.77,1.55-3.21,3.39-3.42,.15-.02,.3-.03,.46-.03h158.98c.23,0,.46,.02,.68,.06,.24,.04,.48,.1,.7,.19,.74,.27,1.37,.75,1.81,1.36,.42,.58,.66,1.28,.66,2.03Z"></path><path fill="#ffa412" d="M1034.72,873.26h-85.17c-.55,0-1.07-.14-1.53-.39-1.04-.55-1.77-1.64-1.89-2.91,0-.05,0-.1-.01-.15,0-.06,0-.12,0-.19v-9.42c0-.06,0-.12,0-.19,.08-1.77,1.38-3.21,3.02-3.42,.13-.02,.27-.03,.41-.03h74.71v.03c1.17,4.78,3.84,11.34,9.97,16.27,.16,.13,.32,.26,.49,.39Z"></path><g><rect fill="#ffa412" height="16.68" width="1.81" y="856.59" x="1091.64"></rect><rect fill="#ffa412" height="16.68" width="1.81" y="856.59" x="1085.53"></rect><rect fill="#ffa412" height="16.68" width="1.81" y="856.59" x="1078.19"></rect><rect fill="#ffa412" height="16.68" width="1.81" y="856.59" x="1066.95"></rect><rect fill="#ffa412" height="16.68" width="1.81" y="856.59" x="1055.06"></rect><rect fill="#ffa412" height="16.68" width="1.81" y="856.59" x="1036.83"></rect><rect fill="#ffa412" height="16.68" width="1.81" y="856.59" x="1019.77"></rect><rect fill="#ffa412" height="16.68" width="1.81" y="856.59" x="1004.53"></rect><rect fill="#ffa412" height="16.68" width="1.81" y="856.59" x="1097.46"></rect><rect fill="#ffa412" height="16.68" width="1.81" y="856.59" x="1101.31"></rect><rect fill="#ffa412" height="16.68" width="1.81" y="856.59" x="1105.02"></rect><path fill="#ffa412" d="M1109.63,856.64v16.56c-.22,.04-.45,.06-.68,.06h-1.13v-16.68h1.13c.23,0,.46,.02,.68,.06Z"></path><path fill="#ffa412" d="M1112.14,858.19v13.47c-.44,.61-1.07,1.09-1.81,1.36v-16.19c.74,.27,1.37,.75,1.81,1.36Z"></path></g></g><g><path fill="#ffb93e" d="M1117.77,843.56v9.42c0,.75-.24,1.45-.66,2.03-.44,.61-1.07,1.09-1.81,1.36-.23,.08-.46,.15-.7,.19-.07,.01-.15,.02-.22,.03-.04,0-.08,0-.13,.01-.04,0-.08,0-.13,0-.07,0-.14,0-.2,0h-158.98c-2.05,0-3.74-1.53-3.84-3.44,0-.06,0-.12,0-.19v-9.42c0-.06,0-.12,0-.19,.1-1.91,1.79-3.44,3.84-3.44h158.98c.23,0,.46,.02,.68,.06,.24,.04,.48,.1,.7,.19,.74,.27,1.37,.75,1.81,1.36,.42,.58,.66,1.28,.66,2.03Z"></path><path fill="#ffa412" d="M1039.7,856.61h-85.17c-1.83,0-3.34-1.53-3.43-3.44,0-.06,0-.12,0-.19v-9.42c0-.06,0-.12,0-.19,.09-1.91,1.6-3.44,3.43-3.44h74.71c1.19,4.9,3.96,11.68,10.43,16.65,.01,0,.02,.02,.03,.03Z"></path><g><rect fill="#ffa412" height="16.68" width="1.81" y="839.93" x="1096.62"></rect><rect fill="#ffa412" height="16.68" width="1.81" y="839.93" x="1090.5"></rect><rect fill="#ffa412" height="16.68" width="1.81" y="839.93" x="1083.17"></rect><rect fill="#ffa412" height="16.68" width="1.81" y="839.93" x="1071.92"></rect><rect fill="#ffa412" height="16.68" width="1.81" y="839.93" x="1060.03"></rect><rect fill="#ffa412" height="16.68" width="1.81" y="839.93" x="1041.81"></rect><rect fill="#ffa412" height="16.68" width="1.81" y="839.93" x="1024.74"></rect><rect fill="#ffa412" height="16.68" width="1.81" y="839.93" x="1009.51"></rect><rect fill="#ffa412" height="16.68" width="1.81" y="839.93" x="1102.44"></rect><rect fill="#ffa412" height="16.68" width="1.81" y="839.93" x="1106.29"></rect><rect fill="#ffa412" height="16.68" width="1.81" y="839.93" x="1110"></rect><path fill="#ffa412" d="M1114.6,839.99v16.56c-.22,.04-.45,.06-.68,.06h-1.13v-16.68h1.13c.23,0,.46,.02,.68,.06Z"></path><path fill="#ffa412" d="M1117.11,841.54v13.47c-.44,.61-1.07,1.09-1.81,1.36v-16.19c.74,.27,1.37,.75,1.81,1.36Z"></path></g></g></g><g><path fill="#ffeddc" d="M1067.37,744.89s-8.35,13.21-16.01,13.39c-7.66,.18-19.3-6.12-19.3-6.12,0,0-7.03-17.6-2.26-24.49,0,0,4.78-2.36,9.78,1.81,.86,.72,1.73,1.62,2.59,2.79,1.21,1.64,2.57,2.57,4.02,3.06,5.46,1.87,11.95-2.53,14.37,1.71,1.42,2.46,2.96,4.32,4.22,5.62,1.5,1.5,2.59,2.24,2.59,2.24Z"></path><path fill="#ffeddc" d="M958.51,840.18s29.52-80.36,82.64-81.89c0,0,49.04,6.12,51.76,81.89h-134.41Z"></path><path fill="#db6a1d" d="M1026.6,760.74s21.29,5.32,27.86,2.19c0,0,.99-10-7.97-8.6-6.14,.96-10.14-2.35-12.49-3.7-3.33-1.9-8.29,5.92-7.4,10.11Z"></path><path fill="#e5c1a1" d="M1045.13,745.65c-1.36,1.15-5.54-16.18-5.54-16.18,.86,.72,1.73,1.62,2.59,2.79,1.21,1.64,2.57,2.57,4.02,3.06,.01,.51,.26,9.22-1.06,10.33Z"></path><path fill="#e5c1a1" d="M1064.79,742.65c-.3,.2-10.15,6.83-11.48,6.83s7.26-12.45,7.26-12.45c1.42,2.46,2.96,4.32,4.22,5.62Z"></path><path fill="#f9ddbf" d="M987.34,817.73c-.55-.52,20.89-35.46,26.79-35.72,5.9-.26,19.17,7.65,28.77,8.67,9.6,1.02,18.91-2.04,20.73,4.34,1.82,6.38,6.81,28.99,3.75,32.61-3.06,3.62-68.24,1.41-80.03-9.9Z"></path></g></g><path opacity=".5" fill="#e2810e" d="M1007.53,939.03s0,.08-.01,.12c-.28,5.6-1.08,11.13-2.38,16.53,0,0,0,.02,0,.03-.19,.78-.39,1.56-.6,2.34-1.33,4.92-3.08,9.72-5.24,14.32-2.71,5.78-6.04,11.25-9.99,16.26-.1,.14-.21,.28-.32,.41-4.93,6.2-10.77,11.71-17.47,16.27-1.41,.97-2.86,1.89-4.34,2.76-1,.59-2.01,1.15-3.02,1.69-.97,.63-1.99,1.17-2.96,1.84-2.8,1.93-6.3,3.45-10.1,4.67v-7.33c0-.06,0-.12,0-.18,0-.12,.02-.24,.03-.36,.02-.14,.06-.27,.09-.4,.4-1.54,1.73-2.69,3.3-2.69h-17c-1.58,0-2.9-1.15-3.3-2.69-.04-.13-.07-.26-.09-.4-.01-.12-.03-.23-.03-.35,0-.06,0-.12,0-.19v-9.41c0-.06,0-.13,0-.19,0-.12,.02-.23,.03-.35,.02-.13,.06-.27,.09-.4,.39-1.54,1.72-2.69,3.3-2.69h6.64c-.94-.52-1.63-1.49-1.81-2.63-.01-.08-.02-.16-.03-.23,0-.05,0-.11,0-.16,0-.06,0-.12,0-.18v-9.42c0-.06,0-.12,0-.18,0-.12,.01-.24,.03-.35,.02-.13,.05-.26,.09-.39,.39-1.55,1.72-2.7,3.3-2.7h3.81c-1.58,0-2.91-1.15-3.3-2.69-.04-.13-.07-.26-.09-.4-.01-.12-.03-.23-.03-.35v-9.79c.09-1.76,1.39-3.21,3.02-3.42h-11.28c-1.83,0-3.34-1.53-3.43-3.44,0-.06,0-.12,0-.19v-9.41c0-.06,0-.13,0-.19,0-.05,0-.1,0-.15,.14-1.57,1.24-2.86,2.67-3.2-1.54-.21-2.77-1.49-2.98-3.1-.01-.11-.02-.21-.03-.31,0-.07,0-.13,0-.19v-9.42c0-.07,0-.13,0-.19,0-.12,.02-.23,.03-.35,.02-.14,.06-.27,.09-.4,.39-1.54,1.72-2.69,3.3-2.69h6.64c-.94-.52-1.63-1.49-1.81-2.63-.01-.08-.02-.16-.03-.23,0-.06,0-.11,0-.16,0-.06,0-.12,0-.19v-9.41c0-.06,0-.13,0-.19,0-.12,.01-.23,.03-.35,.02-.13,.05-.26,.09-.39,.39-1.55,1.72-2.7,3.3-2.7h12.99c-1.58,0-2.91-1.15-3.3-2.7-.04-.13-.07-.26-.09-.39-.02-.12-.03-.23-.03-.36,0-.06,0-.12,0-.18v-9.42c0-.06,0-.12,0-.18,.09-1.76,1.38-3.21,3.02-3.42h-20.46c-1.2,0-2.26-.66-2.87-1.65v-.08l2.17-14.79v-.08l3.08-21.1c3.56,.54,7.08,1.33,10.53,2.38,.2,.06,.4,.12,.61,.18,.01,0,.02,.01,.04,.02,2.01,.63,4,1.35,5.96,2.15,.02,0,.03,.01,.06,.02,9.01,3.69,17.4,9.16,24.68,16.27,.13,.12,.26,.25,.38,.38,3.78,3.73,7.26,7.92,10.35,12.53,.62,.92,1.22,1.85,1.8,2.8,.19,.31,.39,.62,.57,.94,0,0,.01,.02,.01,.03,.94,1.56,1.83,3.15,2.67,4.79,1.99,3.87,3.67,7.83,5.03,11.85,1.82,5.34,3.1,10.79,3.85,16.27,.02,.14,.04,.27,.06,.41,.72,5.39,.94,10.79,.68,16.15Z"></path><g><path fill="#e2810e" d="M843.3,972.85c-20.85-42.5-7.09-95.95,30.73-119.38,37.82-23.43,85.39-7.97,106.24,34.53,20.85,42.5,7.09,95.95-30.73,119.38-37.82,23.43-85.39,7.97-106.24-34.53Z"></path><path fill="#ffb93e" d="M946.5,1009.17c-.96,.66-1.94,1.3-2.94,1.92-.34,.21-.67,.41-1.01,.61-.77,.46-1.54,.91-2.32,1.34-37.24,20.55-82.66,4.78-102.91-36.49-19.31-39.36-8.93-88.11,22.75-113.71,2.53-2.04,5.19-3.94,7.98-5.67,1-.62,2.01-1.22,3.03-1.78,.99-.55,1.98-1.08,2.98-1.58,3.06-1.53,6.17-2.83,9.31-3.88,4.67-1.58,9.41-2.65,14.16-3.21,14.73-1.75,29.55,1.27,42.69,8.49,13.94,7.66,26,20.05,34.06,36.49,20.3,41.38,7.79,93.14-27.79,117.46Z"></path><path fill="#ffa412" d="M906.36,1013.81c-6.54,0-13.12-1.04-19.57-3.14-17.98-5.84-32.86-19.21-41.89-37.62-9.03-18.42-11.15-39.69-5.95-59.89,5.2-20.2,17.09-36.92,33.48-47.07,33.84-20.96,76.54-7.08,95.19,30.94,18.65,38.02,6.3,86.01-27.54,106.97-10.51,6.51-22.06,9.82-33.73,9.82Zm-.21-155.37c-11.12,0-22.39,3.06-32.8,9.51-15.95,9.88-27.52,26.15-32.58,45.8-5.06,19.66-3.01,40.35,5.79,58.28,8.79,17.92,23.27,30.92,40.76,36.61,17.49,5.69,35.91,3.38,51.86-6.5,32.92-20.39,44.94-67.08,26.79-104.08-12.41-25.3-35.77-39.62-59.82-39.62Z"></path><path fill="#ffa412" d="M940.72,942.69c-.15-.43-.32-.85-.48-1.26-1.27-3.13-2.85-5.67-4.74-7.61-2.14-2.19-4.63-3.84-7.47-4.94-2.84-1.1-6-1.77-9.49-2-3.49-.24-7.29-.3-11.39-.17-2.54,.09-4.7,.04-6.51-.15-1.8-.18-3.33-.56-4.58-1.13-1.26-.57-2.27-1.34-3.06-2.33-.78-.98-1.43-2.18-1.94-3.6-.51-1.42-.81-2.83-.88-4.22-.08-1.39,.11-2.72,.56-3.97,.45-1.25,1.17-2.41,2.18-3.47,1.01-1.06,2.33-1.97,3.99-2.73,3.05-1.39,5.9-1.36,8.54,.09,2.64,1.45,4.79,4.48,6.46,9.08l15.93-7.27c-1.39-3.83-3.12-7.07-5.21-9.72-2.09-2.64-4.44-4.68-7.06-6.13-2.62-1.44-5.47-2.28-8.55-2.53-3.08-.25-6.29,.12-9.62,1.1l-4.51-12.49-8.82,4.02,4.45,12.31c-3.18,1.86-5.88,4.01-8.1,6.47-2.21,2.46-3.91,5.13-5.1,7.99-1.19,2.87-1.81,5.88-1.88,9.03-.06,3.15,.5,6.36,1.68,9.62,1.36,3.76,3.11,6.74,5.25,8.93,2.14,2.19,4.63,3.83,7.46,4.91,2.83,1.08,5.99,1.72,9.49,1.93,3.5,.21,7.31,.21,11.42-.01,2.39-.15,4.46-.14,6.21,.05,1.76,.18,3.27,.56,4.55,1.14,1.28,.58,2.34,1.39,3.19,2.43,.85,1.04,1.56,2.37,2.14,3.98,.51,1.42,.77,2.83,.76,4.24,0,1.41-.29,2.76-.85,4.04-.56,1.29-1.41,2.48-2.53,3.57-1.12,1.09-2.55,2.03-4.28,2.82-1.51,.69-3.06,1.14-4.68,1.36-1.61,.22-3.18,.04-4.72-.53-1.54-.57-2.97-1.62-4.31-3.13-1.34-1.51-2.5-3.63-3.48-6.35l-15.93,7.27c1.66,4.6,3.75,8.25,6.27,10.95,2.51,2.7,5.27,4.63,8.25,5.78,2.99,1.16,6.12,1.67,9.38,1.52,3.26-.15,6.48-.74,9.66-1.79l4.11,11.39,8.76-4-4.14-11.45c3.18-1.85,5.91-3.99,8.18-6.42,2.1-2.24,3.75-4.65,4.94-7.24,.1-.21,.19-.42,.28-.63,1.2-2.83,1.84-5.82,1.92-8.99,.08-3.16-.49-6.43-1.72-9.8Z"></path></g></g><g opacity=".7"><g><path fill="#77a4e5" d="M1464.44,924.94s15.03-19.7,.93-32.21c0,0-10.3-7.01-18.7-6.44,0,0,11.9,22.42,8.05,24.66-3.85,2.23-11.66-26.06-11.66-26.06,0,0-23.44-2.55-30.98,1.52,0,0,20.04,18.43,15.82,19.52-4.22,1.1-25.86-16.99-25.86-16.99,0,0-21.82,4.17-20.65,19.13,1.16,14.95,8.68,19.57,11.98,19.17,3.3-.4,22.63-8.69,23.05-5.65,.42,3.04-11.21,12.98-19.36,13.45,0,0,15.38,19.06,25.6,13.56,10.22-5.5,11.09-14.22,17.47-17.49,6.37-3.27,11.81-3.26,9.18,.07-2.63,3.34-14.16,6.58-17.81,13.82-3.64,7.24-6.91,12.13,3.66,10.34,10.58-1.79,27.77-10.48,28.52-20.44l.75-9.96Z"></path><g><path fill="#77a4e5" d="M1392.1,908.46s59.25-2.57,72.34,16.48c0,0,2.89,9.74,11.8,18.61l1.39,4.25s-10.27-12.16-13.94-12.9c0,0,5.75-23.59-71.58-26.43Z"></path><path fill="#77a4e5" d="M1476.24,943.55s12.72,10.57,13.6,29.45l-2.31,.23s-4.06-19.53-11.4-27.16c-7.34-7.64,.11-2.52,.11-2.52Z"></path></g></g><g><path fill="#77a4e5" d="M1510.78,908.82s-21.07-13.26-11.24-31.26c0,0,7.87-11.05,16.3-13.89,0,0-4.5,26.84,0,27.47,4.5,.63,3.09-30.31,3.09-30.31,0,0,22.2-12,30.91-11.05,0,0-13.77,26.21-9.27,25.57,4.5-.63,19.95-27.15,19.95-27.15,0,0,22.76-4.74,26.41,10.42,3.65,15.16-2.25,22.73-5.62,23.68-3.37,.95-25.01,.63-24.44,3.79,.56,3.16,15.17,8.21,23.32,5.37,0,0-8.99,24.94-20.79,23.68-11.8-1.26-15.45-9.47-22.76-10.1-7.31-.63-12.64,1.58-8.99,3.79,3.65,2.21,16.02,.72,21.92,6.36,5.9,5.64,10.68,9.11-.28,11.64-10.96,2.53-30.63,.95-34.56-8.52l-3.93-9.47Z"></path><g><path fill="#77a4e5" d="M1576.53,863.35s-59.01,21.47-65.75,45.47c0,0,.28,10.74-5.62,23.05v4.74s6.18-16.1,9.55-18.31c0,0-13.21-20.84,61.81-54.94Z"></path><path fill="#77a4e5" d="M1505.16,931.87s-9.1,15.53-3.91,34.43l2.34-.71s-2.27-20.82,2.49-31.29c4.76-10.47-.92-2.43-.92-2.43Z"></path></g></g><g><path fill="#9fc1f4" d="M1478.95,879.42s31.51-19.83,16.81-46.74c0,0-11.76-16.52-24.37-20.77,0,0,6.72,40.13,0,41.08-6.72,.94-4.62-45.32-4.62-45.32,0,0-33.19-17.94-46.22-16.52,0,0,20.59,39.19,13.87,38.24-6.72-.94-29.83-40.6-29.83-40.6,0,0-34.03-7.08-39.49,15.58-5.46,22.66,3.36,33.99,8.4,35.41,5.04,1.42,37.39,.94,36.55,5.67-.84,4.72-22.69,12.27-34.87,8.03,0,0,13.45,37.3,31.09,35.41,17.65-1.89,23.11-14.16,34.03-15.11,10.92-.94,18.91,2.36,13.45,5.67-5.46,3.3-23.95,1.08-32.77,9.51-8.82,8.43-15.97,13.62,.42,17.4,16.39,3.78,45.8,1.42,51.68-12.75l5.88-14.16Z"></path><g><path fill="#9fc1f4" d="M1380.64,811.43s88.23,32.1,98.32,67.99c0,0-.42,16.05,8.4,34.46v7.08s-9.24-24.08-14.29-27.38c0,0,19.75-31.16-92.43-82.15Z"></path><path fill="#9fc1f4" d="M1487.36,913.88s13.61,23.22,5.85,51.48l-3.5-1.06s3.4-31.13-3.72-46.79c-7.12-15.66,1.37-3.64,1.37-3.64Z"></path></g></g><path fill="#9fc1f4" d="M1478.19,1020.33c-30.05,0-54.41-27.37-54.41-61.14h108.83c0,33.77-24.36,61.14-54.41,61.14Z"></path><rect fill="#77a4e5" transform="translate(2956.93 1920.24) rotate(180)" height="1.88" width="111.85" y="959.18" x="1422.54"></rect><path fill="#77a4e5" d="M1501.43,1020.33h-50.95c0-2.71,1.95-4.9,4.36-4.9h42.22c2.41,0,4.36,2.2,4.36,4.9h0Z"></path></g><path fill="#f77d48" d="M1146.54,609.8c-70.01,64.06-153.89,113.3-249.31,146.36-77.5,26.84-163.38,43.29-255.24,48.89-25.05,1.53-49.45,2.19-72.93,2.19-47.49,0-91.28-2.71-129.44-6.49l15.44-82.09c52.62,4.82,115.47,7.35,183.36,3.21,86.45-5.26,166.96-20.64,239.28-45.69,87.03-30.15,163.15-74.7,226.22-132.42l42.62,66.04Z"></path><g><path fill="#163560" d="M624.52,446.11c-9.74-5.68-17.54-2.11-17.54-2.11-29.79-3.93-38.48,35.11-38.07,48.54,.4,13.43,1.77,27.86-11.54,45.31-38.43,50.41,42.05,52.63,42.05,52.63,.68-40.27,43.64-25.58,41.76-21.5,55.07,14.85,5.48-109.97-16.66-122.87Z"></path><path fill="#ffb27d" d="M509.61,614.01s-5.24-8.96-9.46-9.14c-4.22-.18-12.04-2.64-11.42-.88,.63,1.76,5.47,1.93,5.94,2.99,.47,1.05-7.19,2.64-9.38,2.81-2.19,.18-7.35,0-7.19,1.23,.16,1.23,9.3,6.33,15.75,5.62,6.45-.7,14.43,2.11,14.43,2.11l1.33-4.74Z"></path><path fill="#f99746" d="M585.37,616.91s-2.85,6.34-8.01,13.62c-6.23,8.76-15.82,18.88-27.88,20.88-5.76,.95-11.39-.44-16.56-3.02-.01,0-.02,0-.02,0-14.64-7.3-25.64-24.09-25.64-24.09-2.58-7.91,1.64-13.27,1.64-13.27,0,0,29.55,7.47,32.37,5.89,2.81-1.58,19.23-54.73,23.14-61.41,3.91-6.68,17.24-10.15,17.24-10.15l3.72,71.56Z"></path><path fill="#ed7d2b" d="M577.36,630.52c-6.23,8.76-15.82,18.88-27.88,20.88-5.76,.95-11.39-.44-16.56-3.02,.57,.08,15.19,2.11,21.02-9.6,5.94-11.95,12.37-30.93,21.2-24.6,3.81,2.73,3.64,9.52,2.22,16.34Z"></path><path fill="#36599e" d="M695.63,975.4s9.02,9.25,7.26,15.82c-1.76,6.57-9.9,10.95-11,18.98-1.1,8.03-5.5,12.41-9.46,12.41h-18.88s-2.91-5.65,4.12-7.36c7.04-1.7,9.69-11.14,9.25-19.9-.44-8.76,.66-20.44,.66-20.44l14.96-3.89,3.08,4.38Z"></path><path fill="#2b478b" d="M619.3,979.33s3.24,39.18-.72,41.37l-50.67-.12s0-6.57,8.14-8.03c8.14-1.46,22.44-6.81,24.86-18.74,2.42-11.93,18.39-14.48,18.39-14.48Z"></path><path fill="#ffb27d" d="M655.41,698.25c-10.43-26.28-16.81-33.82-15.59-41.97,.91-6.07-2.76-113.17-2.76-113.17-1.24-.43-3.72-.82-5.07-1.16-4.28-1.07-7.82-4.44-9.29-9.08-1.77-5.58-3.19-13.83-3.15-24.17l-1.34,.29-22.46,5s.51,7.94,.53,15.42c0,.06,0,.12,0,.19,.03,6.5-3.77,12.23-9.32,14.04-2.84,.92-5.3,1.71-5.3,1.71,0,0-8.25,26.46-9.82,53.64-1.58,27.18,15,38.99-.13,93.3-15.44,55.47,89.47,20.49,83.71,5.97Z"></path><path fill="#e8945b" d="M595.75,514s.51,7.94,.53,15.42c12.57-.4,19.21-13.28,21.93-20.42l-22.46,5Z"></path><path fill="#ffb27d" d="M591.55,521.08s29.73,.55,29.75-20.26c.02-20.81,3.87-34.76-15.11-35.99-18.98-1.23-22.68,6.71-24.19,13.65-1.51,6.95,1.81,41.92,9.55,42.6Z"></path><path fill="#163560" d="M592.65,464.32s8.14,24.42,20.63,28.03c12.49,3.61,17.91-.15,17.91-.15,0,0-9.58-8.55-11.57-23.49,0,0-20.83-16.01-26.98-4.39Z"></path><path fill="#163560" d="M594.67,466.3s-6.04,2.54-8.52,7.48c-2.43,4.84-4.5,11.25-4.02,19.11,0,0-6.13-16.6,.76-25.98,7.31-9.95,11.78-.61,11.78-.61Z"></path><path fill="#ebf3fa" d="M598.02,508.17s-2.05,3.03-6.16,2.82c-3.31-.18-4.58-3.4-4.58-3.4,0,0,6.07-1.64,10.74,.58Z"></path><path fill="#f99746" d="M658.28,590.48s.75,11.96,0,26.32c-.5,9.52-9.07,22.26-10.28,25.41-3.05,7.91-6.49,9.19-6.49,9.19l-26.6,7.33-9.35,2.57-29.5-9.9s-13.44-42.14-8.04-65.86c5.4-23.72,13.64-40.2,13.64-40.2,0,0,24.07,26.48,55.41-2.25l21.22,47.38Z"></path><path fill="#233862" d="M577.93,657.8s-14.61,51.1-15.55,68.49c-.94,17.4,27.93,247.13,29.09,255.14,1.09,7.56,9.44,12.37,9.44,12.37,0,0,3.84,2.55,9.32,.81,7.6-2.41,10.01-5.3,10.01-5.3,0,0,11.37-163.84,4.33-222.37-7.04-58.53-7.12-109.14-7.12-109.14h-39.53Z"></path><path fill="#2b478b" d="M639.82,656.28s22.28,33.6,24.36,56.31c2.08,22.71,3.26,102.49,7.68,124.63,4.43,22.14,20.69,64.75,20.69,133.81,0,0-1.69,3.96-6.91,6.07-1.67,.67-3.9,1.33-6.08,1.89-4.3,1.11-8.72-1.25-10.68-5.7-10.99-24.87-46.01-105.09-47.81-121.75-1.27-11.78-12.33-89.78-36.45-135.54-5.79-10.99,3.55-54.68,3.55-54.68l51.64-5.03Z"></path><path fill="#fff" d="M597.36,508.73s-.51,2.45-5.94,2.07c0,0-4.56-.32-4.42-3.01,0,0,4.42-1.92,10.36,.94Z"></path><path fill="#233862" d="M575.59,649.91s5.86,5.21,17.51,5.48c13.92,.31,48.4-3.99,48.4-3.99,0,0,1.53,4.81,1.47,9.89,0,0-42.11,11.94-66.52,1.74,0,0-3.15-6.65-.87-13.12Z"></path><path fill="#fff" d="M589.77,668.87c-3.5,0-6.35-3.62-6.35-8.08s2.85-8.08,6.35-8.08,6.35,3.62,6.35,8.08-2.85,8.08-6.35,8.08Zm0-13.79c-2.34,0-4.25,2.56-4.25,5.71s1.9,5.71,4.25,5.71,4.25-2.56,4.25-5.71-1.91-5.71-4.25-5.71Z"></path><polygon fill="#b5453c" points="686.84 659.16 643.7 701.38 592.27 635.01 635.42 592.79 686.84 659.16"></polygon><path fill="#ffb27d" d="M631.77,659.31s-15.81,2.08-15.76,6.29c.05,4.22,3.94,12.88,5.89,13.27,1.95,.39,12.87-11.72,12.87-11.72l-3-7.84Z"></path><path fill="#f99746" d="M637.06,543.1s21.11,1.66,29.2,23.76c8.09,22.1,23.44,59.21,23.44,65.45s-8.58,25.49-54.63,36.55c0,0-4.76-5.63-4.47-10.08,0,0,28.75-27.75,28.67-30.99-.15-6.13-4.71-14.23-29.95-42.6-6.86-7.71,7.74-42.09,7.74-42.09Z"></path></g><g><g><g><path fill="#95c0f4" d="M180.5,1022.56h-.21c-1.23,0-2.22-1.14-2.19-2.52l3.32-161.65,9.78-1.28-8.34,162.95c-.07,1.41-1.11,2.51-2.36,2.51Z"></path><path fill="#b0d4ff" d="M337.72,1022.56h.21c1.23,0,2.22-1.14,2.19-2.52l-3.32-161.65-9.78-1.28,8.34,162.95c.07,1.41,1.11,2.51,2.36,2.51Z"></path><path fill="#b0d4ff" d="M174.02,848.37v-110.77c0-19.49,14.06-35.29,31.41-35.29h71.02c17.35,0,31.41,15.8,31.41,35.29v115.01l-133.84-4.23Z"></path><path fill="#95c0f4" d="M174.02,848.37h146.56v17.49H188.55c-8.02,0-14.53-6.51-14.53-14.53v-2.96h0Z"></path><rect fill="#b0d4ff" ry="7.26" rx="7.26" height="17.49" width="117.69" y="848.37" x="226.3"></rect></g><g><path fill="#233862" d="M332.99,820.77c-10.17,19.9-22.97,27.58-22.97,27.58h-53.24s83.97-42.76,76.21-27.58Z"></path><g><path fill="#ffb27d" d="M292.1,974.73c-1.39,1.79-1.56,3.78-.88,5.92,0,0,0,.02,.01,.03,1.27,3.94,5.46,8.35,10.34,12.74,.62,.57,1.18,1.08,1.66,1.55,.13,.12,.25,.25,.37,.38,.1,.1,.19,.2,.29,.29,4.54,4.71,2.83,5.79,11,15.34,9.31,10.88,15.72,11.08,17.54,10.09,1.54-.85-1.59-6.62-5.06-13.11-.17-.31-.33-.63-.51-.95-.46-.86-.92-1.74-1.38-2.6-4.07-7.81-3.02-11.47-2.06-23.09,.78-9.44,13.07-52.75,13.07-52.75l-17.84-3.45s-5.37,34.49-11.29,39.8c-3.16,2.83-6.71,2.87-9.75,4.96-.22,.15-.43,.3-.63,.45-1.73,1.29-3.49,2.62-4.88,4.41Z"></path><path fill="#233862" d="M292.1,974.73c-1.39,1.79-1.56,3.78-.88,5.92,0,0,0,.02,.01,.03,1.55,3.94,5.64,8.32,10.36,12.7,.61,.57,1.16,1.1,1.64,1.59,.13,.12,.25,.25,.37,.38,.1,.1,.19,.2,.29,.29,4.54,4.71,2.83,5.79,11,15.34,9.31,10.88,15.72,11.08,17.54,10.09,1.54-.85-1.59-6.62-5.06-13.11-1.81-.75-10.23-4.59-16.59-13.74-5.6-8.04-9.34-18.36-13.16-24.35-.22,.15-.43,.3-.63,.45-1.73,1.29-3.49,2.62-4.88,4.41Z"></path><path fill="#ffb27d" d="M435.94,962.21c1.1,6.19,8.95,5.16,17.72,2.75,8.77-2.41,6.68,.45,19.17-1.1,12.48-1.55,16.26-6.78,16.64-8.87,.34-1.85-5.83-2.5-12.44-3.36-.83-.1-1.67-.22-2.5-.34-7.47-1.05-12.94-6.47-19.72-10.92-6.42-4.21-16.01-21.38-16.01-21.38l-17.12,1.52s8.98,15.33,12.46,21.99c2.04,3.92,1.94,9.1,1.68,13.11-.13,2.18-.26,4.4,.13,6.58Z"></path><path fill="#233862" d="M453.66,964.96c8.77-2.41,6.68,.45,19.17-1.1,12.48-1.55,16.26-6.78,16.64-8.87,.34-1.85-5.83-2.5-12.44-3.36l-.06,.14s-7.48,5.96-17.87,6.24c-8.47,.23-17.44-2.5-23.28-2.39-.13,2.18-.26,4.4,.13,6.58,1.1,6.19,8.95,5.16,17.72,2.75Z"></path><path fill="#233862" d="M370.35,839.23l-16,48.38-20.89,63.17s-5.67,.61-11.1-1.14c-5-1.62-10.73-5.87-10.73-5.87,0,0,5.8-67.83,16.62-106.76,2.77-9.99,5.88-18.08,9.31-22.63,16.77-22.28,32.79,24.85,32.79,24.85Z"></path><path fill="#2b478b" d="M354.08,762.39c-10.48-3.8-40.38,1.08-70.41,7.69l-6.29-11.65-64.87-5.69s-21.41,53.34-9.69,87.33c1.72,5,5.15,8.2,10.98,8.3h.95s38.61-.03,51.14-.03c32.26,0,68.27-24.92,72.93-25.97,7.63-1.71,10.68,15.42,18.3,33.42,7.62,17.99,71.68,79.69,71.68,79.69,0,0,9.84,.11,13.91-1.6,4.37-1.84,5.97-4.24,5.97-4.24,0,0-70.98-158.68-94.61-167.25Z"></path><path fill="#b5453c" d="M274.83,546.17c-8.31-4.9-20.95-5.57-23.01-5.88-24.58-3.71-39.37,36.43-40.24,48.59-1.6,22.42-12.16,25.83-27.01,39.87-29.78,28.15-21.05,60.86-4.76,73.01,9.77,7.29,26.99,0,26.99,0,.24,.19,47.1-29.44,70.2-43.73,34.63-5.53,19-99.37-2.17-111.87Z"></path><path fill="#ffb27d" d="M257.64,645.88c.1,.07-11.36,4.47-19.03,.66-7.21-3.58-12.68-16.92-12.57-16.93,3.28-.17,6.88-3.39,9.66-24.55l1.4,.56,23.49,9.5s-1.7,8.47-2.8,16.54c-.93,6.77-1.42,13.26-.14,14.22Z"></path><path fill="#ed975d" d="M260.59,615.12s-1.7,8.47-2.8,16.54c-13.49-2.73-18.79-17.84-20.69-26.03l23.49,9.5Z"></path><path fill="#ffb27d" d="M264.08,623.53s-32.14-4.85-29.15-27.29c2.99-22.45,.86-38.19,21.51-36.04,20.65,2.15,23.48,11.38,24.11,19.15,.62,7.77-8.03,44.87-16.47,44.19Z"></path><path fill="#b5453c" d="M279.38,567.04s-20.58,19.93-34.57,21.53c-14,1.61-19.3-3.44-19.3-3.44,0,0,8.25-7.7,13.21-20.12,1.46-3.66,4.55-6.17,8.11-6.52,9.99-.97,28.94-1.41,32.54,8.55Z"></path><path fill="#b5453c" d="M266.52,565.25s6.88,7.48,9.05,13.03c2.09,5.35,2.72,18.16,1.05,23.24,0,0,10.72-23.43,4.65-34.82-6.44-12.07-14.76-1.45-14.76-1.45Z"></path><path fill="#8c9df4" d="M284.71,699.08c-.97,73.11-.27,57.84-7.38,64.77-1.72,1.67-6.54,2.67-12.88,3.14-19.95,1.49-55.02-2.21-56.36-6.35-4.6-14.34-1.35-18.79-5.19-40.74-.4-2.33-.9-4.86-1.48-7.61-3.2-15.08-6.32-20.2,5.04-44.42,10.3-21.94,21-39.74,21.96-39.1,27.17,18.13,29.37,2.89,29.37,2.89,0,0,27.4,31.76,26.93,67.42Z"></path><path fill="#2b478b" d="M354.35,887.61l-20.89,63.17s-5.67,.61-11.1-1.14c-5-1.62-10.73-5.87-10.73-5.87,0,0,5.8-67.83,16.62-106.76l26.1,50.6Z"></path><path fill="#8c9df4" d="M257.78,631.66s27.96,5.33,31.24,18.85c3.28,13.53,22.61,93.05,22.61,93.05,0,0-14.21,2.87-20.78-4.51-6.57-7.38-22.85-68.46-22.85-68.46l-10.22-38.94Z"></path><path fill="#6980e2" d="M264.44,766.99c-19.95,1.49-55.02-2.21-56.36-6.35-4.6-14.34-1.35-18.79-5.19-40.74l9.62-30.45s-1.59,33.91,7.31,42.83c8.89,8.92,36.43,17.22,40.76,24.67,2.09,3.58,3.46,7.16,3.86,10.04Z"></path><path fill="#ffb27d" d="M241.58,752.73s19.68-4.92,22.86-2.96c3.18,1.96,10.94,9.11,11.91,11.6,.97,2.49-7.07-1.89-9.69-2.68-1.69-.51-6.15,1.23-8.36,2.06-9.29,3.48-14.98,1.69-14.98,1.69l-1.74-9.71Z"></path><path fill="#8c9df4" d="M228.4,628.76s-26.43,1.83-35.58,16.17c-12.88,20.18-38.43,106.21-23.79,117.68,16.49,12.92,75.05,3.38,75.05,3.38,0,0,1.95-10.24-.76-15.19-2.71-4.95-46.77-12.95-48.8-15.23-2.03-2.29,25.42-44.56,25.42-51.41s8.46-55.4,8.46-55.4Z"></path><path fill="#ffb27d" d="M265.39,755.93s4.12,5.98,5.48,6.69c1.35,.71,2.22,.54,2.22,.54l-2.78-5.62-4.92-1.61Z"></path><path fill="#ffb27d" d="M264.44,749.77l11.99,6.54s-.51,.94-1.99,.86c-1.48-.08-5.2-1.61-5.2-1.61l-4.8-5.8Z"></path></g><g><g><polygon fill="#f77d48" points="266.53 771.78 367.7 771.78 398.13 692.05 297.12 692.05 266.53 771.78"></polygon><polygon fill="#f77d48" points="368.88 766.61 235.3 766.61 235.3 771.65 367.7 771.65 368.88 766.61"></polygon></g><path fill="#ebf3fa" d="M342.16,731.91c.76-2.8-.78-5.07-3.43-5.07s-5.43,2.27-6.2,5.07c-.76,2.8,.78,5.07,3.44,5.07s5.43-2.27,6.2-5.07Z"></path></g></g></g><g><path fill="#233862" d="M517.27,1024.78h.28c1.62,0,2.93-1.66,2.89-3.67l-4.39-235.87-12.93-1.87,11.03,237.75c.09,2.05,1.47,3.66,3.12,3.66Z"></path><path fill="#233862" d="M244.73,1024.78h-.28c-1.62,0-2.93-1.66-2.89-3.67l4.39-235.87,12.93-1.87-11.03,237.75c-.09,2.05-1.47,3.66-3.12,3.66Z"></path><path fill="#233862" d="M230.13,771.78h289.93c3.87,0,7.01,3.14,7.01,7.01v2.86c0,3.87-3.14,7.01-7.01,7.01H230.13c-3.87,0-7.01-3.14-7.01-7.01v-2.86c0-3.87,3.14-7.01,7.01-7.01Z"></path></g></g><path fill="#2e3552" d="M3.38,1020.33H1598.17c1.76,0,3.19,1.43,3.19,3.19v1.3c0,1.76-1.43,3.19-3.19,3.19H3.38c-1.76,0-3.19-1.43-3.19-3.19v-1.3c0-1.76,1.43-3.19,3.19-3.19Z"></path></g></g></g></svg>