<svg viewBox="0 0 1620 1028" xmlns="http://www.w3.org/2000/svg"><g id="a"></g><g id="b"><g id="c"><g><path fill="#e8f2fa" d="M1543.84,1025.63c-92.65,0-1442.29,.34-1443.07-2.11l-.13-.31s-.13-.3-.13-.45c-.52-1.23-207.95-345.42,114.53-585.03,126.18-93.75-7.9-155.64,92.44-260.01,115.31-119.94,241.15,12.74,369.38-41.64,22.66-9.6,45.39-25.05,68.15-48.76,12.81-13.33,26.85-24.99,41.88-35.06,2.3-1.55,4.63-3.06,6.98-4.53,9-5.63,18.33-10.72,27.94-15.29,6.46-3.07,13.03-5.91,19.73-8.52h0c10.63-4.14,21.55-7.72,32.7-10.74,15.84-4.3,32.15-7.49,48.78-9.65,7.25-.95,14.57-1.69,21.94-2.26,143.27-10.86,304.51,50.24,387.71,139.53,16.75,17.98,92.93,111.03,32.88,238.91-37.91,80.74,120.91,157.86,177.35,250.06,143.49,234.42,2.24,392.82,.93,395.87Z"></path><g opacity=".8"><path fill="#d3e4ff" d="M713.2,402.91c0,12.67-1.13,25.07-3.28,37.12-5.19,28.91-16.32,55.71-32.07,79.06-36.58,54.28-98.1,89.9-167.81,89.9-82.93,0-154.25-50.39-185.82-122.65-4.17-9.52-7.64-19.42-10.35-29.64-4.57-17.15-7-35.19-7-53.8,0-15.05,1.59-29.73,4.61-43.86,.03-.16,.07-.32,.1-.48,8.44-39.06,27.81-73.97,54.68-101.27,7.62-7.75,15.85-14.89,24.62-21.33,4.18-3.07,8.48-5.99,12.89-8.74,30.91-19.3,67.3-30.42,106.27-30.42,5.17,0,10.29,.2,15.35,.59,7.15,.53,14.2,1.45,21.12,2.72,29.15,5.36,56.11,17.02,79.5,33.55h0c14.57,10.29,27.75,22.46,39.19,36.19,6.01,7.21,11.54,14.83,16.54,22.84,3.11,4.99,6.02,10.11,8.72,15.37,6.48,12.64,11.68,26.06,15.49,40.07,4.72,17.44,7.25,35.81,7.25,54.76Z"></path><g><path fill="#a9c2ff" d="M441.01,310.66c-8.11,13.02,3.38,35.64-20.94,29.47-24.32-6.17-39.19-8.91-40.54,4.79-1.36,13.71,18.24,13.71,18.24,28.11s-8.79,19.15-22.3,12.32c-13.52-6.84-17.4-16.78-33.11-10.61s-24.83,2.06-28.38-10.28c-.63-2.17-1.5-3.93-2.52-5.4,.03-.16,.07-.32,.1-.48,8.44-39.06,27.81-73.97,54.68-101.27,7.62-7.75,15.85-14.89,24.62-21.33,4.18-3.07,8.48-5.99,12.89-8.74,6.33,.24,13.9,2.67,20.36,10.77,14.19,17.83,23.64,8.91,20.27,29.47-3.38,20.56,2.03,23.31,13.51,22.62,11.48-.69,25-.69,26.35,8.22,1.35,8.91-35.14-.69-43.24,12.34Z"></path><path fill="#a9c2ff" d="M442.43,405.83s-12.26,14.46-22.83,6.16c-10.57-8.3-7.37-13.5-22.85-8.3-15.48,5.21-22.28-3.43-30.21,3.12-7.93,6.54-1.49,7.36-6.98,21.23-5.49,13.86-16.82,16.09-8.06,29.93,8.76,13.84,25.06,6.72,33.65,14.04,8.59,7.32,5.79,14.49,16.5,17.47,10.72,2.98,20.96-7.61,21.17,5.52,.21,13.13-3.93,25.96,9.4,38.17,13.33,12.21,10.83,14.97,24.53,20.92,13.7,5.95,30.07,.59,28-7.77-2.08-8.35-19.74-10.03-20.09-19.46-.35-9.43,9.04-8.64,5.28-20.77-3.77-12.13,6.75-18.67,3.2-26.51-3.55-7.84-23.8-10.52-21.44-18.42,2.36-7.9,20.67-1.2,21.67-17.9,1-16.7-10.12-22.65-8.48-38.94,1.64-16.3-20.59-8.5-22.47,1.51Z"></path><path fill="#a9c2ff" d="M713.2,402.91c0,12.67-1.13,25.07-3.28,37.12-5.19,28.91-16.32,55.71-32.07,79.06-5.37,1.79-10.85,1.75-16.25-.44-25.34-10.28-6.59-38.04,3.55-51.91,10.13-13.88-15.71-7.71-34.46-20.56-18.75-12.85,2.03-47.29-17.23-41.63-19.26,5.65-42.56,12.85-53.71-6.17-11.15-19.02,10.13-22.1,.51-38.04-9.63-15.93,5.57-25.19,24.83-26.73,19.26-1.54,16.72-15.42,40.54-17.48,23.82-2.06,23.31,28.78,49.66,26.73,26.35-2.06,25.16,4.11,25.16,4.11,1.9-.05,3.74,.35,5.5,1.17,4.72,17.44,7.25,35.81,7.25,54.76Z"></path><path fill="#a9c2ff" d="M690.47,308.08c-21.91,10.81-30.71-18.6-49.44-9.76-18.88,8.91-15.58-8.22-30.43-19.19-14.87-10.96-44.59,8.91-43.24-8.22,1.35-17.13,23.64-12.34,28.38-26.04,4.73-13.7,26.35-10.28,26.35-10.28,1.23-.47,2.54-.78,3.93-.9,0,0,0-.01,0,0,14.57,10.29,27.75,22.46,39.19,36.19,6.01,7.21,11.54,14.83,16.54,22.84,3.11,4.99,6.02,10.11,8.72,15.37Z"></path><path fill="#a9c2ff" d="M505.88,248.98s11.49-16.81-6.76-21.77c-18.24-4.96-17.9,1.53-32.09,0-14.19-1.53-19.76,9.6-9.12,21.77,10.64,12.16,19.26,35.51,28.88,23.07,9.63-12.44,7.77-21.87,19.09-23.07Z"></path></g></g><g><path fill="#6e97f0" d="M754.52,625l-31.12,375.33s-3.26,22.75,13.42,22.79c27.43,.07,136.53,0,136.53,0,0,0-20.65-4.74-20.39-15.39,.29-12.56,36.37-386.28,36.37-386.28l-134.81,3.55Z"></path><path fill="#89aef9" d="M883.62,1016.46c-5.4,.02-111.02,.2-137.73-.15-11.64-.15-13.68-10.5-13.78-17.2-.05-3.21,.35-5.59,.35-5.59l.81-9.76,2.06-24.86,1.82-21.97,2.34-28.23,1.97-23.83,22.11-266.7,134.81-3.55s-15.19,156.4-25.94,270.25c-1.2,12.69-2.34,24.85-3.4,36.2-.34,3.62-.67,7.17-.99,10.62-1,10.77-1.91,20.66-2.7,29.4-.42,4.6-.8,8.88-1.15,12.8-1.37,15.35-2.17,25.16-2.19,27.02,0,1.09,.09,2.1,.26,3.04,2.21,11.96,19.31,12.5,21.33,12.5Z"></path><polygon fill="#a9c2ff" points="427.12 420.76 502.92 729.61 513.3 771.91 548.6 915.76 1204.48 915.76 1074.35 420.76 427.12 420.76"></polygon><polygon fill="#89aef9" points="427.12 420.76 416.61 424.31 534.63 926.5 548.6 915.76 427.12 420.76"></polygon><polygon fill="#6e97f0" points="534.63 926.5 1186.47 926.5 1204.47 915.76 548.6 915.76 534.63 926.5"></polygon><rect fill="#a9c2ff" transform="translate(1668.21 2039.72) rotate(180)" height="6.8" width="141.13" y="1016.46" x="763.54"></rect><polygon fill="#4d86e3" points="868.8 926.5 868.07 931.7 735.34 958.9 737.16 936.94 738.03 926.5 868.8 926.5"></polygon><path opacity=".4" fill="#4d86e3" d="M883.62,1016.46c-5.4,.02-111.02,.2-137.73-.15-11.64-.15-13.68-10.5-13.78-17.2l132.1-25.21c-1.37,15.35-2.17,25.16-2.19,27.02,0,1.09,.09,2.1,.26,3.04,2.21,11.96,19.31,12.5,21.33,12.5Z"></path><polygon fill="#bdd4ff" points="427.12 420.76 1074.35 420.76 1179.37 818.58 524.75 818.58 427.12 420.76"></polygon><polygon fill="#6b98f6" points="1148.84 801.34 542.83 801.34 521.18 713.83 512.8 679.97 509.38 666.16 487.12 576.23 485.97 571.55 474.21 524.01 468.94 502.74 464.45 484.6 453.93 442.07 1051.2 442.07 1062.76 484.6 1067.69 502.74 1073.47 524.01 1111.55 664.14 1111.55 664.15 1114.78 676.02 1116.28 681.53 1142.57 778.27 1148.84 801.34"></polygon><polygon fill="#5d7afb" points="1062.76 484.6 464.45 484.6 453.93 442.07 1051.2 442.07 1062.76 484.6"></polygon><g><path fill="#e6f2ff" d="M478.64,461.29c-.72-2.94,1.04-5.32,3.93-5.32s5.83,2.38,6.55,5.32c.72,2.94-1.04,5.32-3.93,5.32s-5.83-2.38-6.55-5.32Z"></path><path fill="#e6f2ff" d="M496.05,461.29c-.72-2.94,1.04-5.32,3.93-5.32s5.83,2.38,6.55,5.32c.72,2.94-1.04,5.32-3.93,5.32s-5.83-2.38-6.55-5.32Z"></path><path fill="#e6f2ff" d="M514.81,461.29c-.72-2.94,1.04-5.32,3.93-5.32s5.83,2.38,6.55,5.32c.72,2.94-1.04,5.32-3.93,5.32s-5.83-2.38-6.55-5.32Z"></path></g><polygon opacity=".5" fill="#89aef9" points="770.65 818.58 548.82 916.92 524.75 818.58 770.65 818.58"></polygon></g><g><g><path fill="#ff912b" d="M577.76,317.71c-10.69,4.06-17.59,13.44-17.59,23.78v229.43c0,46.94,21.97,90.9,58.79,117.66l132.86,86.37c8.83,5.75,20.84,5.75,29.7,0l132.86-86.37c36.82-26.76,58.79-70.72,58.79-117.66v-228.82c0-10.64-7.33-20.22-18.46-24.09-161.4-56.05-226.1-57.55-376.95-.29h0Z"></path><path fill="#ff7b35" d="M954.71,318c-78.57-27.28-134.21-41.6-188.04-42.55v503.8c5.22,0,10.4-1.44,14.85-4.31l132.86-86.37c36.82-26.76,58.79-70.72,58.79-117.66v-228.82c0-10.64-7.33-20.22-18.46-24.09h0Z"></path></g><g><path fill="#ffd89b" d="M780.2,522.27h-30.22c-27.1,0-49.15-22.37-49.15-49.86v-5.96c0-27.5,22.05-49.86,49.15-49.86h30.22c27.11,0,49.16,22.37,49.16,49.86v5.96c0,27.49-22.05,49.86-49.16,49.86Zm-30.22-85.75c-16.26,0-29.5,13.42-29.5,29.93v5.96c0,16.5,13.23,29.92,29.5,29.92h30.22c16.27,0,29.5-13.42,29.5-29.92v-5.96c0-16.51-13.23-29.93-29.5-29.93h-30.22Z"></path><path fill="#ffd89b" d="M684.87,481.14h157.86c14.47,0,26.22,11.75,26.22,26.22v68.2c0,47.45-38.52,85.96-85.96,85.96h-27.07c-50.5,0-91.51-41-91.51-91.51v-68.41c0-11.3,9.17-20.47,20.47-20.47Z"></path><g><ellipse fill="#ff7b35" ry="27.05" rx="26.67" cy="535.27" cx="766.67"></ellipse><path fill="#ff7b35" d="M766.67,547.9h0c3.18,0,5.78,2.64,5.78,5.86v45.09c0,3.22-2.6,5.86-5.78,5.86h0c-3.18,0-5.78-2.64-5.78-5.86v-45.09c0-3.22,2.6-5.86,5.78-5.86Z"></path></g></g></g><g><g><path fill="#a9c2ff" d="M1069.92,180c-2.93,1.11-4.81,3.68-4.81,6.51v62.79c0,12.85,6.01,24.88,16.09,32.2l36.36,23.64c2.42,1.57,5.7,1.57,8.13,0l36.36-23.64c10.08-7.32,16.09-19.36,16.09-32.2v-62.63c0-2.91-2.01-5.53-5.05-6.59-44.17-15.34-61.88-15.75-103.17-.08h0Z"></path><path opacity=".4" fill="#4d86e3" d="M1173.09,180.08c-21.5-7.47-36.73-11.39-51.47-11.64v137.89c1.43,0,2.85-.39,4.06-1.18l36.36-23.64c10.08-7.32,16.09-19.36,16.09-32.2v-62.63c0-2.91-2.01-5.53-5.05-6.59h0Z"></path></g><g><polygon fill="#ff912b" points="1127.96 101.92 1142.24 103.82 1132.07 114.16 1134.69 128.52 1121.86 121.9 1109.21 128.87 1111.45 114.44 1101 104.39 1115.22 102.09 1121.42 88.91 1127.96 101.92"></polygon><polygon fill="#ff912b" points="1127.96 351.49 1142.24 353.39 1132.07 363.73 1134.69 378.09 1121.86 371.47 1109.21 378.44 1111.45 364.01 1101 353.96 1115.22 351.66 1121.42 338.48 1127.96 351.49"></polygon><polygon fill="#ff912b" points="1022.83 163.2 1037.1 165.11 1026.93 175.44 1029.56 189.81 1016.72 183.19 1004.07 190.16 1006.31 175.73 995.86 165.68 1010.08 163.38 1016.28 150.19 1022.83 163.2"></polygon><polygon fill="#ff912b" points="1234.56 163.2 1248.84 165.11 1238.67 175.44 1241.29 189.81 1228.46 183.19 1215.8 190.16 1218.04 175.73 1207.6 165.68 1221.82 163.38 1228.01 150.19 1234.56 163.2"></polygon><polygon fill="#ff912b" points="1022.83 290.94 1037.1 292.84 1026.93 303.18 1029.56 317.54 1016.72 310.92 1004.07 317.9 1006.31 303.47 995.86 293.41 1010.08 291.12 1016.28 277.93 1022.83 290.94"></polygon><polygon fill="#ff912b" points="1234.56 290.94 1248.84 292.84 1238.67 303.18 1241.29 317.54 1228.46 310.92 1215.8 317.9 1218.04 303.47 1207.6 293.41 1221.82 291.12 1228.01 277.93 1234.56 290.94"></polygon><polygon fill="#ff912b" points="1068.41 118.41 1082.68 120.31 1072.51 130.65 1075.14 145.01 1062.3 138.39 1049.65 145.36 1051.89 130.93 1041.44 120.88 1055.66 118.58 1061.86 105.4 1068.41 118.41"></polygon><polygon fill="#ff912b" points="1190.63 118.41 1204.91 120.31 1194.73 130.65 1197.36 145.01 1184.52 138.39 1171.87 145.36 1174.11 130.93 1163.66 120.88 1177.89 118.58 1184.08 105.4 1190.63 118.41"></polygon><polygon fill="#ff912b" points="1068.41 335.45 1082.68 337.35 1072.51 347.69 1075.14 362.05 1062.3 355.43 1049.65 362.4 1051.89 347.97 1041.44 337.92 1055.66 335.62 1061.86 322.44 1068.41 335.45"></polygon><polygon fill="#ff912b" points="1190.63 335.45 1204.91 337.35 1194.73 347.69 1197.36 362.05 1184.52 355.43 1171.87 362.4 1174.11 347.97 1163.66 337.92 1177.89 335.62 1184.08 322.44 1190.63 335.45"></polygon><polygon fill="#ff912b" points="1006 230.39 1020.28 232.3 1010.11 242.64 1012.73 257 999.9 250.38 987.24 257.35 989.48 242.92 979.04 232.87 993.26 230.57 999.45 217.38 1006 230.39"></polygon><polygon fill="#ff912b" points="1255.18 230.39 1269.46 232.3 1259.29 242.64 1261.91 257 1249.08 250.38 1236.42 257.35 1238.67 242.92 1228.22 232.87 1242.44 230.57 1248.64 217.38 1255.18 230.39"></polygon></g></g><g><g><g><g><path fill="#d1e4fc" d="M238.98,579.27c.53,.53,.53,1.4,0,1.94-.52,.54-1.38,.54-1.91,0-.53-.53-.53-1.4,0-1.94,.52-.54,1.38-.54,1.91,0Z"></path><path fill="#d1e4fc" d="M234.59,583.77c.53,.53,.53,1.4,0,1.94-.52,.54-1.38,.54-1.91,0-.53-.53-.53-1.4,0-1.94s1.38-.54,1.91,0Z"></path><path fill="#d1e4fc" d="M228.23,588.33c.52-.54,1.38-.54,1.91,0,.53,.53,.53,1.4,0,1.94-.52,.54-1.38,.54-1.91,0-.53-.53-.53-1.4,0-1.94Z"></path></g><g><path fill="#d1e4fc" d="M225.69,592.88c.53,.53,.53,1.4,0,1.94-.52,.54-1.38,.54-1.91,0-.53-.53-.53-1.4,0-1.94,.52-.54,1.38-.54,1.91,0Z"></path><path fill="#d1e4fc" d="M221.29,597.38c.53,.53,.53,1.4,0,1.94-.52,.54-1.38,.54-1.91,0-.53-.53-.53-1.4,0-1.94,.52-.54,1.38-.54,1.91,0Z"></path><path fill="#d1e4fc" d="M214.93,601.95c.52-.54,1.38-.54,1.91,0,.53,.53,.53,1.4,0,1.94-.52,.54-1.38,.54-1.91,0-.53-.53-.53-1.4,0-1.94Z"></path></g></g><g><g><path fill="#d1e4fc" d="M212.57,606.32c.53,.53,.53,1.4,0,1.94-.52,.54-1.38,.54-1.91,0-.53-.53-.53-1.4,0-1.94,.52-.54,1.38-.54,1.91,0Z"></path><path fill="#d1e4fc" d="M208.17,610.82c.53,.53,.53,1.4,0,1.94-.52,.54-1.38,.54-1.91,0-.53-.53-.53-1.4,0-1.94,.52-.54,1.38-.54,1.91,0Z"></path><path fill="#d1e4fc" d="M201.81,615.38c.52-.54,1.38-.54,1.91,0,.53,.53,.53,1.4,0,1.94-.52,.54-1.38,.54-1.91,0-.53-.53-.53-1.4,0-1.94Z"></path></g><g><path fill="#d1e4fc" d="M199.27,619.93c.53,.53,.53,1.4,0,1.94-.52,.54-1.38,.54-1.91,0-.53-.53-.53-1.4,0-1.94,.52-.54,1.38-.54,1.91,0Z"></path><path fill="#d1e4fc" d="M194.87,624.43c.53,.53,.53,1.4,0,1.94-.52,.54-1.38,.54-1.91,0-.53-.53-.53-1.4,0-1.94,.52-.54,1.38-.54,1.91,0Z"></path><path fill="#d1e4fc" d="M188.51,629c.52-.54,1.38-.54,1.91,0,.53,.53,.53,1.4,0,1.94-.52,.54-1.38,.54-1.91,0-.53-.53-.53-1.4,0-1.94Z"></path></g></g></g><g><ellipse fill="#c0dbf9" ry="29.85" rx="29.42" cy="549.02" cx="270.69"></ellipse><g><path fill="#e8f2fa" d="M261.24,537.05c0-5.29,4.23-9.58,9.44-9.58s9.44,4.29,9.44,9.58-4.23,9.58-9.44,9.58-9.44-4.29-9.44-9.58Z"></path><path fill="#e8f2fa" d="M270.69,546.63c-9.13,0-16.53,7.51-16.53,16.76h33.05c0-9.26-7.4-16.76-16.53-16.76Z"></path></g></g><g><path fill="#c0dbf9" d="M164.16,641.13l-1.09-2.74c-1.17-2.94-3.98-4.86-7.1-4.86h-20.12v68.22h83.21v-55.28h-47.09c-3.44,0-6.53-2.12-7.82-5.35Z"></path><path fill="#e8f2fa" d="M189.9,664.68h-2.78c.08-.46,.13-.93,.13-1.41v-.96c0-4.45-3.57-8.06-7.95-8.06h-4.89c-4.38,0-7.95,3.62-7.95,8.06v.96c0,.48,.04,.95,.12,1.41h-3.09c-1.62,0-2.92,1.33-2.92,2.97v12.94c0,7.32,5.85,13.26,13.08,13.26h7.72c6.79,0,12.29-5.58,12.29-12.46v-12.91c0-2.1-1.68-3.8-3.75-3.8Zm-11.86,13.03v6.01c0,.52-.42,.95-.94,.95s-.94-.43-.94-.95v-6.01c-1.93-.43-3.38-2.18-3.38-4.27,0-2.42,1.93-4.38,4.31-4.38s4.31,1.96,4.31,4.38c0,2.09-1.45,3.84-3.38,4.27Zm6.02-14.44c0,.49-.07,.96-.21,1.41h-14.01c-.14-.45-.21-.92-.21-1.41v-.96c0-2.67,2.14-4.84,4.77-4.84h4.89c2.63,0,4.77,2.17,4.77,4.84v.96Z"></path></g></g><g><g><path fill="#2a3967" d="M407.97,635.83s1.57-17.37-17.56-17.37c0,0,5.8,1.6,8.8,4.79,0,0-12.2-7.27-25.48,3.9-13.28,11.17-5.03,39.17-9.07,44.49-4.04,5.32-19.76,6.38-17.84,23.57,1.92,17.19,49.91,38.73,46.83,52.95,0,0,18.8-28.04,5.36-40.84,0,0,6.55,6.26,7.22,13.71,0,0,1.78-14.53-7.34-19.18-8.07-4.11-14.68-19.16-13.98-21.85,.7-2.69,23.06-44.16,23.06-44.16Z"></path><path fill="#ffae73" d="M389.14,719.22s14.29,59.98,28.32,71.97c8.43,7.21,33.51,23.75,33.51,23.75l-10.43,3.84s-34.78-11.91-42.57-21.2c-7.79-9.29-29.11-55.82-29.11-55.82l20.27-22.54Z"></path><path fill="#ff912b" d="M471.66,836.87l-3.36-8.44c-3.6-9.05-12.26-14.97-21.88-14.97h-61.96v210.15h256.31v-170.27h-145.04c-10.59,0-20.11-6.52-24.07-16.47Z"></path><path fill="#26529f" d="M254.81,824.6c.13,.23,.26,.47,.39,.7,3.13,5.51,10.3,19.03,18.21,33.81,3.74,7.02,7.65,14.32,11.36,21.19,6.4,11.86,12.22,22.42,15.61,28,3.45,5.67,6,9.66,7.02,11.26h0c.31,.5,.38,1.08,.33,1.65-.36,5-.26,9.98,.23,14.87,4.77,48.11,36.75,73.89,36.75,73.89l9.51,1.42s-13.46-50.57-17.42-79.15c-.67-4.84-.96-8.77-.73-11.33,.7-7.45-.6-18.38-3.07-30.94-4.39-22.31-12.44-49.69-19.44-71.61-.44-1.4-13.81-50.47-13.81-50.47-11.22,9.95-52.16,14.06-52.16,14.06,0,0-6.94,17.12,7.21,42.64Z"></path><path fill="#1e3865" d="M374.18,1023.61h-39.68s-.95-6.14,1.12-10.79c1.99-4.47,4.82-4.61,.36-11.61,2.52,2.63,10.63,3.72,16.36,2.94,.7,1.16,4.53,8.91,6.88,10.62,2.59,1.89,14.16,1.22,14.96,8.84Z"></path><path fill="#1e3865" d="M254.81,824.6c.13,.23,.26,.47,.39,.7,3.13,5.51,20.04,37.21,27.94,51.99-9.16-38.22-2.79-76.43-2.79-76.43l-25.55,23.74Z"></path><path fill="#2a3967" d="M402.56,633.39c.26-1.06-22.67,10.51-23.83,11.82-10.75,12.1-7.69,27.89-1.53,28.04,3.95,.1,3.18,6.75,3.18,6.75l43.95-18.86s-5.29-31.31-21.77-27.74Z"></path><path fill="#6b98f6" d="M387.79,710.22s6.69,13.55,5.85,24.55c0,0-8.07,12.91-28.98,16.18,0,0,17.98-40.75,23.13-40.74Z"></path><path fill="#26529f" d="M285.74,784.95l.13-7.53c-14.79,1.89-50.99-17.93-50.99-17.93,0,0-15.47,10.44-17.59,40.25-1.03,14.55-7.57,76.08-8.3,94.45-.26,6.66-.35,11.41-.38,13.31,0,0,0,.01,0,.02,0,.58-.28,1.09-.63,1.55-3.06,3.94-5.71,8.12-8.01,12.46-22.56,42.59-10.76,100.45-10.76,100.45l5.24-1.35s19.08-59.99,31.55-85.94c2.12-4.4,4.04-7.82,5.65-9.81,4.69-5.78,9.63-15.59,14.51-27.39,9.21-22.32,39.58-112.55,39.58-112.55Z"></path><path fill="#1e3865" d="M220.78,1023.61h-39.68s-.95-6.14,1.12-10.79c1.99-4.47,5.1-6.5,4.35-11.9,2.52,2.63,6.63,5.58,12.37,4.8,.7,1.16,4.54,7.34,6.89,9.05,2.59,1.89,14.16,1.22,14.96,8.84Z"></path><path fill="#6b98f6" d="M361.98,759.6c-5.33,.92,.87,5.22-6.46,6.03-10.43,1.16-21.21,1.95-26.85,4.23-2.06,.83-3.43,1.86-3.86,3.18-2.45,7.46-17.94,20.28-17.94,20.28-69.1-3.19-73.55-34.43-73.55-34.43,44.85-44.18,83-68.27,114.53-71.25,7.67-.73,18.02,.25,22.87,2.44,11.03,4.98,17.07,20.14,17.07,20.14,0,0-5.56,45.88-25.81,49.38Z"></path><path fill="#547ce6" d="M355.52,765.63c-10.43,1.16-21.21,1.95-26.85,4.23-2.31-34.96,13.96-61.25,13.96-61.25,0,0,10.61,43.8,12.89,57.03Z"></path><path fill="#ffae73" d="M364.52,702.69s-26.24-1.45-30.9,15.26c-4.66,16.71,8.75,83.42,11.64,90.3,5.26,12.53,31.79,49.87,31.79,49.87l8.5-4.47s-17.08-54.65-20.89-60.06c-5.99-8.49,7.72-83.63-.14-90.9Z"></path><path fill="#ffae73" d="M385.55,853.65s2.19,1.94,3.96,4.12c1.77,2.19,.21,2.98,5.28,12.88,0,0-.26,1.38-1.36,1.12-1.1-.25-4.93-4.09-6.89-3.82,0,0-1.4,1.17-1.56,5.05-.14,3.63-.15,11.67-.78,13.17-.62,1.51-5.18-6.33-7.42-11.99-1.97-4.97-.05-21.72-.05-21.72l8.81,1.16Z"></path><path fill="#6b98f6" d="M328.44,740.29c.07,.39,24.83,4.62,40.32-3.35,0,0,12.94-41.12-5.55-39.15-18.49,1.97-29.44,7.88-29.91,16.86-.47,8.98-4.86,25.65-4.86,25.65Z"></path><path fill="#ffae73" d="M370.13,692.96c.27,3.33,.69,7.22,4.98,11.71,3.29,3.44,8.04,6.12,11.38,2.73,1.7-1.73,4-4.3,5.16-6.33,2.89-5.03,6.32-10.17,6.32-10.17l-14.85-13.2-.89-.79c-3.89,6.89-7.72,10.2-11.06,12.74-1.01,.77-1.15,2.04-1.05,3.31Z"></path><path fill="#f99352" d="M397.97,690.91s-3.43,5.13-6.32,10.17c-9.23-5.77-9.24-17.37-8.53-23.37l14.85,13.21Z"></path><path fill="#ffae73" d="M398.38,697.52s-22.41-12.65-14.43-26.69c7.98-14.04,10.46-25.13,25.11-17.64,14.65,7.48,14.36,14.45,12.82,19.8-1.54,5.34-17.46,27.46-23.5,24.53Z"></path><path fill="#2a3967" d="M425.67,664.8c-1.03-6.23-4.15-6.83-6.32-6.41-8.28-13.89-21.8-8.47-21.8-8.47-7.22,9.19-17.67,10.76-17.67,10.76,0,0,2.6,4.91,13.32,7.95,3.27,.93,6.99,.37,10.57-.86-7.44,4.2-15.21,5.82-15.21,5.82,14.12,1.31,27.56-11.79,28.95-13.19,.65,2.03,1.79,6.28,1.11,9.39-.93,4.22-4.62,11.87-2.37,12.86,0,0,10.96-8.5,9.42-17.85Z"></path><path fill="#ffae73" d="M455.07,814.97s-6.25,4.76-1.54,7.87c4.71,3.11,13.13,3.95,13.16,1.91,.12-6.85-3.25-11.72-11.62-9.78Z"></path></g><path fill="#ffd89b" d="M549.53,909.13h-8.08c.23-1.33,.36-2.7,.36-4.1v-2.8c0-12.92-10.36-23.42-23.09-23.42h-14.19c-12.73,0-23.09,10.51-23.09,23.42v2.8c0,1.39,.12,2.77,.36,4.1h-8.98c-4.69,0-8.49,3.86-8.49,8.62v37.59c0,21.27,17,38.53,37.98,38.53h22.42c19.71,0,35.68-16.2,35.68-36.2v-37.5c0-6.1-4.87-11.04-10.88-11.04Zm-34.44,37.83v17.46c0,1.51-1.22,2.75-2.72,2.75s-2.72-1.24-2.72-2.75v-17.46c-5.61-1.26-9.81-6.33-9.81-12.4,0-7.02,5.61-12.71,12.53-12.71s12.53,5.69,12.53,12.71c0,6.08-4.2,11.15-9.81,12.4Zm17.49-41.93c0,1.42-.21,2.8-.6,4.1h-40.7c-.39-1.3-.61-2.67-.61-4.1v-2.8c0-7.75,6.22-14.06,13.86-14.06h14.19c7.64,0,13.86,6.31,13.86,14.06v2.8Z"></path></g><g><path fill="#ff912b" d="M1497.99,1023.98h-311.12c-43.38-50.57-41.58-112.13,17.6-168.03,10.62-10.03,29.17-20.83,44.15-24.46,27.6-6.68,58.9-8.22,59.14-8.35,.09-.04,34.79-4.94,44.69-17.15,30.75-37.93,38.65-43.36,38.65-43.36,31.34-6.21,58.08-8.04,77.89,3.2t0,.01c18.36,10.43,30.79,32.09,35.44,71.88,.88,7.52,1.49,15.7,1.8,24.57,1.14,32.3,7.38,61.03,11.09,85.35,0,0,0,0,0,0,5.38,35.24,9.17,62.04-19.36,76.33Z"></path><path fill="#fc7600" d="M1453.47,806.18c-19.02,10.51-21.12,45.13-50.89,54.06-29.76,8.94-80.29,8.13-108.95,39.66-27.65,30.43-58.15-46.98-45.01-68.75,27.6-6.65,58.9-8.18,59.14-8.31,.09-.04,42.45-.21,52.35-12.37,30.75-37.76,30.99-47.87,30.99-47.87,31.34-6.19,58.08-8,77.89,3.19t0,.01c21.83,22.88,3.48,29.87-15.54,40.38Z"></path><path fill="#fc7600" d="M1517.34,946.78c-43.65-55.27-133.31,20.08-156.52,17.95-21.33-1.95,41.6-77.5,119.65-88.73,31.55-4.54,23.99-37.62,23.98-38.64,.88,7.49,1.49,15.63,1.8,24.46,1.14,32.15,7.38,60.75,11.09,84.96Z"></path><g><path fill="#ffae73" d="M1273.91,976.87c-3.05,5.97-3.74,16.95-4.65,20.67-.91,3.72-16.9,16.38-18.28,15.74-3.5-1.6-.16-7.78,1.98-12.3,.09-.18,.17-.36,.25-.54,2.11-4.56,.3-14.72,1.39-19.98,1.09-5.25-4.16-19.39-4.16-19.39l8.84-11.32s6.21,11.99,10.65,14.17c.78,.39,1.52,.86,2.17,1.4,3.01,2.52,4.32,6.63,1.81,11.54Z"></path><path fill="#0b3563" d="M1392.34,675.75c-8.52,.72-16.47,4.6-22.64,10.61-3.9,3.8-8.23,8.98-10.91,15.18-5.83,13.5-3.82,29.2-7.15,37.81-3.33,8.62-5.33,10.11,0,14.02,5.33,3.9,6.23,7.62-.15,11.75-6.37,4.14-11.07,17.02,6.7,18.14,17.78,1.12,52.23-5.43,56.66-8.76,4.43-3.33,16.53-8.29,22.33-17.21,11.59-17.84,2.36-29.82-6.6-32.84-13.64-4.6-8.63-51.21-38.25-48.69Z"></path><path fill="#6b98f6" d="M1369,750.45s-17.63,40.36-21.3,43.87c-3.67,3.51-20.87,10.37-19.32,16.25,1.55,5.88,14.49,11.56,19.9,10.19,5.41-1.37,19.13-25.09,19.13-25.09l1.59-45.23Z"></path><path fill="#547ce6" d="M1329.81,814.11s.95-6.94,17.65-9.18c9.27-1.24,24.78-27.47,24.78-27.47l-15.51,41.35-15.03,6.59-11.9-11.29Z"></path><path fill="#1e3865" d="M1336.6,827.15s-86.99-6.18-98.91,7.83c-9.46,11.11,7.77,132.51,7.77,132.51,0,0,23.67,.7,25.54-5.66,0,0-4.42-58.94-.72-69.13,3.7-10.19,1.36-24.3,1.36-24.3,0,0,46.32,7.04,61.01,3.47,14.69-3.57,3.96-44.72,3.96-44.72Z"></path><path fill="#ffae73" d="M1242.85,1011.84c-6.12,2.56-13.63,10.5-16.69,12.75-3.06,2.25-23.33,1.45-23.98,.07-1.72-3.65,5.37-6.25,9.87-8.35,.07-.03,.13-.06,.2-.09h.01c4.46-2.28,9.44-11.01,13.55-14.26,4.17-3.3,9.15-17.53,9.15-17.53l13.95-2.87s-2.87,13.22-.87,17.79c.19,.43,.35,.87,.48,1.31,1.28,4.25-.13,8.86-5.68,11.18Z"></path><path fill="#214d9a" d="M1374.84,831.46s-94.91,9.78-103.25,19.61c-8.34,9.83-41.14,137.61-41.14,137.61,0,0,9.69,5.48,18.49,.36,0,0,25.11-43.35,36.22-56.96,11.11-13.61,15.06-49.15,20.98-52.98,1.59-1.03,57.43,5.35,77.91-10.6,20.48-15.95-9.22-37.05-9.22-37.05Z"></path><path fill="#6b98f6" d="M1416.22,831.64c-2.44,4.74-5.09,9.2-7.92,13.21-7.11,10.05-15.33,17.27-24.24,19.15-12.95,2.73-56.36-22.83-54.16-36.93,1.19-7.67,25.32-21.47,29.21-27.03,3.88-5.56,6.23-33.48,8.31-44.87,1.55-8.48,6.73-9.36,13.2-11.61,27.51-9.56,47.09,.55,47.09,.55,12.58,7.19,5.59,54.42-11.48,87.54Z"></path><path fill="#0b3563" d="M1414.89,715.05s1.48-6.84,2.07-14.15c.42-5.22-7.39-22.23-19.52-21.52,0,0-5.42,1.07-10.24,5.09-3.83,3.19-9.17,9.81-1.03,25.78l2.24,5.44,26.49-.64Z"></path><g><path fill="#ffae73" d="M1390.31,742.55c.39,2.91,2.95,4.58,8.65,4.21,5.77-.38,13.96-3.92,13.28-6.63-.6-2.37-3.17-7.92-4.21-22.04l-1.05,.3-17.63,5.02s.85,5.68,1.28,11.07c.36,4.52-.52,6.59-.32,8.07Z"></path><path fill="#ff9d5d" d="M1389.35,723.41s.85,5.68,1.28,11.07c10-1.08,14.58-10.78,16.35-16.09l-17.63,5.02Z"></path><path fill="#ffae73" d="M1388.97,731.68s23.07-5.89,19.24-20.4c-3.83-14.52-3.44-25.05-18.33-21.91-14.89,3.14-16.28,9.46-16.16,14.62,.12,5.16,9.16,28.85,15.26,27.69Z"></path><path fill="#0b3563" d="M1379.32,691.87s7.74,14.97,22.36,16.59c8.55,.94,10.9,6.66,10.9,6.66,0,0-2.56-16.34-6.86-26.33,0,0-23.8-6.31-26.39,3.09Z"></path><path fill="#0b3563" d="M1381.96,693.85s-5.05,5.23-6.61,8.92c-2.31,5.46,2.19,16.96,4.05,19.44,0,0-10.73-18.48-7.15-26.48,3.8-8.48,9.71-1.88,9.71-1.88Z"></path></g><path fill="#ffae73" d="M1311.6,828.6s-4.59,4.93-5.15,5.2c-3.04,1.44-6.87,.6-8.73,1.07-1.86,.47-1.53-.7-.17-1.65,1.37-.95,4.73-.58,3.36-.92-1.38-.35-8.8-1.75-11.6-.99-4.43,1.2-7.92-.21-8.2-.67-.28-.46,10.11-5.61,13.07-5.43,2.97,.17,11.5-.24,11.5-.24l5.92,3.64Z"></path><path fill="#ffae73" d="M1435.5,753.21s2.76,68.64-5.19,78.26c-7.71,9.33-40.66,3-54.89-.14-.69-.15-2.15,0-3.18,.93-1.11,1.01-1.59-6.87-1.59-6.87,0,0,42.97-6.38,45.86-7.21,4.15-1.19,1.26-48.45,1.26-48.45l17.74-16.52Z"></path><path fill="#ffae73" d="M1374,830.4s-3.85,3.96-5.32,5.98c-1.47,2.02-11.7,5.69-11.94,4.6-.23-1.08,4.58-4.38,5.02-5.61,.44-1.23,5.68-7.41,8.88-8.11,3.2-.7,3.35,3.13,3.35,3.13Z"></path><path fill="#ffae73" d="M1370.64,825.39s-15.79,3.7-18.47,4.82c-2.68,1.11-8.36,9.27-6.11,10.49,1.42,.77,7.65-2.56,10.82-3.26,3.16-.7,12.12,.88,16.22-7.33,.46-.93-2.47-4.71-2.47-4.71Z"></path><path fill="#214d9a" d="M1242.85,1011.84c-6.12,2.56-13.63,10.5-16.69,12.75-3.06,2.25-23.33,1.45-23.98,.07-1.72-3.65,5.37-6.25,9.87-8.35,.07-.03,.13-.06,.2-.09h.01l.63-.22s8.74,3.16,16.01,0c5.67-2.47,14.08-11.62,19.62-15.34,1.28,4.25-.13,8.86-5.68,11.18Z"></path><path fill="#0e3a76" d="M1273.91,976.87c-3.05,5.97-3.74,16.95-4.65,20.67-.91,3.72-16.9,16.38-18.28,15.74-3.5-1.6-.16-7.78,1.98-12.3,1.26-.08,2.93-.52,4.88-1.84,4-2.7,10.78-12.9,11.38-18.92,.49-4.9,.18-11.93,2.87-14.9,3.01,2.52,4.32,6.63,1.81,11.54Z"></path><g><g><polygon fill="#ff7910" points="1350.29 842.76 1281.51 842.76 1260.82 790.58 1329.49 790.58 1350.29 842.76"></polygon><polygon fill="#fc7600" points="1280.71 840.73 1371.52 840.73 1371.52 842.76 1281.51 842.76 1280.71 840.73"></polygon></g><path fill="#fff" d="M1298.87,816.67c-.52-1.83,.53-3.32,2.34-3.32s3.69,1.49,4.21,3.32c.52,1.83-.53,3.32-2.34,3.32s-3.69-1.49-4.21-3.32Z"></path></g><path fill="#547ce6" d="M1416.22,831.64c-2.44,4.74-5.09,9.2-7.92,13.21-22.04-.84-27.36-9.87-27.36-9.87l35.28-3.33Z"></path><path fill="#547ce6" d="M1381.97,823.1s25.16-5.86,28.29-11.35c3.13-5.49,7.5-42.03,7.5-42.03l10.5,13.65-2.13,32.13s-11.98,12.02-12.75,11.58c-.77-.44-31.42-3.99-31.42-3.99Z"></path><path fill="#6b98f6" d="M1427.7,744.1s5.96,3.04,8.26,7.31c4.37,8.11,9.05,70.94-3.39,81.32-12.43,10.38-48.51,8.31-52.76,.96,0,0-.3-6.89,2.14-10.59,0,0,32.48-4.35,33.93-6.43,1.45-2.08-1.05-46.59,.48-50.63,1.53-4.04,11.32-21.94,11.32-21.94Z"></path></g><path fill="#ff912b" d="M1433.1,832.04s-9.38,8.91-48.61,10.19c-30.68,1-62.99,13.55-78.09,35.09-4.21,6.01-7.12,15.91-8.23,22.57-2.05,12.25,74.46,31.29,75.69,29.51,1.23-1.78,50.39-44.62,50.39-44.62l8.85-52.75Z"></path></g><g><path fill="#fc7600" d="M1078.35,586.31s38.15,40.13,39.96,55.23c1.8,15.1-18.28,38.68-18.28,38.68l-21.68-93.91Z"></path><path fill="#062646" d="M1061.11,1002.19s-1.35,21.28-5.41,21.58c-.54,.04-20.59,0-20.59,0l-25.6-.21s.18-6.26,7.67-7.56c7.49-1.31,20.02-6.61,24.58-16.63,4.79-10.54,19.36,2.83,19.36,2.83Z"></path><path fill="#062646" d="M1118.12,1002.31s-1.35,21.29-5.41,21.58c-.54,.04-20.59,0-20.59,0l-25.6-.21s.18-6.26,7.67-7.56c7.49-1.31,20.02-6.61,24.58-16.63,4.79-10.54,19.36,2.83,19.36,2.83Z"></path><path fill="#0b3563" d="M1033.25,773.34s6.6,43.45,31.41,120.61c24.81,77.16,28.14,110.56,28.14,110.56l26.79-.7s.41-84.26-11.02-123.06c-11.43-38.8-2.19-139.79-2.19-139.79l-73.14,32.39Z"></path><path fill="#0d458e" d="M1020.28,743.14s-1.09,65.45,9.9,145.84c10.99,80.39,7.13,114.5,7.13,114.5l26.74,.96s16.15-80.36,11.66-120.6c-4.5-40.24,22.18-137.98,22.18-137.98l-77.61-2.72Z"></path><path fill="#ffae73" d="M1072.37,590.08l-14.27,9.44-20.58-3.94c.29-1.69,1.66-8.67,2.91-15,.08-.37,.15-.75,.22-1.11,1.07-5.38,2-10.01,2-10.01l19.25-8.56,7.18-3.19c-.02,.11-.57,5.98-.65,6.83-1.38,15.2,3.93,25.53,3.93,25.53Z"></path><path fill="#fc7600" d="M1042.81,585.24c.4-.17,24.81-7.42,27.46-6.52,2.65,.89,4.21,6.1,4.21,6.1l-39.92,9.06s3.15-6.47,8.26-8.64Z"></path><path fill="#ff912b" d="M1108.15,751.41c-4.18,19.13-73,21.24-90.7,3.84-2.01-1.98-2.09-11.2-1.31-23.61,1.54-24.26,6.4-60.75,6.62-79.4,.11-9,1.35-18.21,2.99-26.57,3.49-17.82,8.8-31.79,8.8-31.79,0,0,33.64-10.95,39.92-9.06,30.28,9.1,37.84,147.48,33.67,166.6Z"></path><path fill="#fc7600" d="M1016.14,731.63c1.54-24.26,6.4-60.75,6.62-79.4,.11-9,1.35-18.21,2.99-26.57l20.23-3.58s19.59,81.95-29.84,109.54Z"></path><path fill="#ffae73" d="M1027.16,697.84s1.37,3.34-1.53,5.58c-2.9,2.24-4.78,5.87-4.13,8.53,.66,2.66,7,7.01,9.2,6.31,2.2-.69,6.69-4.18,6.21-5.59-.48-1.4,3.04-12.29-2.32-16.5-5.36-4.21-7.44,1.66-7.44,1.66Z"></path><path fill="#ff912b" d="M1050.01,589s-19.73,3.7-35.49,27.15c-15.76,23.45-26.14,40.89-23.26,49.37,2.88,8.47,29.2,37.89,33.74,37.9,4.55,.01,11.9-3.33,12.32-10.88,0,0-18.51-28.28-14.85-32.5,1.57-1.8,24.16-20.33,27.36-11.93,5.3,13.89,.17-59.11,.17-59.11Z"></path><path fill="#ffa05e" d="M1066.99,564.81c-4.24,7.25-19.99,13.49-26.55,15.78,.08-.37,.15-.75,.22-1.11,1.07-5.38,2-10.01,2-10.01l19.25-8.56c4.25-.05,6.84,.92,5.09,3.9Z"></path><path fill="#ffae73" d="M1035.41,568.27s30.95,9.87,36.72-9.78c5.76-19.65,13.64-31.61-5.88-38.74-19.52-7.13-25.58-.8-29.07,5.28-3.5,6.08-9.67,40.16-1.76,43.23Z"></path><path fill="#0b3563" d="M1038.39,523.14s1.93,22.88,6.59,21.9c4.67-.98,8.9-1.71,8.2,5.19-.7,6.9-7.18,14.85,7.19,16.1,14.37,1.25,35.12-36.31,31.19-43.44-11.35-20.57-69.58-24.84-53.17,.25Z"></path></g><g><g><g><g><g><path fill="#d1e4fc" d="M1288.15,463.72c-.58,.58-.58,1.52,0,2.11s1.5,.59,2.08,0c.58-.58,.58-1.52,0-2.11-.57-.58-1.5-.59-2.08,0Z"></path><path fill="#d1e4fc" d="M1292.93,468.62c-.58,.58-.58,1.52,0,2.11s1.5,.59,2.08,0c.58-.58,.58-1.52,0-2.11-.57-.58-1.5-.59-2.08,0Z"></path><path fill="#d1e4fc" d="M1299.85,473.59c-.57-.58-1.5-.59-2.08,0-.58,.58-.58,1.52,0,2.11s1.5,.59,2.08,0c.58-.58,.58-1.52,0-2.11Z"></path></g><g><path fill="#d1e4fc" d="M1302.62,478.54c-.58,.58-.58,1.52,0,2.11,.57,.58,1.5,.59,2.08,0s.58-1.52,0-2.11c-.57-.58-1.5-.59-2.08,0Z"></path><path fill="#d1e4fc" d="M1307.41,483.44c-.58,.58-.58,1.52,0,2.11,.57,.58,1.5,.59,2.08,.01,.58-.58,.58-1.52,0-2.11-.57-.58-1.5-.59-2.08,0Z"></path><path fill="#d1e4fc" d="M1314.33,488.42c-.57-.58-1.5-.59-2.08,0-.58,.58-.58,1.52,0,2.11s1.5,.59,2.08,0c.58-.58,.58-1.52,0-2.11Z"></path></g></g><g><g><path fill="#d1e4fc" d="M1316.91,493.17c-.58,.58-.58,1.52,0,2.11,.57,.58,1.5,.59,2.08,0,.58-.58,.58-1.52,0-2.11s-1.5-.59-2.08,0Z"></path><path fill="#d1e4fc" d="M1321.69,498.07c-.58,.58-.58,1.52,0,2.11,.57,.58,1.5,.59,2.08,0,.58-.58,.58-1.52,0-2.11-.57-.58-1.5-.59-2.08,0Z"></path><path fill="#d1e4fc" d="M1328.62,503.04c-.57-.58-1.5-.59-2.08,0-.58,.58-.58,1.52,0,2.11,.57,.58,1.5,.59,2.08,0,.58-.58,.58-1.52,0-2.11Z"></path></g><g><path fill="#d1e4fc" d="M1331.39,507.99c-.58,.58-.58,1.52,0,2.11,.57,.58,1.5,.59,2.08,0,.58-.58,.58-1.52,.01-2.11-.57-.58-1.5-.59-2.08,0Z"></path><path fill="#d1e4fc" d="M1336.17,512.89c-.58,.58-.58,1.52,0,2.11,.57,.58,1.5,.59,2.08,.01,.58-.58,.58-1.52,0-2.11s-1.5-.59-2.08,0Z"></path><path fill="#d1e4fc" d="M1343.09,517.86c-.57-.58-1.5-.59-2.08,0-.58,.58-.58,1.52,0,2.11,.57,.58,1.5,.59,2.08,.01,.58-.58,.58-1.52,0-2.11Z"></path></g></g></g><g><g><g><path fill="#d1e4fc" d="M1229.94,478.84c-.79-.18-1.58,.32-1.76,1.12-.18,.8,.31,1.6,1.1,1.79,.79,.18,1.58-.32,1.76-1.12,.18-.8-.31-1.6-1.1-1.79Z"></path><path fill="#d1e4fc" d="M1228.42,485.56c-.79-.18-1.58,.32-1.76,1.12-.18,.8,.31,1.6,1.1,1.79,.79,.18,1.58-.32,1.76-1.12,.18-.8-.31-1.6-1.1-1.79Z"></path><path fill="#d1e4fc" d="M1227.98,494.15c.18-.8-.31-1.6-1.1-1.79-.79-.18-1.58,.32-1.76,1.12-.18,.8,.31,1.6,1.1,1.79,.79,.18,1.58-.32,1.76-1.12Z"></path></g><g><path fill="#d1e4fc" d="M1225.33,499.18c-.79-.18-1.58,.32-1.76,1.12-.18,.8,.31,1.6,1.1,1.79,.79,.18,1.58-.32,1.76-1.12,.18-.8-.31-1.6-1.1-1.79Z"></path><path fill="#d1e4fc" d="M1223.81,505.9c-.79-.18-1.58,.32-1.76,1.12-.18,.8,.31,1.6,1.1,1.79,.79,.18,1.58-.32,1.76-1.12,.18-.8-.31-1.6-1.1-1.79Z"></path><path fill="#d1e4fc" d="M1223.36,514.49c.18-.8-.31-1.6-1.1-1.79-.79-.18-1.58,.32-1.76,1.12-.18,.8,.31,1.6,1.1,1.79,.79,.18,1.58-.32,1.76-1.12Z"></path></g></g><g><g><path fill="#d1e4fc" d="M1220.78,519.24c-.79-.18-1.58,.32-1.76,1.12-.18,.8,.31,1.6,1.1,1.79,.79,.18,1.58-.32,1.76-1.12,.18-.8-.31-1.6-1.1-1.79Z"></path><path fill="#d1e4fc" d="M1219.25,525.96c-.79-.18-1.58,.32-1.76,1.12-.18,.8,.31,1.6,1.1,1.79,.79,.18,1.58-.32,1.76-1.12,.18-.8-.31-1.6-1.1-1.79Z"></path><path fill="#d1e4fc" d="M1218.81,534.55c.18-.8-.31-1.6-1.1-1.79-.79-.18-1.58,.32-1.76,1.12-.18,.8,.31,1.6,1.1,1.79,.79,.18,1.58-.32,1.76-1.12Z"></path></g><g><path fill="#d1e4fc" d="M1216.16,539.57c-.79-.18-1.58,.32-1.76,1.12-.18,.8,.31,1.6,1.1,1.79,.79,.18,1.58-.32,1.76-1.12,.18-.8-.31-1.6-1.1-1.79Z"></path><path fill="#d1e4fc" d="M1214.64,546.29c-.79-.18-1.58,.32-1.76,1.12-.18,.8,.31,1.6,1.1,1.79,.79,.18,1.58-.32,1.76-1.12s-.31-1.6-1.1-1.79Z"></path><path fill="#d1e4fc" d="M1214.19,554.89c.18-.8-.31-1.6-1.1-1.79-.79-.18-1.58,.32-1.76,1.12-.18,.8,.31,1.6,1.1,1.79,.79,.18,1.58-.32,1.76-1.12Z"></path></g></g></g><g><path fill="#c0dbf9" d="M1285.66,430.79c0-17.95-14.34-32.49-32.03-32.49s-32.03,14.55-32.03,32.49,14.34,32.49,32.03,32.49,32.03-14.55,32.03-32.49Z"></path><g><path fill="#e8f2fa" d="M1263.91,417.76c0-5.76-4.6-10.43-10.28-10.43s-10.28,4.67-10.28,10.43,4.6,10.43,10.28,10.43,10.28-4.67,10.28-10.43Z"></path><path fill="#e8f2fa" d="M1253.63,428.19c9.94,0,17.99,8.17,17.99,18.25h-35.99c0-10.08,8.06-18.25,17.99-18.25Z"></path></g></g><g><path fill="#c0dbf9" d="M1331.7,531.08l-1.19-2.98c-1.27-3.2-4.33-5.29-7.73-5.29h-21.9v74.27h90.59v-60.18h-51.26c-3.74,0-7.11-2.3-8.51-5.82Z"></path><path fill="#e8f2fa" d="M1359.73,556.71h-3.03c.09-.5,.14-1.01,.14-1.54v-1.05c0-4.84-3.88-8.78-8.66-8.78h-5.32c-4.77,0-8.65,3.94-8.65,8.78v1.05c0,.52,.05,1.04,.13,1.54h-3.37c-1.76,0-3.18,1.45-3.18,3.23v14.09c0,7.97,6.37,14.44,14.24,14.44h8.4c7.39,0,13.37-6.07,13.37-13.57v-14.06c0-2.29-1.83-4.14-4.08-4.14Zm-12.91,14.18v6.55c0,.57-.46,1.03-1.02,1.03s-1.02-.46-1.02-1.03v-6.55c-2.1-.47-3.68-2.37-3.68-4.65,0-2.63,2.1-4.76,4.7-4.76s4.7,2.13,4.7,4.76c0,2.28-1.57,4.18-3.68,4.65Zm6.56-15.72c0,.53-.08,1.05-.23,1.54h-15.26c-.15-.49-.23-1-.23-1.54v-1.05c0-2.91,2.33-5.27,5.19-5.27h5.32c2.86,0,5.19,2.36,5.19,5.27v1.05Z"></path></g></g><path fill="#c0dbf9" d="M1178.49,601.02c0,16.6,27.71,46.89,27.71,46.89,0,0,27.7-30.29,27.7-46.89s-12.4-30.04-27.7-30.04-27.71,13.45-27.71,30.04Zm11.63-3.04c0-9,7.19-16.31,16.07-16.31s16.07,7.3,16.07,16.31-7.2,16.31-16.07,16.31-16.07-7.3-16.07-16.31Z"></path></g><path fill="#1e3865" d="M2.03,1023.26H1617.97c1.12,0,2.03,.91,2.03,2.03v.69c0,1.12-.91,2.03-2.03,2.03H2.03C.91,1028,0,1027.09,0,1025.97v-.69C0,1024.17,.91,1023.26,2.03,1023.26Z"></path><g><path fill="#ff912b" d="M538.51,589.2c-.68-2.87,.55-5.12,3.17-5.12,2.6,0,4.89,2.21,5.58,5.1,.68,2.87-.54,5.12-3.17,5.12-2.63,0-4.89-2.21-5.58-5.1Zm6.53-.01c-.43-1.79-1.62-3.15-2.92-3.15-1.29,0-1.83,1.32-1.39,3.15,.43,1.81,1.61,3.15,2.92,3.14s1.82-1.33,1.39-3.15Z"></path><path fill="#26529f" d="M500.67,514.92l-1.62,.43-.88-1.78,2.63-.85h1.48l2.38,9.95h-2.14l-1.85-7.75Z"></path><path fill="#26529f" d="M508.35,517.72c-.68-2.87,.55-5.11,3.17-5.12,2.6,0,4.89,2.21,5.58,5.1,.68,2.87-.54,5.11-3.17,5.12-2.63,0-4.89-2.21-5.58-5.1Zm6.53-.01c-.43-1.79-1.62-3.15-2.92-3.15-1.29,0-1.83,1.32-1.39,3.15,.43,1.81,1.61,3.15,2.92,3.15,1.31,0,1.82-1.33,1.39-3.15Z"></path><path fill="#26529f" d="M554.49,655.25c-.68-2.87,.55-5.11,3.17-5.12,2.6,0,4.89,2.21,5.58,5.1,.68,2.87-.54,5.12-3.17,5.12-2.63,0-4.89-2.21-5.58-5.1Zm6.53-.01c-.43-1.79-1.62-3.15-2.92-3.15-1.29,0-1.83,1.32-1.39,3.15,.43,1.81,1.61,3.15,2.92,3.14,1.31,0,1.82-1.33,1.39-3.15Z"></path><path fill="#26529f" d="M511.78,561.43l-1.62,.43-.88-1.78,2.63-.85h1.48l2.38,9.95h-2.14l-1.85-7.75Z"></path><path fill="#26529f" d="M519.45,564.23c-.68-2.87,.55-5.12,3.17-5.12,2.6,0,4.89,2.21,5.58,5.1,.68,2.87-.54,5.11-3.17,5.12-2.63,0-4.89-2.21-5.58-5.1Zm6.53-.01c-.43-1.79-1.62-3.15-2.92-3.15-1.29,0-1.83,1.32-1.39,3.15,.43,1.81,1.61,3.15,2.92,3.14,1.31,0,1.82-1.33,1.39-3.15Z"></path><path fill="#ff912b" d="M518.17,538.03l-1.62,.43-.88-1.78,2.63-.85h1.48l2.38,9.95h-2.14l-1.85-7.75Z"></path><path fill="#ff912b" d="M525.85,540.83c-.68-2.87,.55-5.12,3.17-5.12,2.6,0,4.89,2.21,5.58,5.1,.68,2.87-.54,5.11-3.17,5.12-2.63,0-4.89-2.21-5.58-5.1Zm6.53-.01c-.43-1.79-1.62-3.15-2.92-3.15-1.29,0-1.83,1.32-1.39,3.15,.43,1.81,1.61,3.15,2.92,3.14,1.31,0,1.82-1.33,1.39-3.15Z"></path><path fill="#26529f" d="M517.74,586.43l-1.62,.43-.88-1.78,2.63-.85h1.48l2.38,9.95h-2.14l-1.85-7.75Z"></path><path fill="#26529f" d="M525.42,589.22c-.68-2.87,.55-5.12,3.17-5.12,2.6,0,4.89,2.21,5.58,5.1,.68,2.87-.54,5.11-3.17,5.12-2.63,0-4.89-2.21-5.58-5.1Zm6.53-.01c-.43-1.79-1.62-3.15-2.92-3.15-1.29,0-1.83,1.32-1.39,3.15,.43,1.81,1.61,3.15,2.92,3.14,1.31,0,1.82-1.33,1.39-3.15Z"></path><path fill="#ff912b" d="M545.48,517.7c-.68-2.87,.55-5.11,3.17-5.12,2.6,0,4.89,2.21,5.58,5.1,.68,2.87-.54,5.11-3.17,5.12-2.63,0-4.89-2.21-5.58-5.1Zm6.53-.01c-.43-1.79-1.62-3.15-2.92-3.15-1.29,0-1.83,1.32-1.39,3.15,.43,1.81,1.61,3.15,2.92,3.15,1.31,0,1.82-1.33,1.39-3.15Z"></path><path fill="#26529f" d="M524.71,514.93l-1.62,.43-.88-1.78,2.63-.85h1.48l2.38,9.95h-2.14l-1.85-7.75Z"></path><path fill="#26529f" d="M532.39,517.73c-.68-2.87,.55-5.12,3.17-5.12,2.6,0,4.89,2.21,5.58,5.1,.68,2.87-.54,5.11-3.17,5.12-2.63,0-4.89-2.21-5.58-5.1Zm6.53-.01c-.43-1.79-1.62-3.15-2.92-3.15-1.29,0-1.83,1.32-1.39,3.15,.43,1.81,1.61,3.15,2.92,3.15,1.31,0,1.82-1.33,1.39-3.15Z"></path><path fill="#ff912b" d="M549.91,637.48c-.68-2.87,.55-5.12,3.17-5.12,2.6,0,4.89,2.21,5.58,5.1,.68,2.87-.54,5.12-3.17,5.12s-4.89-2.21-5.58-5.1Zm6.53-.01c-.43-1.79-1.62-3.15-2.92-3.15-1.29,0-1.83,1.32-1.39,3.15,.43,1.81,1.61,3.15,2.92,3.15s1.82-1.33,1.39-3.15Z"></path><path fill="#26529f" d="M523.17,609.71l-1.62,.43-.88-1.78,2.63-.85h1.48l2.38,9.95h-2.14l-1.85-7.75Z"></path><path fill="#26529f" d="M530.85,612.51c-.68-2.87,.55-5.12,3.17-5.12,2.6,0,4.89,2.21,5.58,5.1,.68,2.87-.54,5.11-3.17,5.12-2.63,0-4.89-2.21-5.58-5.1Zm6.53-.01c-.43-1.79-1.62-3.15-2.92-3.15-1.29,0-1.83,1.32-1.39,3.15,.43,1.81,1.61,3.15,2.92,3.14,1.31,0,1.82-1.33,1.39-3.15Z"></path><path fill="#26529f" d="M543.94,612.49c-.68-2.87,.55-5.12,3.17-5.12,2.6,0,4.89,2.21,5.58,5.1,.68,2.87-.54,5.12-3.17,5.12-2.63,0-4.89-2.21-5.58-5.1Zm6.53-.01c-.43-1.79-1.62-3.15-2.92-3.15-1.29,0-1.83,1.32-1.39,3.15,.43,1.81,1.61,3.15,2.92,3.15,1.31,0,1.82-1.33,1.39-3.15Z"></path><path fill="#26529f" d="M558.03,609.65l-1.62,.43-.88-1.78,2.63-.85h1.48l2.38,9.95h-2.14l-1.85-7.75Z"></path><path fill="#26529f" d="M529.14,634.71l-1.62,.43-.88-1.78,2.63-.85h1.48l2.38,9.95h-2.14l-1.85-7.75Z"></path><path fill="#26529f" d="M536.82,637.51c-.68-2.87,.55-5.12,3.17-5.12,2.6,0,4.89,2.21,5.58,5.1,.68,2.87-.54,5.11-3.17,5.12-2.63,0-4.89-2.21-5.58-5.1Zm6.53-.01c-.43-1.79-1.62-3.15-2.92-3.15-1.29,0-1.83,1.32-1.39,3.15,.43,1.81,1.61,3.15,2.92,3.14,1.31,0,1.82-1.33,1.39-3.15Z"></path><path fill="#26529f" d="M561.48,692.91c-.68-2.87,.55-5.12,3.17-5.12,2.6,0,4.89,2.21,5.58,5.1,.68,2.87-.54,5.11-3.17,5.12-2.63,0-4.89-2.21-5.58-5.1Zm6.53-.01c-.43-1.79-1.62-3.15-2.92-3.15-1.29,0-1.83,1.32-1.39,3.15,.43,1.81,1.61,3.15,2.92,3.14,1.31,0,1.82-1.33,1.39-3.15Z"></path><path fill="#26529f" d="M575.57,690.07l-1.62,.43-.88-1.78,2.63-.85h1.48l2.38,9.95h-2.14l-1.85-7.75Z"></path><path fill="#26529f" d="M540.71,690.13l-1.62,.43-.88-1.78,2.63-.85h1.48l2.38,9.95h-2.14l-1.85-7.75Z"></path><path fill="#26529f" d="M548.39,692.93c-.68-2.87,.55-5.11,3.17-5.12,2.6,0,4.89,2.21,5.58,5.1,.68,2.87-.54,5.11-3.17,5.12-2.63,0-4.89-2.21-5.58-5.1Zm6.53-.01c-.43-1.79-1.62-3.15-2.92-3.15-1.29,0-1.83,1.32-1.39,3.15,.43,1.81,1.61,3.15,2.92,3.15,1.31,0,1.82-1.33,1.39-3.15Z"></path><path fill="#ff912b" d="M583.25,692.87c-.68-2.87,.55-5.11,3.17-5.12,2.6,0,4.89,2.21,5.58,5.1,.68,2.87-.54,5.11-3.17,5.12-2.63,0-4.89-2.21-5.58-5.1Zm6.53-.01c-.43-1.79-1.62-3.15-2.92-3.15-1.29,0-1.83,1.32-1.39,3.15,.43,1.81,1.61,3.15,2.92,3.15,1.31,0,1.82-1.33,1.39-3.15Z"></path><path fill="#ff912b" d="M596.34,692.85c-.68-2.87,.55-5.12,3.17-5.12,2.6,0,4.89,2.21,5.58,5.1,.68,2.87-.54,5.11-3.17,5.12-2.63,0-4.89-2.21-5.58-5.1Zm6.53-.01c-.43-1.79-1.62-3.15-2.92-3.15-1.29,0-1.83,1.32-1.39,3.15,.43,1.81,1.61,3.15,2.92,3.14,1.31,0,1.82-1.33,1.39-3.15Z"></path><path fill="#26529f" d="M545.31,710.73c-.68-2.87,.55-5.12,3.17-5.12,2.6,0,4.89,2.21,5.58,5.1,.68,2.87-.54,5.11-3.17,5.12-2.63,0-4.89-2.21-5.58-5.1Zm6.53-.01c-.43-1.79-1.62-3.15-2.92-3.14-1.29,0-1.83,1.32-1.39,3.15,.43,1.81,1.61,3.15,2.92,3.15,1.31,0,1.82-1.33,1.39-3.15Z"></path><path fill="#26529f" d="M559.4,707.9l-1.62,.43-.88-1.78,2.63-.85h1.48l2.38,9.95h-2.14l-1.85-7.75Z"></path><path fill="#26529f" d="M567.08,710.7c-.68-2.87,.55-5.11,3.17-5.12,2.6,0,4.89,2.21,5.58,5.1,.68,2.87-.54,5.11-3.17,5.12-2.63,0-4.89-2.21-5.58-5.1Zm6.53-.01c-.43-1.79-1.62-3.15-2.92-3.15-1.3,0-1.83,1.32-1.39,3.15,.43,1.81,1.61,3.15,2.92,3.14,1.31,0,1.82-1.33,1.39-3.15Z"></path><path fill="#26529f" d="M580.17,710.67c-.68-2.87,.55-5.11,3.17-5.12,2.6,0,4.89,2.21,5.58,5.1,.68,2.87-.54,5.12-3.17,5.12-2.63,0-4.89-2.21-5.58-5.1Zm6.53-.01c-.43-1.79-1.62-3.15-2.92-3.15-1.29,0-1.83,1.32-1.39,3.15,.43,1.81,1.61,3.15,2.92,3.14,1.31,0,1.82-1.33,1.39-3.15Z"></path><path fill="#26529f" d="M957.45,692.91c-.68-2.87,.55-5.12,3.17-5.12,2.6,0,4.89,2.21,5.58,5.1,.68,2.87-.54,5.11-3.17,5.12-2.63,0-4.89-2.21-5.58-5.1Zm6.53-.01c-.43-1.79-1.62-3.15-2.92-3.15-1.29,0-1.83,1.32-1.39,3.15,.43,1.81,1.61,3.15,2.92,3.14,1.31,0,1.82-1.33,1.39-3.15Z"></path><path fill="#26529f" d="M971.54,690.07l-1.62,.43-.88-1.78,2.63-.85h1.48l2.38,9.95h-2.14l-1.85-7.75Z"></path><path fill="#26529f" d="M936.68,690.13l-1.62,.43-.88-1.78,2.63-.85h1.48l2.38,9.95h-2.14l-1.85-7.75Z"></path><path fill="#26529f" d="M944.36,692.93c-.68-2.87,.55-5.11,3.17-5.12,2.6,0,4.89,2.21,5.58,5.1,.68,2.87-.54,5.11-3.17,5.12-2.63,0-4.89-2.21-5.58-5.1Zm6.53-.01c-.43-1.79-1.62-3.15-2.92-3.15-1.29,0-1.83,1.32-1.39,3.15,.43,1.81,1.61,3.15,2.92,3.15,1.31,0,1.82-1.33,1.39-3.15Z"></path><path fill="#ff912b" d="M979.22,692.87c-.68-2.87,.55-5.11,3.17-5.12,2.6,0,4.89,2.21,5.58,5.1,.68,2.87-.54,5.11-3.17,5.12-2.63,0-4.89-2.21-5.58-5.1Zm6.53-.01c-.43-1.79-1.62-3.15-2.92-3.15-1.29,0-1.83,1.32-1.39,3.15,.43,1.81,1.61,3.15,2.92,3.15,1.31,0,1.82-1.33,1.39-3.15Z"></path><path fill="#ff912b" d="M992.31,692.85c-.68-2.87,.55-5.12,3.17-5.12,2.6,0,4.89,2.21,5.58,5.1,.68,2.87-.54,5.11-3.17,5.12-2.63,0-4.89-2.21-5.58-5.1Zm6.53-.01c-.43-1.79-1.62-3.15-2.92-3.15-1.29,0-1.83,1.32-1.39,3.15,.43,1.81,1.61,3.15,2.92,3.14,1.31,0,1.82-1.33,1.39-3.15Z"></path><path fill="#26529f" d="M905.11,710.73c-.68-2.87,.55-5.12,3.17-5.12,2.6,0,4.89,2.21,5.58,5.1,.68,2.87-.54,5.11-3.17,5.12-2.63,0-4.89-2.21-5.58-5.1Zm6.53-.01c-.43-1.79-1.62-3.15-2.92-3.14-1.29,0-1.83,1.32-1.39,3.15,.43,1.81,1.61,3.15,2.92,3.15,1.31,0,1.82-1.33,1.39-3.15Z"></path><path fill="#26529f" d="M919.2,707.9l-1.62,.43-.88-1.78,2.63-.85h1.48l2.38,9.95h-2.14l-1.85-7.75Z"></path><path fill="#26529f" d="M926.88,710.7c-.68-2.87,.55-5.11,3.17-5.12,2.6,0,4.89,2.21,5.58,5.1,.68,2.87-.54,5.11-3.17,5.12-2.63,0-4.89-2.21-5.58-5.1Zm6.53-.01c-.43-1.79-1.62-3.15-2.92-3.15-1.29,0-1.83,1.32-1.39,3.15,.43,1.81,1.61,3.15,2.92,3.14,1.31,0,1.82-1.33,1.39-3.15Z"></path><path fill="#26529f" d="M939.97,710.67c-.68-2.87,.55-5.11,3.17-5.12,2.6,0,4.89,2.21,5.58,5.1,.68,2.87-.54,5.12-3.17,5.12-2.63,0-4.89-2.21-5.58-5.1Zm6.53-.01c-.43-1.79-1.62-3.15-2.92-3.15-1.29,0-1.83,1.32-1.39,3.15,.43,1.81,1.61,3.15,2.92,3.14s1.82-1.33,1.39-3.15Z"></path><path fill="#ff912b" d="M578.11,757.39c-.68-2.87,.55-5.11,3.17-5.12,2.6,0,4.89,2.21,5.58,5.1,.68,2.87-.54,5.11-3.17,5.12-2.63,0-4.89-2.21-5.58-5.1Zm6.53-.01c-.43-1.79-1.62-3.15-2.92-3.15-1.29,0-1.83,1.32-1.39,3.15,.43,1.81,1.61,3.15,2.92,3.15,1.31,0,1.82-1.33,1.39-3.15Z"></path><path fill="#ff912b" d="M592.2,754.56l-1.62,.43-.88-1.78,2.63-.85h1.48l2.38,9.95h-2.14l-1.85-7.75Z"></path><path fill="#26529f" d="M551.37,729.62l-1.62,.43-.88-1.78,2.63-.85h1.48l2.38,9.95h-2.14l-1.85-7.75Z"></path><path fill="#26529f" d="M559.05,732.42c-.68-2.87,.55-5.12,3.17-5.12,2.6,0,4.89,2.21,5.58,5.1,.68,2.87-.54,5.12-3.17,5.12-2.63,0-4.89-2.21-5.58-5.1Zm6.53-.01c-.43-1.79-1.62-3.15-2.92-3.15-1.29,0-1.83,1.32-1.39,3.15,.43,1.81,1.61,3.15,2.92,3.15,1.31,0,1.82-1.33,1.39-3.15Z"></path><path fill="#26529f" d="M572.14,732.4c-.68-2.87,.55-5.11,3.17-5.12,2.6,0,4.89,2.21,5.58,5.1,.68,2.87-.54,5.11-3.17,5.12-2.63,0-4.89-2.21-5.58-5.1Zm6.53-.01c-.43-1.79-1.62-3.15-2.92-3.15-1.29,0-1.83,1.32-1.39,3.15,.43,1.81,1.61,3.15,2.92,3.15,1.31,0,1.82-1.33,1.39-3.15Z"></path><path fill="#26529f" d="M586.23,729.56l-1.62,.43-.88-1.78,2.63-.85h1.48l2.38,9.95h-2.14l-1.85-7.75Z"></path><path fill="#26529f" d="M934.51,729.62l-1.62,.43-.88-1.78,2.63-.85h1.48l2.38,9.95h-2.14l-1.85-7.75Z"></path><path fill="#26529f" d="M942.19,732.42c-.68-2.87,.55-5.12,3.17-5.12,2.6,0,4.89,2.21,5.58,5.1,.68,2.87-.54,5.12-3.17,5.12s-4.89-2.21-5.58-5.1Zm6.53-.01c-.43-1.79-1.62-3.15-2.92-3.15-1.29,0-1.83,1.32-1.39,3.15,.43,1.81,1.61,3.15,2.92,3.15,1.31,0,1.82-1.33,1.39-3.15Z"></path><path fill="#26529f" d="M955.28,732.4c-.68-2.87,.55-5.11,3.17-5.12,2.6,0,4.89,2.21,5.58,5.1,.68,2.87-.54,5.11-3.17,5.12-2.63,0-4.89-2.21-5.58-5.1Zm6.53-.01c-.43-1.79-1.62-3.15-2.92-3.15-1.29,0-1.83,1.32-1.39,3.15,.43,1.81,1.61,3.15,2.92,3.15,1.31,0,1.82-1.33,1.39-3.15Z"></path><path fill="#26529f" d="M969.37,729.56l-1.62,.43-.88-1.78,2.63-.85h1.48l2.38,9.95h-2.14l-1.85-7.75Z"></path><path fill="#26529f" d="M557.34,754.62l-1.62,.43-.88-1.78,2.63-.85h1.48l2.38,9.95h-2.14l-1.85-7.75Z"></path><path fill="#26529f" d="M565.02,757.42c-.68-2.87,.55-5.12,3.17-5.12,2.6,0,4.89,2.21,5.58,5.1,.68,2.87-.54,5.11-3.17,5.12-2.63,0-4.89-2.21-5.58-5.1Zm6.53-.01c-.43-1.79-1.62-3.15-2.92-3.14-1.29,0-1.83,1.32-1.39,3.15,.43,1.81,1.61,3.15,2.92,3.15,1.31,0,1.82-1.33,1.39-3.15Z"></path><path fill="#26529f" d="M599.88,757.36c-.68-2.87,.55-5.11,3.17-5.12,2.6,0,4.89,2.21,5.58,5.1,.68,2.87-.54,5.11-3.17,5.12-2.63,0-4.89-2.21-5.58-5.1Zm6.53-.01c-.43-1.79-1.62-3.15-2.92-3.15-1.29,0-1.83,1.32-1.39,3.15,.43,1.81,1.61,3.15,2.92,3.14,1.31,0,1.82-1.33,1.39-3.15Z"></path><path fill="#26529f" d="M612.97,757.33c-.68-2.87,.55-5.11,3.17-5.12,2.6,0,4.89,2.21,5.58,5.1,.68,2.87-.54,5.11-3.17,5.12-2.63,0-4.89-2.21-5.58-5.1Zm6.53-.01c-.43-1.79-1.62-3.15-2.92-3.15-1.29,0-1.83,1.32-1.39,3.15,.43,1.81,1.61,3.15,2.92,3.15,1.31,0,1.82-1.33,1.39-3.15Z"></path><path fill="#ff912b" d="M583.15,775.04c-.68-2.87,.55-5.12,3.17-5.12,2.6,0,4.89,2.21,5.58,5.1,.68,2.87-.54,5.11-3.17,5.12-2.63,0-4.89-2.21-5.58-5.1Zm6.53-.01c-.43-1.79-1.62-3.15-2.92-3.15-1.29,0-1.83,1.32-1.39,3.15,.43,1.81,1.61,3.15,2.92,3.15,1.31,0,1.82-1.33,1.39-3.15Z"></path><path fill="#ff912b" d="M597.24,772.21l-1.62,.43-.88-1.78,2.63-.85h1.48l2.38,9.95h-2.14l-1.85-7.75Z"></path><path fill="#26529f" d="M570.06,775.06c-.68-2.87,.55-5.12,3.17-5.12,2.6,0,4.89,2.21,5.58,5.1,.68,2.87-.54,5.12-3.17,5.12-2.63,0-4.89-2.21-5.58-5.1Zm6.53-.01c-.43-1.79-1.62-3.15-2.92-3.15-1.29,0-1.83,1.32-1.39,3.15,.43,1.81,1.61,3.15,2.92,3.14s1.82-1.33,1.39-3.15Z"></path><path fill="#26529f" d="M604.92,775c-.68-2.87,.55-5.12,3.17-5.12,2.6,0,4.89,2.21,5.58,5.1,.68,2.87-.54,5.11-3.17,5.12-2.63,0-4.89-2.21-5.58-5.1Zm6.53-.01c-.43-1.79-1.62-3.15-2.92-3.15-1.29,0-1.83,1.32-1.39,3.15,.43,1.81,1.61,3.15,2.92,3.14,1.31,0,1.82-1.33,1.39-3.15Z"></path><path fill="#26529f" d="M618.01,774.98c-.68-2.87,.55-5.11,3.17-5.12,2.6,0,4.89,2.21,5.58,5.1,.68,2.87-.54,5.11-3.17,5.12-2.63,0-4.89-2.21-5.58-5.1Zm6.53-.01c-.43-1.79-1.62-3.15-2.92-3.15-1.29,0-1.83,1.32-1.39,3.15,.43,1.81,1.61,3.15,2.92,3.15,1.31,0,1.82-1.33,1.39-3.15Z"></path><path fill="#ff912b" d="M663.05,775.04c-.68-2.87,.55-5.12,3.17-5.12,2.6,0,4.89,2.21,5.58,5.1,.68,2.87-.54,5.11-3.17,5.12-2.63,0-4.89-2.21-5.58-5.1Zm6.53-.01c-.43-1.79-1.62-3.15-2.92-3.15-1.29,0-1.83,1.32-1.39,3.15,.43,1.81,1.61,3.15,2.92,3.15,1.31,0,1.82-1.33,1.39-3.15Z"></path><path fill="#ff912b" d="M677.14,772.21l-1.62,.43-.88-1.78,2.63-.85h1.48l2.38,9.95h-2.14l-1.85-7.75Z"></path><path fill="#26529f" d="M649.96,775.06c-.68-2.87,.55-5.12,3.17-5.12,2.6,0,4.89,2.21,5.58,5.1,.68,2.87-.54,5.12-3.17,5.12s-4.89-2.21-5.58-5.1Zm6.53-.01c-.43-1.79-1.62-3.15-2.92-3.15-1.29,0-1.83,1.32-1.39,3.15,.43,1.81,1.61,3.15,2.92,3.14,1.31,0,1.82-1.33,1.39-3.15Z"></path><path fill="#26529f" d="M684.82,775c-.68-2.87,.55-5.12,3.17-5.12,2.6,0,4.89,2.21,5.58,5.1,.68,2.87-.54,5.11-3.17,5.12-2.63,0-4.89-2.21-5.58-5.1Zm6.53-.01c-.43-1.79-1.62-3.15-2.92-3.15-1.29,0-1.83,1.32-1.39,3.15,.43,1.81,1.61,3.15,2.92,3.14,1.31,0,1.82-1.33,1.39-3.15Z"></path><path fill="#26529f" d="M697.91,774.98c-.68-2.87,.55-5.11,3.17-5.12,2.6,0,4.89,2.21,5.58,5.1,.68,2.87-.54,5.11-3.17,5.12-2.63,0-4.89-2.21-5.58-5.1Zm6.53-.01c-.43-1.79-1.62-3.15-2.92-3.15-1.29,0-1.83,1.32-1.39,3.15,.43,1.81,1.61,3.15,2.92,3.15,1.31,0,1.82-1.33,1.39-3.15Z"></path><path fill="#ff912b" d="M844.94,775.04c-.68-2.87,.55-5.12,3.17-5.12,2.6,0,4.89,2.21,5.58,5.1,.68,2.87-.54,5.11-3.17,5.12-2.63,0-4.89-2.21-5.58-5.1Zm6.53-.01c-.43-1.79-1.62-3.15-2.92-3.15-1.29,0-1.83,1.32-1.39,3.15,.43,1.81,1.61,3.15,2.92,3.15,1.31,0,1.82-1.33,1.39-3.15Z"></path><path fill="#ff912b" d="M859.04,772.21l-1.62,.43-.88-1.78,2.63-.85h1.48l2.38,9.95h-2.14l-1.85-7.75Z"></path><path fill="#26529f" d="M831.86,775.06c-.68-2.87,.55-5.12,3.17-5.12,2.6,0,4.89,2.21,5.58,5.1,.68,2.87-.54,5.12-3.17,5.12-2.63,0-4.89-2.21-5.58-5.1Zm6.53-.01c-.43-1.79-1.62-3.15-2.92-3.15-1.29,0-1.83,1.32-1.39,3.15,.43,1.81,1.61,3.15,2.92,3.14s1.82-1.33,1.39-3.15Z"></path><path fill="#26529f" d="M866.72,775c-.68-2.87,.55-5.12,3.17-5.12,2.6,0,4.89,2.21,5.58,5.1,.68,2.87-.54,5.11-3.17,5.12-2.63,0-4.89-2.21-5.58-5.1Zm6.53-.01c-.43-1.79-1.62-3.15-2.92-3.15-1.29,0-1.83,1.32-1.39,3.15,.43,1.81,1.61,3.15,2.92,3.14,1.31,0,1.82-1.33,1.39-3.15Z"></path><path fill="#26529f" d="M879.81,774.98c-.68-2.87,.55-5.11,3.17-5.12,2.6,0,4.89,2.21,5.58,5.1,.68,2.87-.54,5.11-3.17,5.12-2.63,0-4.89-2.21-5.58-5.1Zm6.53-.01c-.43-1.79-1.62-3.15-2.92-3.15-1.29,0-1.83,1.32-1.39,3.15,.43,1.81,1.61,3.15,2.92,3.15,1.31,0,1.82-1.33,1.39-3.15Z"></path><path fill="#ff912b" d="M924.84,775.04c-.68-2.87,.55-5.12,3.17-5.12,2.6,0,4.89,2.21,5.58,5.1,.68,2.87-.54,5.11-3.17,5.12-2.63,0-4.89-2.21-5.58-5.1Zm6.53-.01c-.43-1.79-1.62-3.15-2.92-3.15-1.29,0-1.83,1.32-1.39,3.15,.43,1.81,1.61,3.15,2.92,3.15,1.31,0,1.82-1.33,1.39-3.15Z"></path><path fill="#ff912b" d="M938.93,772.21l-1.62,.43-.88-1.78,2.63-.85h1.48l2.38,9.95h-2.14l-1.85-7.75Z"></path><path fill="#26529f" d="M911.75,775.06c-.68-2.87,.55-5.12,3.17-5.12,2.6,0,4.89,2.21,5.58,5.1,.68,2.87-.54,5.12-3.17,5.12s-4.89-2.21-5.58-5.1Zm6.53-.01c-.43-1.79-1.62-3.15-2.92-3.15-1.29,0-1.83,1.32-1.39,3.15,.43,1.81,1.61,3.15,2.92,3.14,1.31,0,1.82-1.33,1.39-3.15Z"></path><path fill="#26529f" d="M946.61,775c-.68-2.87,.55-5.12,3.17-5.12,2.6,0,4.89,2.21,5.58,5.1,.68,2.87-.54,5.11-3.17,5.12-2.63,0-4.89-2.21-5.58-5.1Zm6.53-.01c-.43-1.79-1.62-3.15-2.92-3.15-1.29,0-1.83,1.32-1.39,3.15,.43,1.81,1.61,3.15,2.92,3.14,1.31,0,1.82-1.33,1.39-3.15Z"></path><path fill="#26529f" d="M959.7,774.98c-.68-2.87,.55-5.11,3.17-5.12,2.6,0,4.89,2.21,5.58,5.1,.68,2.87-.54,5.11-3.17,5.12-2.63,0-4.89-2.21-5.58-5.1Zm6.53-.01c-.43-1.79-1.62-3.15-2.92-3.15-1.29,0-1.83,1.32-1.39,3.15,.43,1.81,1.61,3.15,2.92,3.15,1.31,0,1.82-1.33,1.39-3.15Z"></path><path fill="#26529f" d="M626.05,757.31c-.68-2.87,.55-5.12,3.17-5.12,2.6,0,4.89,2.21,5.58,5.1,.68,2.87-.54,5.11-3.17,5.12-2.63,0-4.89-2.21-5.58-5.1Zm6.53-.01c-.43-1.79-1.62-3.15-2.92-3.15-1.3,0-1.83,1.32-1.39,3.15,.43,1.81,1.61,3.15,2.92,3.14,1.31,0,1.82-1.33,1.39-3.15Z"></path><path fill="#26529f" d="M639.14,757.29c-.68-2.87,.55-5.12,3.17-5.12,2.6,0,4.89,2.21,5.58,5.1,.68,2.87-.54,5.12-3.17,5.12-2.63,0-4.89-2.21-5.58-5.1Zm6.53-.01c-.43-1.79-1.62-3.15-2.92-3.14-1.29,0-1.83,1.32-1.39,3.15,.43,1.81,1.61,3.15,2.92,3.15,1.31,0,1.82-1.33,1.39-3.15Z"></path><path fill="#26529f" d="M878.41,757.31c-.68-2.87,.55-5.12,3.17-5.12,2.6,0,4.89,2.21,5.58,5.1,.68,2.87-.54,5.11-3.17,5.12-2.63,0-4.89-2.21-5.58-5.1Zm6.53-.01c-.43-1.79-1.62-3.15-2.92-3.15-1.29,0-1.83,1.32-1.39,3.15,.43,1.81,1.61,3.15,2.92,3.14,1.31,0,1.82-1.33,1.39-3.15Z"></path><path fill="#26529f" d="M891.5,757.29c-.68-2.87,.55-5.12,3.17-5.12,2.6,0,4.89,2.21,5.58,5.1,.68,2.87-.54,5.12-3.17,5.12-2.63,0-4.89-2.21-5.58-5.1Zm6.53-.01c-.43-1.79-1.62-3.15-2.92-3.14-1.29,0-1.83,1.32-1.39,3.15,.43,1.81,1.61,3.15,2.92,3.15,1.31,0,1.82-1.33,1.39-3.15Z"></path></g></g></g></g></svg>