<?xml version="1.0" standalone="no"?><!DOCTYPE svg PUBLIC "-//W3C//DTD SVG 1.1//EN" "http://www.w3.org/Graphics/SVG/1.1/DTD/svg11.dtd"><svg t="1666415153689" class="icon" viewBox="0 0 1024 1024" version="1.1" xmlns="http://www.w3.org/2000/svg" p-id="2069" xmlns:xlink="http://www.w3.org/1999/xlink" width="200" height="200"><path d="M552.029091 359.330909L512 349.090909l-17.221818 67.025455-29.323637-7.912728 17.221819-67.025454-43.287273-10.705455-16.756364 66.56-80.058182-19.549091-11.170909 46.545455 35.374546 8.843636a15.36 15.36 0 0 1 9.774545 7.912728 13.963636 13.963636 0 0 1 0 12.101818l-46.545454 178.269091a14.429091 14.429091 0 0 1-17.687273 10.705454l-28.858182-7.447273-20.014545 46.545455 82.850909 17.221818-16.756364 65.629091 40.96 10.705455 16.756364-66.094546 30.254545 7.912727-16.756363 65.629091 40.96 10.705455 16.756363-65.629091c70.283636 17.687273 126.603636 4.189091 142.894546-60.509091a67.956364 67.956364 0 0 0-37.236364-89.367273 60.974545 60.974545 0 0 0 46.545455-49.803636c15.36-60.043636-40.494545-90.298182-77.730909-99.607273z m-30.72 285.789091c-9.774545 38.167273-60.043636 31.185455-121.949091 15.36l22.341818-87.970909c71.214545 18.152727 109.847273 33.047273 99.607273 72.610909z m13.963636-130.792727c-6.981818 27.461818-28.392727 38.632727-103.796363 19.083636l20.945454-80.058182c53.061818 13.498182 93.090909 27.461818 82.850909 60.974546z m0 0" p-id="2070" fill="#5a5a5a"></path><path d="M440.785455 977.454545a416.581818 416.581818 0 1 1 416.116363-416.116363A418.909091 418.909091 0 0 1 440.785455 977.454545z m0-786.152727a370.036364 370.036364 0 1 0 369.570909 372.363637 372.363636 372.363636 0 0 0-369.570909-372.363637z" p-id="2071" fill="#5a5a5a"></path><path d="M860.16 765.207273a23.738182 23.738182 0 0 1-16.756364-6.981818 22.807273 22.807273 0 0 1 0-32.581819 389.12 389.12 0 0 0 63.767273-84.712727A370.036364 370.036364 0 0 0 583.214545 93.090909 364.450909 364.450909 0 0 0 418.909091 131.723636a23.272727 23.272727 0 0 1-20.945455-41.890909 416.116364 416.116364 0 0 1 550.167273 573.44 407.738182 407.738182 0 0 1-71.68 93.090909 23.272727 23.272727 0 0 1-16.290909 8.843637z" p-id="2072" fill="#5a5a5a"></path></svg>