<svg xmlns:xlink="http://www.w3.org/1999/xlink" xmlns="http://www.w3.org/2000/svg" version="1.1" viewBox="0 0 1024 1024" height="1024px" width="1024px">
    <title>暂无提现记录</title>
    <defs>
        <linearGradient id="linearGradient-1" y2="0%" x2="50%" y1="100%" x1="50%">
            <stop offset="0%" stop-opacity="0.1" stop-color="#FFFFFF"></stop>
            <stop offset="13%" stop-opacity="0.19" stop-color="#FBFDFF"></stop>
            <stop offset="41%" stop-opacity="0.43" stop-color="#F1F7FF"></stop>
            <stop offset="81%" stop-opacity="0.82" stop-color="#DBDBDB"></stop>
            <stop offset="100%" stop-color="#DBDBDB"></stop>
        </linearGradient>
        <linearGradient id="linearGradient-2" y2="-44.1493651%" x2="49.936589%" y1="100.010635%" x1="49.936589%">
            <stop offset="0%" stop-color="#F8F8F9"></stop>
            <stop offset="100%" stop-color="#E2E3E4"></stop>
        </linearGradient>
        <linearGradient id="linearGradient-3" y2="100.079736%" x2="47.4143565%" y1="9.74361973%" x1="51.9189726%">
            <stop offset="0%" stop-color="#F4F5F5"></stop>
            <stop offset="100%" stop-color="#B3B5B9"></stop>
        </linearGradient>
        <linearGradient id="linearGradient-4" y2="99.8533457%" x2="51.7922644%" y1="7.4888973%" x1="49.2355911%">
            <stop offset="0%" stop-color="#F3F4F4"></stop>
            <stop offset="100%" stop-color="#B3B5B9"></stop>
        </linearGradient>
        <linearGradient id="linearGradient-5" y2="41.7845772%" x2="50%" y1="57.0443653%" x1="33.7644974%">
            <stop offset="0%" stop-opacity="0" stop-color="#FFF3F2"></stop>
            <stop offset="100%" stop-color="#FFEAAB"></stop>
        </linearGradient>
        <linearGradient id="linearGradient-6" y2="85.7182449%" x2="57.0460385%" y1="6.96642725%" x1="50%">
            <stop offset="0%" stop-color="#E1AC0F"></stop>
            <stop offset="100%" stop-color="#F1C646"></stop>
        </linearGradient>
        <linearGradient id="linearGradient-7" y2="73.5171371%" x2="50%" y1="0%" x1="50%">
            <stop offset="0%" stop-color="#F0AC24"></stop>
            <stop offset="100%" stop-color="#FAD76F"></stop>
        </linearGradient>
        <linearGradient id="linearGradient-8" y2="59.8441599%" x2="0%" y1="66.531028%" x1="79.2409326%">
            <stop offset="0%" stop-color="#FFD16B"></stop>
            <stop offset="100%" stop-color="#F1B22F"></stop>
        </linearGradient>
        <linearGradient id="linearGradient-9" y2="58.5146683%" x2="0%" y1="64.2984492%" x1="79.2409326%">
            <stop offset="0%" stop-color="#FFD16B"></stop>
            <stop offset="100%" stop-color="#F1B22F"></stop>
        </linearGradient>
        <linearGradient id="linearGradient-10" y2="59.8441232%" x2="0%" y1="66.5309665%" x1="79.2409326%">
            <stop offset="0%" stop-color="#FECF65"></stop>
            <stop offset="100%" stop-color="#F1B22F"></stop>
        </linearGradient>
        <linearGradient id="linearGradient-11" y2="58.5146346%" x2="0%" y1="64.2983927%" x1="79.2409326%">
            <stop offset="0%" stop-color="#FECF65"></stop>
            <stop offset="100%" stop-color="#F1B22F"></stop>
        </linearGradient>
        <linearGradient id="linearGradient-12" y2="59.8441232%" x2="0%" y1="70.7815596%" x1="85.5174824%">
            <stop offset="0%" stop-color="#FDCF64"></stop>
            <stop offset="100%" stop-color="#F1B22F"></stop>
        </linearGradient>
        <linearGradient id="linearGradient-13" y2="58.5146346%" x2="0%" y1="67.974926%" x1="85.5174824%">
            <stop offset="0%" stop-color="#FDCF64"></stop>
            <stop offset="100%" stop-color="#F1B22F"></stop>
        </linearGradient>
        <linearGradient id="linearGradient-14" y2="51.9617978%" x2="100%" y1="47.645987%" x1="1.31855467%">
            <stop offset="0%" stop-color="#F6C650"></stop>
            <stop offset="100%" stop-opacity="0.341527979" stop-color="#FAD76F"></stop>
        </linearGradient>
        <linearGradient id="linearGradient-15" y2="51.1202945%" x2="100%" y1="48.6557291%" x1="1.31855467%">
            <stop offset="0%" stop-color="#F6C650"></stop>
            <stop offset="100%" stop-opacity="0.341527979" stop-color="#FAD76F"></stop>
        </linearGradient>
        <linearGradient id="linearGradient-16" y2="59.8441232%" x2="0%" y1="70.7815596%" x1="85.5174824%">
            <stop offset="0%" stop-color="#FFD26B"></stop>
            <stop offset="100%" stop-color="#F1B22F"></stop>
        </linearGradient>
        <linearGradient id="linearGradient-17" y2="59.3168046%" x2="0%" y1="69.6683571%" x1="85.5174824%">
            <stop offset="0%" stop-color="#FFD26B"></stop>
            <stop offset="100%" stop-color="#F1B22F"></stop>
        </linearGradient>
        <linearGradient id="linearGradient-18" y2="59.862091%" x2="0%" y1="66.5611393%" x1="79.2409326%">
            <stop offset="0%" stop-color="#FED067"></stop>
            <stop offset="100%" stop-color="#F1B22F"></stop>
        </linearGradient>
        <linearGradient id="linearGradient-19" y2="58.5290808%" x2="0%" y1="64.3226517%" x1="79.2409326%">
            <stop offset="0%" stop-color="#FED067"></stop>
            <stop offset="100%" stop-color="#F1B22F"></stop>
        </linearGradient>
        <linearGradient id="linearGradient-20" y2="-2.96987539%" x2="0.581465918%" y1="-2.96987539%" x1="100%">
            <stop offset="0%" stop-color="#E2AE14"></stop>
            <stop offset="100%" stop-color="#F97B61"></stop>
        </linearGradient>
    </defs>
    <g fill-rule="evenodd" fill="none" stroke-width="1" stroke="none" id="暂无提现记录">
        <g transform="translate(0.000000, 151.000000)">
            <g fill-rule="nonzero" id="底部背景">
                <g opacity="0.407744635" fill="url(#linearGradient-1)" transform="translate(0.000000, 374.074219)" id="编组-2">
                    <ellipse ry="162.462891" rx="512.5" cy="162.462891" cx="512.5" id="椭圆形"></ellipse>
                </g>
                <g transform="translate(155.800000, 0.000000)" id="未开通电子签章">
                    <path opacity="0.7" fill="url(#linearGradient-2)" id="形状结合" d="M564.661111,107.512207 C563.522222,107.512207 562.383333,107.512207 561.244444,107.227783 C559.820833,107.512207 558.397222,107.512207 556.973611,107.512207 C535.05,107.512207 517.1125,89.8779297 517.1125,67.6928711 C517.1125,45.5078125 534.765278,28.157959 556.973611,28.157959 C559.536111,28.157959 562.098611,28.4423828 564.376389,28.7268066 C573.4875,11.661377 591.425,0 612.209722,0 C641.820833,0 666.022222,24.1760254 666.022222,53.7561035 L666.022222,53.7561035 L697.911111,53.7561035 C712.716667,53.7561035 724.959722,65.7019043 724.959722,80.4919434 C724.959722,95.2819824 713.001389,107.512207 697.911111,107.512207 L564.661111,107.512207 Z"></path>
                    <g transform="translate(-0.000000, 155.636719)" opacity="0.7794" id="编组备份-2">
                        <ellipse ry="5.4609375" rx="19.1333333" cy="84.6445312" cx="49.2" opacity="0.5988" fill="#9DA0A6" id="椭圆形_1_"></ellipse>
                        <path opacity="0.5765" fill="url(#linearGradient-3)" id="椭圆形_2_" d="M32.4365771,84.5550547 C37.7020449,86.7191895 63.3712005,49.0014127 66.9912096,39.1082254 C70.6112187,29.2150382 66.6621179,18.0852024 58.1057327,14.6844192 C49.5493475,11.2836361 39.6765954,16.5393919 36.0565863,26.7417413 C32.4365771,36.9440907 26.8420177,82.39092 32.4365771,84.5550547 Z"></path>
                        <path fill="url(#linearGradient-4)" id="椭圆形_3_" d="M33.7428567,81.8624181 C39.8558619,80.0690859 38.9389111,28.361341 35.8824085,16.7046818 C32.825906,5.04802246 22.7394476,-2.12530632 12.9586394,0.564691974 C3.17783117,3.25469027 -2.01822319,14.9113496 0.732629119,26.5680089 C3.48348143,38.224668 27.6298517,83.6557503 33.7428567,81.8624181 Z"></path>
                    </g>
                </g>
            </g>
            <polygon points="628 568.463396 380.04805 525 142 667.106475 392.143836 722" fill="url(#linearGradient-5)" id="路径-24"></polygon>
            <g transform="translate(372.000000, 128.052323)" id="笔录">
                <path fill="url(#linearGradient-6)" id="矩形" d="M20.8881112,36.0162027 L277.519179,69.6097485 C279.510637,69.8704345 281,71.5674645 281,73.575912 L281,432.805946 C281,435.015085 279.209139,436.805946 277,436.805946 C276.793774,436.805946 276.587856,436.789997 276.384089,436.758243 L19.7530214,396.765853 C17.8051923,396.462311 16.368932,394.784894 16.368932,392.813556 L16.368932,39.9823662 C16.368932,37.7732272 18.159793,35.9823662 20.368932,35.9823662 C20.5425427,35.9823662 20.7159691,35.9936689 20.8881112,36.0162027 Z"></path>
                <polygon points="255.668044 440.954797 272.710212 435.417023 262.505633 432.007461" fill="#F1C646" id="路径-56"></polygon>
                <polygon points="8.16720261 42.746253 24.9163182 37.2247228 17.7251337 43.6297946" fill="#E1AC0F" id="路径-57"></polygon>
                <path fill="url(#linearGradient-7)" id="矩形" d="M4.51917913,41.4863107 L261.150247,75.0798565 C263.141705,75.3405425 264.631068,77.0375725 264.631068,79.04602 L264.631068,438.276054 C264.631068,440.485193 262.840207,442.276054 260.631068,442.276054 C260.424842,442.276054 260.218924,442.260105 260.015157,442.228351 L3.38408932,402.235961 C1.43626024,401.932419 7.34684671e-15,400.255002 0,398.283664 L0,45.4524742 C1.50581534e-15,43.2433352 1.790861,41.4524742 4,41.4524742 C4.17361063,41.4524742 4.3470371,41.4637769 4.51917913,41.4863107 Z"></path>
                <polygon points="13.6407767 65.5102265 231.39108 90.2097439 240.07767 401.921867 20.0087618 381.711278" fill="#FFFFFF" id="路径-45"></polygon>
                <g stroke-linecap="round" transform="translate(5.307387, 0.000000)" id="编组-5">
                    <path transform="translate(42.545881, 45.484055) rotate(-56.000000) translate(-42.545881, -45.484055)" stroke="url(#linearGradient-8)" id="路径" d="M60.8151458,71.7456679 C70.5274635,66.5350048 79.6619216,57.2731253 79.6958822,47.6554171 C79.7512318,31.8788716 62.77802,19.1491369 41.785017,19.2224411 C20.792014,19.2963808 5.45136534,40.6895881 5.39588012,56.4661336"></path>
                    <path transform="translate(52.941007, 46.360193) rotate(-56.000000) translate(-52.941007, -46.360193)" stroke="url(#linearGradient-9)" id="路径" d="M71.424541,71.8300445 C81.1368588,66.6193814 91.6479105,58.941025 91.6818711,49.3233168 C91.7372206,33.5467713 74.7640088,20.8170366 53.7710059,20.8903408 C32.7780029,20.9642805 14.2556273,36.9355301 14.2001421,52.7120756"></path>
                </g>
                <g stroke-linecap="round" transform="translate(92.608474, 13.675398)" id="编组-5">
                    <path transform="translate(42.545806, 45.483990) rotate(-56.000000) translate(-42.545806, -45.483990)" stroke="url(#linearGradient-10)" id="路径" d="M60.815056,71.7455336 C70.527366,66.5348844 79.6618166,57.2730296 79.6957772,47.6553471 C79.7511266,31.8788437 62.7779286,19.149143 41.7849426,19.2224471 C20.7919566,19.2963867 5.45132038,40.6895369 5.39583525,56.4660403"></path>
                    <path transform="translate(52.940932, 46.360129) rotate(-56.000000) translate(-52.940932, -46.360129)" stroke="url(#linearGradient-11)" id="路径" d="M71.4244517,71.8299102 C81.1367619,66.6192614 91.6478055,58.9409261 91.681766,49.3232444 C91.7371155,33.5467423 74.7639169,20.8170427 53.7709302,20.8903468 C32.7779435,20.9642864 14.2555823,36.935492 14.2000972,52.7119941"></path>
                </g>
                <g stroke-linecap="round" transform="translate(179.909445, 27.350668)" id="编组-5">
                    <path transform="translate(42.545806, 45.483990) rotate(-56.000000) translate(-42.545806, -45.483990)" stroke="url(#linearGradient-12)" id="路径" d="M60.815056,71.7455336 C70.527366,66.5348844 79.6618166,57.2730296 79.6957772,47.6553471 C79.7511266,31.8788437 62.7779286,19.149143 41.7849426,19.2224471 C20.7919566,19.2963867 5.45132038,40.6895369 5.39583525,56.4660403"></path>
                    <path transform="translate(52.940932, 46.360129) rotate(-56.000000) translate(-52.940932, -46.360129)" stroke="url(#linearGradient-13)" id="路径" d="M71.4244517,71.8299102 C81.1367619,66.6192614 91.6478055,58.9409261 91.681766,49.3232444 C91.7371155,33.5467423 74.7639169,20.8170427 53.7709302,20.8903468 C32.7779435,20.9642864 14.2555823,36.935492 14.2000972,52.7119941"></path>
                </g>
                <polygon points="76.902898 82.2473023 92.4187868 82.2544769 92.4241677 93.9420242 76.9082789 93.9348496" transform="translate(84.663533, 88.094663) rotate(6.000000) translate(-84.663533, -88.094663)" fill="#F1B22F" id="矩形备份-13"></polygon>
                <polygon points="160.296747 97.8314528 175.812636 97.8386274 175.818017 109.526175 160.302128 109.519" transform="translate(168.057382, 103.678814) rotate(6.000000) translate(-168.057382, -103.678814)" fill="#F1B22F" id="矩形备份-16"></polygon>
                <polygon points="203.933063 105.623528 219.448952 105.630703 219.454333 117.31825 203.938444 117.311075" transform="translate(211.693698, 111.470889) rotate(6.000000) translate(-211.693698, -111.470889)" fill="#F1B22F" id="矩形备份-17"></polygon>
                <polygon points="43.6504854 122.94636 43.6504854 140.867353 147.320388 153.031954 147.320388 136.789231" fill="url(#linearGradient-14)" id="路径-50"></polygon>
                <polygon points="43.6504854 174.912386 43.6504854 194.757332 218.252427 213.203142 218.252427 194.757332" fill="url(#linearGradient-15)" id="路径-51"></polygon>
                <polygon points="43.6504854 224.143358 43.6504854 243.988304 218.252427 262.434114 218.252427 243.988304" fill="url(#linearGradient-15)" id="路径-51备份"></polygon>
                <path fill="#FDEEC1" id="路径-52" d="M23.6713944,287.049599 C20.028074,328.905972 12.138999,353.472082 0.00416932859,360.747932 C-0.632759827,361.454406 71.7058645,372.443997 217.020042,393.716705 L237.349515,287.049599 L23.6713944,287.049599 Z"></path>
                <path fill="#FFFFFF" id="路径-52" d="M20.803565,281.579492 C19.0810068,323.074149 12.1479042,347.503522 0.0042570884,354.867608 C-0.633134875,355.582651 70.3045398,366.70898 212.817281,388.246597 L237.349515,281.579492 L20.803565,281.579492 Z"></path>
                <polygon points="43.6504854 270.639276 43.6504854 290.484222 218.252427 308.930031 218.252427 290.484222" fill="url(#linearGradient-15)" id="路径-51备份-2"></polygon>
                <polygon points="29.3877979 74.4552271 44.9036867 74.4624017 44.9090677 86.149949 29.3931789 86.1427744" transform="translate(37.148433, 80.302588) rotate(6.000000) translate(-37.148433, -80.302588)" fill="#F1B22F" id="矩形"></polygon>
                <polygon points="116.660431 90.0393776 132.176319 90.0465521 132.1817 101.734099 116.665812 101.726925" transform="translate(124.421066, 95.886738) rotate(6.000000) translate(-124.421066, -95.886738)" fill="#F1B22F" id="矩形备份-15"></polygon>
                <g stroke-linecap="round" transform="translate(51.686144, 8.204769)" id="编组-5">
                    <path transform="translate(42.545806, 45.484512) rotate(-56.000000) translate(-42.545806, -45.484512)" stroke="url(#linearGradient-16)" id="路径" d="M60.815056,71.7460553 C70.527366,66.5354061 79.6618166,57.2735513 79.6957772,47.6558688 C79.7511266,31.8793654 62.7779286,19.1496647 41.7849426,19.2229688 C20.7919566,19.2969083 5.45132038,40.6900585 5.39583525,56.4665619"></path>
                    <path transform="translate(53.913382, 47.016254) rotate(-56.000000) translate(-53.913382, -47.016254)" stroke="url(#linearGradient-17)" id="路径" d="M69.3843969,73.6589826 C79.0967741,68.4483194 92.6205226,58.4242088 92.6544833,48.8065006 C92.7098331,33.0299551 75.7365174,20.3002205 54.7433859,20.3735249 C33.7502544,20.4474647 15.2277655,36.4187145 15.1722801,52.19526"></path>
                </g>
                <g stroke-linecap="round" transform="translate(136.280539, 24.596701)" id="编组-5">
                    <path transform="translate(41.315095, 44.160681) rotate(-56.000000) translate(-41.315095, -44.160681)" stroke="url(#linearGradient-18)" id="路径" d="M59.0626522,69.6739168 C68.4868325,64.6197043 77.3472989,55.6303261 77.3736061,46.2890919 C77.4165376,30.9660643 60.9318651,18.5905657 40.5539753,18.6474454 C20.1760856,18.7047184 5.29959886,39.4724566 5.25658327,54.7954841"></path>
                    <path transform="translate(51.416033, 45.012184) rotate(-56.000000) translate(-51.416033, -45.012184)" stroke="url(#linearGradient-19)" id="路径" d="M69.3723574,69.7559428 C78.7965378,64.7017305 88.9943543,57.2513053 89.0206615,47.9100714 C89.0635931,32.5870445 72.5789203,20.2115464 52.2010302,20.2684261 C31.8231401,20.325699 13.8544191,35.8251403 13.8114035,51.1481672"></path>
                </g>
            </g>
            <g fill-rule="nonzero" transform="translate(319.001790, 331.000000)" id="人物">
                <path transform="translate(42.862473, 186.791613) rotate(13.000000) translate(-42.862473, -186.791613)" fill="#333333" id="路径" d="M34.4598288,186.72522 C34.512467,188.765782 34.0536915,189.786362 34.7200846,190.776239 C35.3864776,191.766117 38.1570899,192.674598 39.5073185,192.004049 C41.2190661,191.153963 44.0785546,189.498107 44.8927345,189.049327 C45.7069144,188.600546 51.2268381,185.373143 51.3661143,183.340482 C51.50539,181.307822 48.3089526,180.706181 44.5384913,182.118916 C40.7680302,183.531651 35.5180435,186.014361 35.5180435,186.014361 L34.4598288,186.72522 Z"></path>
                <path transform="translate(8.590978, 178.498484) rotate(14.000000) translate(-8.590978, -178.498484)" fill="#333333" id="路径" d="M1.04619969,177.626709 C1.11869895,181.247107 0.608258007,182.133438 1.73433813,183.278361 C2.86041826,184.423284 8.74316895,181.353231 9.38201389,180.983197 C10.0208588,180.613163 15.8214794,176.983549 16.1595704,175.380777 C16.4976613,173.778004 13.9418163,172.936792 11.3232879,173.824596 C8.97376247,174.622229 5.36107045,175.259841 5.36107045,175.259841 L1.04619969,177.626709 Z"></path>
                <path fill="#000000" id="路径" d="M12.1953067,87.4366197 C12.1953067,87.4366197 10.0886842,90.994786 9.23083277,102.081826 C8.37298133,113.168866 13.4549366,139.385848 9.95837762,146.161833 C6.46181863,152.93782 0.372577306,173.707464 0.372577306,173.707464 C0.372577306,173.707464 -1.2379897,184.885545 8.65444894,178.214475 C13.4757912,167.282137 21.3384827,154.319832 23.3582341,147.832625 C25.3779856,141.345418 30.4165054,100.668873 30.4165054,100.668873 L12.1953067,87.4366197 Z"></path>
                <path fill="#000000" id="路径" d="M19.4561043,96.1725347 C19.4561043,96.1725347 20.3640696,100.584415 22.5870193,111.520908 C24.809969,122.457401 37.9911212,146.484545 36.6030822,153.982672 C35.2150432,161.480797 35.3512044,183.082362 35.3512044,183.082362 C35.3512044,183.082362 36.6030822,194.035149 43.8459323,184.894755 C45.3174624,173.088313 49.5024521,158.891666 49.5963796,152.097783 C49.6903072,145.303901 41.7586556,95.6338028 41.7586556,95.6338028 L19.4561043,96.1725347 Z"></path>
                <path fill="#EFBA9E" id="路径" d="M60.5576084,26.4080575 C62.9228045,24.9199 61.8936999,23.4907443 66.0345372,21.1831167 C68.5253188,19.7932956 69.5447225,21.638742 71.3517598,21.1831167 C73.1587975,20.7274914 75.5789733,18.3657752 76.8069219,19.3753622 C77.4627579,19.9194903 76.5313894,20.5887774 72.4603223,23.5159242 C72.4603223,23.5159242 66.8787516,27.0694899 66.0345372,27.1645484 C65.1903229,27.2596069 62.3646461,30.056338 62.3646461,30.056338 L60.5576084,26.4080575 Z"></path>
                <path fill="#EBB0B0" id="路径" d="M19.4561043,26.9740842 C20.8017828,24.4344272 21.3502584,20.6249415 20.6678527,18.6529725 C19.985447,16.6810035 17.9254747,6.36924879 24.7431539,3.4299692 C31.5608332,0.490689607 36.895715,7.30294622 35.7381764,15.2020267 C34.5806377,23.1011072 33.8918545,27.4782809 32.1029311,27.7583901 C30.3140078,28.0384993 29.6048113,30.7699561 29.2125875,32.4394071 C28.8203637,34.1088582 21.2450276,29.252306 21.2450276,29.252306 L19.4561043,28.5651047 L19.4561043,26.9740842 Z"></path>
                <path fill="url(#linearGradient-20)" id="路径" d="M61.8899645,24.7194964 C39.1497531,38.5692797 38.5628448,42.1573399 30.1305966,37.731851 C21.6983484,33.3063621 21.1095058,30.7125171 21.1095058,30.7125171 L13.9759037,45.7081511 C13.9759037,45.7081511 15.94069,50.8426361 28.8725688,54.2567686 C41.8044476,57.670901 58.7711201,37.731851 64.2322625,33.3224213 C68.7071825,29.7092859 63.673901,23.6340599 61.8899645,24.7194964 Z"></path>
                <path fill="#BE8512" id="路径" d="M19.2314781,24.6062601 C22.7799551,24.9842689 33.122877,24.6062601 40.7235093,45.3810848 C44.2235912,54.9478664 37.1182627,77.7710723 43.4954677,90.9014955 C45.7436451,95.5294044 41.5092778,98.3261741 36.9348774,98.3261741 C31.4084298,98.3261741 9.25844929,99.3614309 6.43887436,90.9014955 C4.9899734,86.5487061 6.26951154,58.1291052 6.43887436,55.480018 C7.41305809,40.2423317 13.8623363,24.0343012 19.2314781,24.6062601 Z"></path>
                <path fill="#EFBA9E" id="路径" d="M41.0473686,71.0422535 C41.0473686,71.0422535 40.799864,74.7708067 40.4639647,75.8918096 C39.6840317,76.862284 38.7591322,77.7400313 37.7131269,78.502406 C35.803805,79.9523989 32.9716442,79.4375901 33.1661122,81.0429397 C33.3605802,82.6482889 35.4466911,81.1617414 39.6471993,81.7283354 C43.2148026,82.3924075 43.9467093,81.487685 43.9467093,81.487685 C43.9467093,81.487685 44.0598543,78.2648021 44.112891,76.4858191 C44.2472507,72.0871013 41.0473686,71.0422535 41.0473686,71.0422535 Z"></path>
                <path fill="#F3B736" id="路径" d="M26.4094603,46.1304213 C29.6988824,55.1989143 46.3666906,73.613399 46.3666906,73.613399 C46.3666906,73.613399 41.1679988,72.810204 40.1465643,76.3088099 C39.3368087,79.0771562 39.7408068,80.965782 43.6753453,81.6329738 C49.6997926,82.6586559 57.8175082,81.4004655 57.8175082,77.2480986 C57.8175082,63.1260795 40.1265626,38.3597137 36.9184222,36.1311808 C24.3435404,27.396046 23.3115573,37.5797489 26.4094603,46.1304213 Z"></path>
                <path fill="#131322" id="路径" d="M33.1778808,0.0802987333 C40.2522806,0.972619308 39.0857096,6.79662943 37.191343,9.87672719 C35.2969764,12.9568249 35.1986997,11.9290584 32.5825083,13.4819143 C32.5825083,13.4819143 32.1613681,12.859324 31.4530986,17.1753029 L30.188003,17.5541524 C29.716953,17.6726177 30.3797565,16.6420561 29.7087643,16.0945544 C29.0377723,15.5470526 26.7977431,16.9206097 27.6686773,18.8416686 C28.5396115,20.7627274 28.5328337,20.2184274 28.5328337,20.2184274 C28.5328337,20.2184274 26.7367438,22.1586968 25.6895894,21.8193098 C24.6424351,21.4799227 18.7907682,21.0676671 18.5298268,19.3387142 C18.2688854,17.6097612 16.3920318,15.5912281 16.7648052,10.9550727 C17.1375786,6.31891734 22.6381372,1.86493988 25.8386988,0.972619308 C29.0392603,0.0802987333 31.4123841,-0.142389992 33.1778808,0.0802987333 Z"></path>
            </g>
        </g>
    </g>
</svg>