<svg xmlns:xlink="http://www.w3.org/1999/xlink" xmlns="http://www.w3.org/2000/svg" version="1.1" viewBox="0 0 1024 1024" height="1024px" width="1024px">
    <title>暂无消费</title>
    <defs>
        <linearGradient id="linearGradient-1" y2="0%" x2="50%" y1="100%" x1="50%">
            <stop offset="0%" stop-opacity="0.1" stop-color="#FFFFFF"></stop>
            <stop offset="13%" stop-opacity="0.19" stop-color="#FBFDFF"></stop>
            <stop offset="41%" stop-opacity="0.43" stop-color="#F1F7FF"></stop>
            <stop offset="81%" stop-opacity="0.82" stop-color="#DBDBDB"></stop>
            <stop offset="100%" stop-color="#DBDBDB"></stop>
        </linearGradient>
        <linearGradient id="linearGradient-2" y2="-44.1493651%" x2="49.936589%" y1="100.010635%" x1="49.936589%">
            <stop offset="0%" stop-color="#F8F8F9"></stop>
            <stop offset="100%" stop-color="#E2E3E4"></stop>
        </linearGradient>
        <linearGradient id="linearGradient-3" y2="100.079736%" x2="47.4193992%" y1="9.74361973%" x1="51.9152301%">
            <stop offset="0%" stop-color="#F4F5F5"></stop>
            <stop offset="100%" stop-color="#B3B5B9"></stop>
        </linearGradient>
        <linearGradient id="linearGradient-4" y2="99.8533457%" x2="51.788769%" y1="7.4888973%" x1="49.2370819%">
            <stop offset="0%" stop-color="#F3F4F4"></stop>
            <stop offset="100%" stop-color="#B3B5B9"></stop>
        </linearGradient>
        <linearGradient id="linearGradient-5" y2="38.1665449%" x2="50%" y1="60.1466695%" x1="33.7644974%">
            <stop offset="0%" stop-opacity="0" stop-color="#FFF3F2"></stop>
            <stop offset="100%" stop-color="#FFEAAB"></stop>
        </linearGradient>
        <linearGradient id="linearGradient-6" y2="38.9917186%" x2="100%" y1="53.8683344%" x1="12.8154752%">
            <stop offset="0%" stop-color="#F0AC24"></stop>
            <stop offset="100%" stop-color="#F0AF28"></stop>
        </linearGradient>
        <linearGradient id="linearGradient-7" y2="50%" x2="95.3682009%" y1="27.3244458%" x1="6.3191802%">
            <stop offset="0%" stop-color="#FAD76F"></stop>
            <stop offset="100%" stop-color="#F0AF28"></stop>
        </linearGradient>
        <linearGradient id="linearGradient-8" y2="30.4810963%" x2="50%" y1="87.0084871%" x1="-13.3288461%">
            <stop offset="0%" stop-color="#868686"></stop>
            <stop offset="100%" stop-color="#3F3F3F"></stop>
        </linearGradient>
        <linearGradient id="linearGradient-9" y2="-2.96987539%" x2="0.581465918%" y1="-2.96987539%" x1="100%">
            <stop offset="0%" stop-color="#E69C05"></stop>
            <stop offset="100%" stop-color="#FFB859"></stop>
        </linearGradient>
        <linearGradient id="linearGradient-10" y2="-2.80504909%" x2="-2.70574742e-12%" y1="-2.80504909%" x1="86.2750219%">
            <stop offset="0%" stop-color="#010101"></stop>
            <stop offset="30%" stop-color="#2C2422"></stop>
            <stop offset="50%" stop-color="#42352C"></stop>
            <stop offset="70%" stop-color="#57352C"></stop>
            <stop offset="100%" stop-color="#923629"></stop>
        </linearGradient>
    </defs>
    <g fill-rule="evenodd" fill="none" stroke-width="1" stroke="none" id="暂无消费">
        <g transform="translate(0.000000, 163.000000)">
            <g fill-rule="nonzero" id="底部背景备份">
                <g opacity="0.407744635" fill="url(#linearGradient-1)" transform="translate(0.000000, 374.074219)" id="编组-2">
                    <ellipse ry="162.462891" rx="512" cy="162.462891" cx="512" id="椭圆形"></ellipse>
                </g>
                <g transform="translate(155.648000, 0.000000)" id="未开通电子签章">
                    <path opacity="0.7" fill="url(#linearGradient-2)" id="形状结合" d="M564.110222,107.512207 C562.972444,107.512207 561.834667,107.512207 560.696889,107.227783 C559.274667,107.512207 557.852444,107.512207 556.430222,107.512207 C534.528,107.512207 516.608,89.8779297 516.608,67.6928711 C516.608,45.5078125 534.243556,28.157959 556.430222,28.157959 C558.990222,28.157959 561.550222,28.4423828 563.825778,28.7268066 C572.928,11.661377 590.848,0 611.612444,0 C641.194667,0 665.372444,24.1760254 665.372444,53.7561035 L665.372444,53.7561035 L697.230222,53.7561035 C712.021333,53.7561035 724.252444,65.7019043 724.252444,80.4919434 C724.252444,95.2819824 712.305778,107.512207 697.230222,107.512207 L564.110222,107.512207 Z"></path>
                    <g transform="translate(0.000000, 155.636719)" opacity="0.7794" id="编组备份-2">
                        <ellipse ry="5.4609375" rx="19.1146667" cy="84.6445312" cx="49.152" opacity="0.5988" fill="#9DA0A6" id="椭圆形_1_"></ellipse>
                        <path opacity="0.5765" fill="url(#linearGradient-3)" id="椭圆形_2_" d="M32.4049317,84.5550547 C37.6652625,86.7191895 63.3093749,49.0014127 66.9258523,39.1082254 C70.5423297,29.2150382 66.5970817,18.0852024 58.0490442,14.6844192 C49.5010067,11.2836361 39.6378865,16.5393919 36.0214091,26.7417413 C32.4049317,36.9440907 26.8158304,82.39092 32.4049317,84.5550547 Z"></path>
                        <path fill="url(#linearGradient-4)" id="椭圆形_3_" d="M33.7099369,81.8624181 C39.8169781,80.0690859 38.9009219,28.361341 35.8474013,16.7046818 C32.7938807,5.04802246 22.7172628,-2.12530632 12.9459968,0.564691974 C3.17473085,3.25469027 -2.0162542,14.9113496 0.731914359,26.5680089 C3.48008291,38.224668 27.6028957,83.6557503 33.7099369,81.8624181 Z"></path>
                    </g>
                </g>
            </g>
            <polygon points="542 537.446767 482.547615 535 320 616.797617 446.772022 643" fill="url(#linearGradient-5)" id="路径-24"></polygon>
            <polygon points="404.603763 252 607.402909 252 679 331.3044 679 380.310728 541.801881 538 477.980724 538 334 380.310728 334 331.3044" fill="url(#linearGradient-6)" id="路径-54"></polygon>
            <polygon points="417.603763 232 620.402909 232 692 311.3044 692 360.310728 554.801881 518 490.980724 518 347 360.310728 347 311.3044" fill="url(#linearGradient-7)" id="路径-54"></polygon>
            <g fill-rule="nonzero" fill="#FFFFFF" transform="translate(470.902000, 305.605000)" id="¥">
                <path id="路径" d="M80.995,41.75 C82.665,41.75 83.9731667,42.2788333 84.9195,43.3365 C85.8658333,44.3941667 86.339,45.8136667 86.339,47.595 L86.339,59.786 C86.339,61.5673333 85.8658333,62.9868333 84.9195,64.0445 C83.9731667,65.1021667 82.665,65.631 80.995,65.631 L60.955,65.631 L60.955,76.653 L80.995,76.653 C82.665,76.653 83.9731667,77.1818333 84.9195,78.2395 C85.8658333,79.2971667 86.339,80.7166667 86.339,82.498 L86.339,94.522 C86.339,96.4146667 85.8658333,97.8898333 84.9195,98.9475 C83.9731667,100.005167 82.665,100.534 80.995,100.534 L60.955,100.534 L60.955,122.745 C60.955,124.526333 60.4818333,125.945833 59.5355,127.0035 C58.5891667,128.061167 57.281,128.59 55.611,128.59 L41.082,128.59 C39.412,128.59 38.1038333,128.061167 37.1575,127.0035 C36.2111667,125.945833 35.738,124.526333 35.738,122.745 L35.738,100.534 L15.531,100.534 C13.861,100.534 12.5528333,100.005167 11.6065,98.9475 C10.6601667,97.8898333 10.187,96.4146667 10.187,94.522 L10.187,82.498 C10.187,80.7166667 10.6601667,79.2971667 11.6065,78.2395 C12.5528333,77.1818333 13.861,76.653 15.531,76.653 L35.738,76.653 L35.738,65.631 L15.531,65.631 C13.861,65.631 12.5528333,65.1021667 11.6065,64.0445 C10.6601667,62.9868333 10.187,61.5673333 10.187,59.786 L10.187,47.595 C10.187,45.8136667 10.6045,44.3941667 11.4395,43.3365 C12.2745,42.2788333 13.4713333,41.75 15.03,41.75 L19.706,41.75 L1.002,7.014 C0.334,5.78933333 -5.68434189e-14,4.676 -5.68434189e-14,3.674 C-5.68434189e-14,2.56066667 0.389666667,1.67 1.169,1.002 C1.94833333,0.334 3.06166667,0 4.509,0 L22.378,0 C25.1613333,0 27.2766667,1.28033333 28.724,3.841 L48.597,40.915 L69.305,3.841 C70.8636667,1.28033333 72.979,0 75.651,0 L93.52,0 C94.9673333,0 96.1085,0.334 96.9435,1.002 C97.7785,1.67 98.196,2.56066667 98.196,3.674 C98.196,4.676 97.862,5.78933333 97.194,7.014 L77.822,41.75 L80.995,41.75 Z"></path>
            </g>
            <g fill-rule="nonzero" transform="translate(470.000000, 115.000000)" id="人物">
                <path fill="#EBB0B0" id="形状结合" d="M44.1288916,8.27409416 C47.2711088,8.56926644 50.181225,10.0651924 52.2600454,12.4538598 C52.9069011,13.171635 53.4512963,13.9758889 53.8779778,14.8434085 L53.9074856,14.9059143 L53.8237291,14.4763271 C54.8193078,14.759779 55.2462283,16.5369362 55.2738498,18.6953747 L55.2747314,18.7863665 C57.6731926,18.1325564 59.3829197,25.4626202 54.1667981,25.6547973 C53.9798583,26.143459 53.7748181,26.5611271 53.555669,26.880793 C52.237606,28.803408 50.7980249,31.2638992 48.7529422,32.7475398 L48.7709236,38.1257462 L38.103763,38.2758427 L38.1493917,31.9597549 C37.2898298,31.2564726 36.54216,30.3956879 35.9530612,29.3976412 C35.1741812,28.216913 34.5301935,26.9609069 34.027835,25.6534367 L34.2377757,25.6424148 C28.0144922,26.0791127 30.1028411,17.5451811 32.7287219,18.8887744 C32.7247469,18.6023531 32.7273611,18.3147708 32.7363411,18.0268808 C32.9846026,15.650016 33.9513711,13.4068829 35.5062945,11.5999292 C37.6562731,9.12416445 40.8846829,7.87892955 44.1288916,8.27409416 Z M54.146529,16.1265634 L54.1500473,16.211088 C54.1662501,16.637221 54.1900777,17.0590927 54.4045257,17.4426124 L54.146529,16.1265634 Z M53.9074856,14.9059143 L54.146529,16.1265634 L54.143971,16.051155 C54.1332485,15.7844889 54.1165692,15.5178229 54.0492566,15.2594797 L54.0024354,15.1055392 L53.9074856,14.9059143 Z"></path>
                <path fill="#131322" id="路径" d="M57.3975357,21.8729222 C60.9596633,18.2982993 62.2551908,6.35658133 55.5131739,3.33680292 C54.7594423,2.38240827 53.1566182,2.12921301 51.0020984,2.09654943 C49.4384675,2.05456062 49.2623654,2.67431333 48.4631858,2.52842694 C47.6640062,2.38254057 46.4873485,0.418430427 43.4465826,0.0297758583 C41.8012128,-0.213368106 36.8329041,1.06956316 35.7516611,2.52842694 C33.6322485,4.17786653 30.8773087,8.19201423 30.2613466,13.2267614 C29.6273738,18.270574 32.1322125,20.7745602 34.2189846,24.6058989 C36.1464177,23.3415503 36.6165234,20.4238227 37.9798297,18.5272998 C39.8698152,16.225739 42.251888,14.4109847 44.9373934,13.2267614 C50.7145355,12.3483904 53.4819592,12.3483904 56.0831804,17.7672999 C56.0831804,17.7672999 56.5212988,19.1358407 57.3975357,21.8729222 Z"></path>
                <path fill="#BE8512" id="路径" d="M38.426917,35.5418539 C40.1285469,36.5886048 42.12896,38.3498833 44.0459933,38.3866115 C45.495829,38.4692786 47.4740461,36.4049156 48.7384341,35.5418539 C54.5558472,35.8127754 65.1026136,38.7528809 74.0322581,45.5082934 C74.0322581,71.6288819 71.4025779,76.283623 67.9909829,90.9860928 C67.8974216,91.6295027 58.2386613,108.369267 56.3888923,109.310426 C49.1433643,112.969315 43.5415408,112.284913 35.6042155,111.356896 C34.057136,111.168664 25.2286933,103.518416 24.0683836,102.384434 C23.1392951,101.46623 18.5135891,91.4176363 17.462584,88.649251 C16.4115789,85.8808657 14.8111308,80.8782349 14.6892142,77.880298 C14.3655046,69.9056953 13.8227082,56.3940714 13.7096774,46.3888184 C20.367626,36.7285387 31.2212261,37.5344082 38.426917,35.5418539 Z"></path>
                <rect rx="4" height="24.6058989" width="19.1935484" y="41.0098315" x="32.9032258" fill="url(#linearGradient-8)" id="矩形"></rect>
                <path transform="translate(35.395620, 62.620679) rotate(-31.000000) translate(-35.395620, -62.620679)" fill="#EFBA9E" id="路径-109" d="M29.6962906,60.9454652 C32.4602689,58.5797289 35.1729346,57.0006105 37.8342875,56.2080527 C40.0362354,56.2007644 39.585613,56.9083645 38.455177,57.2374833 C39.5622616,57.5386509 44.6674707,58.6144503 41.8400888,65.7600581 C39.6399366,67.7309234 34.3361179,70.3299928 29.9237882,68.2906704 C27.5822091,66.7615342 27.5063765,64.3131321 29.6962906,60.9454652 Z"></path>
                <path fill="url(#linearGradient-9)" id="路径-2" d="M13.7837655,45.1645815 C17.6379147,40.1467525 21.3624813,39.674072 24.9574652,43.7465399 C29.0381504,47.9553741 27.3328602,75.1157971 24.9574652,91.8995841 C19.4162615,99.1681605 12.4875893,94.7827663 10.6274431,88.7755383 C6.59067293,70.2617687 7.64278039,55.7247832 13.7837655,45.1645815 Z"></path>
                <path fill="#E89F2A" id="路径-3" d="M14.1231063,85.479152 C15.7871074,77.3712669 20.6146914,69.9799794 28.6058585,63.3052885 C31.4943885,62.1666034 34.7703172,63.2546048 35.5448069,67.4137712 C36.3669632,69.9404306 32.1516841,90.1376176 22.3744442,95.3284298 C15.3361415,96.8494541 12.5856956,93.5663617 14.1231063,85.479152 Z"></path>
                <path transform="translate(52.963980, 62.620679) scale(-1, 1) rotate(-31.000000) translate(-52.963980, -62.620679)" fill="#EFBA9E" id="路径-109" d="M47.2646511,60.9454654 C50.0286295,58.5797291 52.7412952,57.0006107 55.4026482,56.2080529 C57.6045962,56.2007647 57.1539735,56.9083647 56.0235377,57.2374835 C57.130622,57.5386512 62.235831,58.6144506 59.4084495,65.7600583 C57.208297,67.7309236 51.9044784,70.3299931 47.4921488,68.2906707 C45.1505696,66.7615345 45.0747371,64.3131324 47.2646511,60.9454654 Z"></path>
                <path transform="translate(72.661290, 68.349719) scale(-1, 1) translate(-72.661290, -68.349719)" fill="url(#linearGradient-9)" id="路径-2" d="M68.6224751,45.1645815 C72.4766242,40.1467525 76.201191,39.674072 79.796175,43.7465399 C83.87686,47.9553741 82.1715698,75.1157971 79.796175,91.8995841 C74.2549712,99.1681605 67.3262991,94.7827663 65.4661526,88.7755383 C61.4293828,70.2617687 62.48149,55.7247832 68.6224751,45.1645815 Z"></path>
                <path transform="translate(63.064516, 79.285674) scale(-1, 1) translate(-63.064516, -79.285674)" fill="#E89F2A" id="路径-3" d="M52.5102031,85.479152 C54.1742042,77.3712669 59.0017882,69.9799794 66.9929554,63.3052885 C69.8814852,62.1666034 73.1574139,63.2546048 73.9319036,67.4137712 C74.7540601,69.9404306 70.538781,90.1376176 60.7615408,95.3284298 C53.7232383,96.8494541 50.9727923,93.5663617 52.5102031,85.479152 Z"></path>
                <path fill="url(#linearGradient-10)" id="路径-4" d="M8.35298711,122.293495 C3.12826106,104.283477 5.03929415,95.417632 14.0860864,95.6959605 L37.5668493,108.099449 C43.0700819,111.705061 48.2159013,111.705061 53.0043074,108.099449 C60.18766,102.323948 67.9894843,98.1894517 76.4097803,95.6959605 C87.5407609,96.6764713 87.8543178,106.698979 77.3504504,125.763483 C65.8823963,125.382138 43.8191017,125.382138 11.1605667,125.763483 C9.93635459,125.23916 9.00049474,124.082497 8.35298711,122.293495 Z"></path>
                <path transform="translate(28.625069, 172.255101) scale(-1, 1) rotate(94.000000) translate(-28.625069, -172.255101)" fill="#333333" id="路径" d="M18.4419226,172.165347 C18.5077473,174.651857 17.9527507,175.894993 18.7613689,177.101838 C19.569987,178.308684 22.9287275,179.418443 24.5644666,178.602714 C26.6381693,177.568577 30.1020721,175.553737 31.0883689,175.007703 C32.0746658,174.461668 38.7613129,170.534524 38.9280862,168.057832 C39.0948595,165.581141 35.220346,164.844847 30.6521503,166.562531 C26.0839547,168.280215 19.7237161,171.300207 19.7237161,171.300207 L18.4419226,172.165347 Z"></path>
                <path transform="translate(57.605799, 172.255101) rotate(94.000000) translate(-57.605799, -172.255101)" fill="#333333" id="路径备份-2" d="M47.4226523,172.165347 C47.488477,174.651857 46.9334805,175.894993 47.7420986,177.101838 C48.5507167,178.308684 51.9094572,179.418443 53.5451965,178.602714 C55.618899,177.568577 59.0828016,175.553737 60.0690986,175.007703 C61.0553957,174.461668 67.7420428,170.534524 67.9088157,168.057832 C68.0755891,165.581141 64.2010755,164.844847 59.6328802,166.562531 C55.0646845,168.280215 48.7044459,171.300207 48.7044459,171.300207 L47.4226523,172.165347 Z"></path>
                <path fill="#000000" id="路径-5" d="M0.372141079,108.880294 C0.372141079,108.880294 -2.50691401,94.3524132 7.75086856,91.091154 C18.0086512,87.8298948 22.2885042,94.3942885 25.4829403,99.9857245 C26.4869549,105.327857 29.8743619,125.385016 35.6451613,160.157202 C32.019754,163.482237 27.3356425,164.671355 21.5928269,163.724557 C19.2530406,156.090091 0.372141079,108.880294 0.372141079,108.880294 Z"></path>
                <path transform="translate(67.177419, 127.130478) scale(-1, 1) translate(-67.177419, -127.130478)" fill="#000000" id="路径-5备份" d="M49.7269798,108.880294 C49.7269798,108.880294 46.8479247,94.3524132 57.1057075,91.091154 C67.3634899,87.8298948 71.6433432,94.3942885 74.8377789,99.9857245 C75.8417938,105.327857 79.2292005,125.385016 85,160.157202 C81.3745927,163.482237 76.690481,164.671355 70.9476656,163.724557 C68.6078793,156.090091 49.7269798,108.880294 49.7269798,108.880294 Z"></path>
            </g>
        </g>
    </g>
</svg>