<svg xmlns:xlink="http://www.w3.org/1999/xlink" xmlns="http://www.w3.org/2000/svg" version="1.1" viewBox="0 0 1024 1024" height="1024px" width="1024px">
    <title>请求成功</title>
    <defs>
        <linearGradient id="linearGradient-1" y2="0%" x2="50%" y1="100%" x1="50%">
            <stop offset="0%" stop-opacity="0.1" stop-color="#FFFFFF"></stop>
            <stop offset="13%" stop-opacity="0.19" stop-color="#FBFDFF"></stop>
            <stop offset="41%" stop-opacity="0.43" stop-color="#F1F7FF"></stop>
            <stop offset="81%" stop-opacity="0.82" stop-color="#DBDBDB"></stop>
            <stop offset="100%" stop-color="#DBDBDB"></stop>
        </linearGradient>
        <linearGradient id="linearGradient-2" y2="-44.1493651%" x2="49.936589%" y1="100.010635%" x1="49.936589%">
            <stop offset="0%" stop-color="#F8F8F9"></stop>
            <stop offset="100%" stop-color="#E2E3E4"></stop>
        </linearGradient>
        <linearGradient id="linearGradient-3" y2="100.079736%" x2="47.4193992%" y1="9.74361973%" x1="51.9152301%">
            <stop offset="0%" stop-color="#F4F5F5"></stop>
            <stop offset="100%" stop-color="#B3B5B9"></stop>
        </linearGradient>
        <linearGradient id="linearGradient-4" y2="99.8533457%" x2="51.788769%" y1="7.4888973%" x1="49.2370819%">
            <stop offset="0%" stop-color="#F3F4F4"></stop>
            <stop offset="100%" stop-color="#B3B5B9"></stop>
        </linearGradient>
        <linearGradient id="linearGradient-5" y2="80.1474768%" x2="19.1073477%" y1="63.3263462%" x1="100%">
            <stop offset="0%" stop-color="#D39E03"></stop>
            <stop offset="100%" stop-color="#F0AC24"></stop>
        </linearGradient>
        <linearGradient id="linearGradient-6" y2="67.6267643%" x2="88.1874806%" y1="24.1676355%" x1="26.3167558%">
            <stop offset="0%" stop-color="#FAD76F"></stop>
            <stop offset="100%" stop-color="#F0AC24"></stop>
        </linearGradient>
        <linearGradient id="linearGradient-7" y2="32.0552571%" x2="50%" y1="65.3868312%" x1="33.7644974%">
            <stop offset="0%" stop-opacity="0" stop-color="#FFF3F2"></stop>
            <stop offset="100%" stop-color="#FFEAAB"></stop>
        </linearGradient>
        <linearGradient id="linearGradient-8" y2="30.4810963%" x2="50%" y1="87.0084871%" x1="0.92446392%">
            <stop offset="0%" stop-color="#FFFFFF"></stop>
            <stop offset="100%" stop-color="#3F3F3F"></stop>
        </linearGradient>
    </defs>
    <g fill-rule="evenodd" fill="none" stroke-width="1" stroke="none" id="请求成功">
        <g transform="translate(0.000000, 153.000000)" id="请求失败">
            <g fill-rule="nonzero" id="底部背景备份">
                <g opacity="0.407744635" fill="url(#linearGradient-1)" transform="translate(0.000000, 374.074219)" id="编组-2">
                    <ellipse ry="162.462891" rx="512" cy="162.462891" cx="512" id="椭圆形"></ellipse>
                </g>
                <g transform="translate(155.648000, 0.000000)" id="未开通电子签章">
                    <path opacity="0.7" fill="url(#linearGradient-2)" id="形状结合" d="M564.110222,107.512207 C562.972444,107.512207 561.834667,107.512207 560.696889,107.227783 C559.274667,107.512207 557.852444,107.512207 556.430222,107.512207 C534.528,107.512207 516.608,89.8779297 516.608,67.6928711 C516.608,45.5078125 534.243556,28.157959 556.430222,28.157959 C558.990222,28.157959 561.550222,28.4423828 563.825778,28.7268066 C572.928,11.661377 590.848,0 611.612444,0 C641.194667,0 665.372444,24.1760254 665.372444,53.7561035 L665.372444,53.7561035 L697.230222,53.7561035 C712.021333,53.7561035 724.252444,65.7019043 724.252444,80.4919434 C724.252444,95.2819824 712.305778,107.512207 697.230222,107.512207 L564.110222,107.512207 Z"></path>
                    <g transform="translate(0.000000, 155.636719)" opacity="0.7794" id="编组备份-2">
                        <ellipse ry="5.4609375" rx="19.1146667" cy="84.6445312" cx="49.152" opacity="0.5988" fill="#9DA0A6" id="椭圆形_1_"></ellipse>
                        <path opacity="0.5765" fill="url(#linearGradient-3)" id="椭圆形_2_" d="M32.4049317,84.5550547 C37.6652625,86.7191895 63.3093749,49.0014127 66.9258523,39.1082254 C70.5423297,29.2150382 66.5970817,18.0852024 58.0490442,14.6844192 C49.5010067,11.2836361 39.6378865,16.5393919 36.0214091,26.7417413 C32.4049317,36.9440907 26.8158304,82.39092 32.4049317,84.5550547 Z"></path>
                        <path fill="url(#linearGradient-4)" id="椭圆形_3_" d="M33.7099369,81.8624181 C39.8169781,80.0690859 38.9009219,28.361341 35.8474013,16.7046818 C32.7938807,5.04802246 22.7172628,-2.12530632 12.9459968,0.564691974 C3.17473085,3.25469027 -2.0162542,14.9113496 0.731914359,26.5680089 C3.48008291,38.224668 27.6028957,83.6557503 33.7099369,81.8624181 Z"></path>
                    </g>
                </g>
            </g>
            <polygon points="482 590.466809 427.613009 616.385947 398.847896 563.449052 339.613009 552.450204 347.45707 492.715648 306 449 347.45707 405.284352 339.613009 345.549796 398.847896 334.550948 427.613009 281.614053 482 307.533191 536.386991 281.614053 565.152104 334.550948 624.386991 345.549796 616.54293 405.284352 658 449 616.54293 492.715648 624.386991 552.450204 565.152104 563.449052 536.386991 616.385947" fill="url(#linearGradient-5)" id="星形"></polygon>
            <polygon points="487 576.466809 432.613009 602.385947 403.847896 549.449052 344.613009 538.450204 352.45707 478.715648 311 435 352.45707 391.284352 344.613009 331.549796 403.847896 320.550948 432.613009 267.614053 487 293.533191 541.386991 267.614053 570.152104 320.550948 629.386991 331.549796 621.54293 391.284352 663 435 621.54293 478.715648 629.386991 538.450204 570.152104 549.449052 541.386991 602.385947" fill="url(#linearGradient-6)" id="星形"></polygon>
            <polygon points="536 615.974571 481.364418 589 319 671.002136 430.967049 719" fill="url(#linearGradient-7)" id="路径-24"></polygon>
            <polygon points="575 531.472954 676.993718 578 724 546.980002 633.098616 497" fill="#E8E8E8" id="路径-39"></polygon>
            <polygon points="575 531 575 591.750902 674.816544 647 677 577.647199" fill="#D8D8D8" id="路径-41"></polygon>
            <polygon points="677.174905 577.959886 675 647 724 610.87868 724 547" fill="#CDCED1" id="路径-53"></polygon>
            <path fill="#FFFFFF" id="形状结合" d="M544.376688,382 L557.712103,395.788977 L475.529,475.035 L475.712103,475.211023 L462.38206,489.005188 L461.711,488.359 L461.047518,489 L447.712103,475.211023 L447.882,475.047 L417,445.317123 L430.330043,431.522959 L461.7,461.722 L544.376688,382 Z"></path>
            <g fill-rule="nonzero" transform="translate(595.000000, 434.000000)" id="暂无消息-(1)">
                <g id="人物">
                    <path fill="#EBB0B0" id="形状结合" d="M40.9615669,8.94781625 C43.761753,9.20867636 46.3551021,10.5307088 48.2076425,12.6417064 C48.7840878,13.276044 49.2692253,13.9868076 49.6494624,14.7534826 L49.6761573,14.8098703 L49.6011185,14.4290725 C50.4803354,14.6773178 50.8618825,16.2219552 50.8926413,18.106206 L50.8941788,18.2380927 C53.0316169,17.6602713 54.5552605,24.1385668 49.9065221,24.3081165 C49.740288,24.7398921 49.5575503,25.1090518 49.3622369,25.3915851 C48.1876495,27.0907006 46.9047718,29.2651639 45.0823065,30.5763406 L45.0983125,35.329372 L35.5922751,35.4620206 L35.6332819,29.8804243 C34.8671386,29.2588433 34.2007318,28.4980243 33.6756777,27.615863 C32.9815708,26.5723759 32.407676,25.46236 31.9599971,24.3068616 L32.1471016,24.2971617 C26.6009033,24.6831181 28.4624709,17.140316 30.8027146,18.3288023 C30.7987605,18.0760959 30.801086,17.8216309 30.8090984,17.5668932 C31.0303366,15.4663263 31.8918721,13.4839456 33.2775417,11.8870406 C35.1934946,9.69907039 38.0704911,8.59858747 40.9615669,8.94781625 Z M49.8887783,15.8871979 L49.8919171,15.9621767 C49.9063561,16.338774 49.9275901,16.7116054 50.1186953,17.0505429 L49.8887783,15.8871979 Z M49.6761573,14.8098703 L49.8887783,15.8871979 L49.8865024,15.820835 C49.8769472,15.5851675 49.8620834,15.3494999 49.8020976,15.1211878 L49.760373,14.985142 L49.6761573,14.8098703 Z"></path>
                    <path fill="#131322" id="路径" d="M50.9719615,19.1671619 C54.2434637,16.034733 55.4332923,5.570249 49.2413403,2.92402822 C48.549104,2.08769568 47.0770502,1.86582159 45.0983125,1.83719862 C43.6622544,1.80040398 43.5005201,2.34349101 42.7665436,2.21565131 C42.0325671,2.08781161 40.9519101,0.366669056 38.1592329,0.026092476 C36.6481049,-0.186973693 32.0851485,0.937254294 31.0921215,2.21565131 C29.1456267,3.6610492 26.6154558,7.17863217 26.0497485,11.5905628 C25.4675,16.0104373 27.767975,18.2046714 29.6844923,21.5620594 C31.4546709,20.4541153 31.8864217,17.8973213 33.1384993,16.2354052 C34.8742853,14.2185559 37.0620106,12.6282934 39.5284121,11.5905628 C44.8342111,10.8208495 47.3758474,10.8208495 49.7648411,15.5694201 C49.7648411,15.5694201 50.1672143,16.7686673 50.9719615,19.1671619 Z"></path>
                    <path fill="#BE8512" id="路径" d="M35.8090301,31.5017398 C37.3136223,32.4288994 39.0824006,33.9889516 40.777454,34.0214836 C42.0594082,34.094706 43.8085606,32.2661966 44.9265409,31.5017398 C50.0703354,31.7417085 59.3958551,34.3459067 67.2915052,40.3295129 C67.2915052,63.4658228 64.9663247,67.588759 61.9497702,80.6114708 C61.8670431,81.1813712 53.3267038,96.0086162 51.6911257,96.8422477 C45.2845828,100.083108 40.3314138,99.476899 33.313179,98.6549084 C31.9452412,98.4881818 24.1390744,91.7119755 23.113121,90.7075509 C22.2916149,89.8942518 18.2015354,80.9937105 17.2722299,78.5416133 C16.3429243,76.0895161 14.9277976,71.6584364 14.8199981,69.0030141 C14.533772,61.9395102 14.0538279,49.9715898 13.9538853,41.1094379 C19.8408869,32.5528458 29.4377111,33.2666446 35.8090301,31.5017398 Z"></path>
                    <rect rx="4" height="22.7052402" width="15.5909966" y="36.7598304" x="32.0683629" fill="url(#linearGradient-8)" id="矩形"></rect>
                    <path transform="translate(32.395452, 55.613110) rotate(-31.000000) translate(-32.395452, -55.613110)" fill="#EFBA9E" id="路径-109" d="M27.3149508,54.1078446 C29.7660111,52.0213738 32.1741768,50.6317115 34.5394478,49.9388573 C36.4987013,49.940084 36.1002258,50.5654764 35.0955272,50.8531239 C36.0816619,51.1238651 40.6280233,52.0950182 38.1373368,58.4165112 C36.1865784,60.1550846 31.476404,62.4393807 27.5431778,60.6169231 C25.4542844,59.2537945 25.3782087,57.0841017 27.3149508,54.1078446 Z"></path>
                    <path fill="#E89F2A" id="路径-2" d="M12.3511425,41.3278432 C15.9789591,36.9718082 19.4848028,36.5614688 22.8686734,40.096825 C26.7097229,43.7505624 25.1045748,67.3288376 22.8686734,81.8990364 C17.6528736,88.2089714 11.1310836,84.4019603 9.38017328,79.1870163 C5.58045999,63.1150005 6.57078302,50.4952761 12.3511425,41.3278432 Z"></path>
                    <path fill="#E89F2A" id="路径-3" d="M13.3708465,76.6769673 C14.9069416,69.6697337 19.3634465,63.2818188 26.740361,57.513222 C29.40686,56.529114 32.4309797,57.4694183 33.1459371,61.0639754 C33.9048972,63.2476387 30.0136316,80.7030432 20.9879333,85.1891989 C14.4906399,86.5037432 11.951611,83.6663324 13.3708465,76.6769673 Z"></path>
                    <path transform="translate(48.057999, 55.613110) scale(-1, 1) rotate(-31.000000) translate(-48.057999, -55.613110)" fill="#EFBA9E" id="路径-109" d="M42.9774975,54.1078446 C45.4285579,52.0213738 47.8367236,50.6317116 50.2019946,49.9388573 C52.1612479,49.940084 51.7627725,50.5654764 50.758074,50.8531239 C51.7442087,51.1238651 56.2905702,52.0950182 53.7998833,58.4165113 C51.8491251,60.1550846 47.1389508,62.4393807 43.2057246,60.6169231 C41.1168311,59.2537945 41.0407555,57.0841017 42.9774975,54.1078446 Z"></path>
                    <path transform="translate(64.300670, 61.455128) scale(-1, 1) translate(-64.300670, -61.455128)" fill="#E89F2A" id="路径-2" d="M60.4990319,41.3278432 C64.126849,36.9718082 67.6326922,36.5614688 71.0165631,40.096825 C74.8576125,43.7505624 73.2524643,67.3288376 71.0165631,81.8990364 C65.800763,88.2089714 59.2789731,84.4019603 57.5280626,79.1870163 C53.7283494,63.1150005 54.7186727,50.4952761 60.4990319,41.3278432 Z"></path>
                    <path transform="translate(57.339564, 71.324259) scale(-1, 1) translate(-57.339564, -71.324259)" fill="#E89F2A" id="路径-3" d="M47.5965236,76.6769673 C49.1326187,69.6697337 53.5891234,63.2818188 60.9660382,57.513222 C63.6325372,56.529114 66.6566568,57.4694183 67.3716142,61.0639754 C68.1305742,63.2476387 64.2393086,80.7030432 55.2136106,85.1891989 C48.7163171,86.5037432 46.1772881,83.6663324 47.5965236,76.6769673 Z"></path>
                    <path fill="#000000" id="裤子" d="M67.7876991,83.6410196 C67.7876991,83.6410196 78.4084854,79.268128 81.4921865,88.8038892 C84.2111482,97.2177801 75.1258356,98.9845033 75.1258356,98.9845033 L75.1258356,98.9845033 L68.256681,100.237304 L65.2651345,109.651219 L40.9714782,105.215546 L16.6579482,109.651219 L13.6625072,100.22967 L6.86611364,98.9892987 C6.86611364,98.9892987 -2.20899627,97.2225761 0.507415214,88.8132274 C3.58856552,79.2817572 14.1965987,83.6526299 14.1965987,83.6526299 L40.9595941,90.7135837 L67.7876991,83.6410196 Z"></path>
                    <path fill="#333333" id="脚" d="M14.3400259,102.604876 L11.4140354,102.792935 C10.5048538,102.840631 9.59365291,102.840631 8.6844713,102.792935 C6.80949044,102.715745 5.06971227,102.713041 5.06971227,102.713041 C5.06971227,102.713041 1.57995192,102.587667 0.855469517,103.573446 C-0.537373433,105.47027 0.189659975,109.325868 0.189659975,109.325868 C0.189659975,109.325868 0.628431012,110.921549 1.4575042,111.641094 C2.15647667,112.250015 3.43962684,111.793017 3.43962684,111.793017 C3.43962684,111.793017 5.74827679,111.197125 8.20998641,110.679653 C11.5466871,109.979037 12.975244,109.745499 12.975244,109.745499 L16.4854122,108.805691 L14.3400259,102.604876 Z M67.5818297,102.604876 L70.5231264,102.793673 C71.4374055,102.841652 72.3537171,102.841652 73.2679968,102.793673 C75.1531815,102.716236 76.9031638,102.713533 76.9031638,102.713533 C76.9031638,102.713533 80.4107812,102.587667 81.1403653,103.57787 C82.5408613,105.483053 81.8087262,109.356596 81.8087262,109.356596 C81.8087262,109.356596 81.3674035,110.959162 80.5357798,111.682148 C79.8317052,112.293527 78.5434531,111.834808 78.5434531,111.834808 C78.5434531,111.834808 76.2220482,111.235966 73.7450327,110.716282 C70.3904749,110.012716 68.9542652,109.777703 68.9542652,109.777703 L65.4236892,108.833962 L67.5818297,102.604876 Z"></path>
                </g>
            </g>
        </g>
    </g>
</svg>